StickNoBills-tamil-0.ufo
<glyph name="tml_Visarga" format="1">
  <advance width="654"/>
  <unicode hex="0B83"/>
  <outline>
    <contour>
      <point x="475.49" y="121" type="curve" smooth="yes"/>
      <point x="475.49" y="159.357"/>
      <point x="506.405" y="190.272"/>
      <point x="544.763" y="190.272" type="curve" smooth="yes"/>
      <point x="583.12" y="190.272"/>
      <point x="614.035" y="159.357"/>
      <point x="614.035" y="121" type="curve" smooth="yes"/>
      <point x="614.035" y="82.6426"/>
      <point x="583.12" y="51.7275"/>
      <point x="544.763" y="51.7275" type="curve" smooth="yes"/>
      <point x="506.405" y="51.7275"/>
      <point x="475.49" y="82.6426"/>
    </contour>
    <contour>
      <point x="255.763" y="509.728" type="curve" smooth="yes"/>
      <point x="255.763" y="548.085"/>
      <point x="286.678" y="579"/>
      <point x="325.035" y="579" type="curve" smooth="yes"/>
      <point x="363.393" y="579"/>
      <point x="394.308" y="548.085"/>
      <point x="394.308" y="509.728" type="curve" smooth="yes"/>
      <point x="394.308" y="471.37"/>
      <point x="363.393" y="440.455"/>
      <point x="325.035" y="440.455" type="curve" smooth="yes"/>
      <point x="286.678" y="440.455"/>
      <point x="255.763" y="471.37"/>
    </contour>
    <contour>
      <point x="40" y="117.513" type="curve" smooth="yes"/>
      <point x="40" y="155.87"/>
      <point x="70.915" y="186.785"/>
      <point x="109.272" y="186.785" type="curve" smooth="yes"/>
      <point x="147.63" y="186.785"/>
      <point x="178.545" y="155.87"/>
      <point x="178.545" y="117.513" type="curve" smooth="yes"/>
      <point x="178.545" y="79.1553"/>
      <point x="147.63" y="48.2402"/>
      <point x="109.272" y="48.2402" type="curve" smooth="yes"/>
      <point x="70.915" y="48.2402"/>
      <point x="40" y="79.1553"/>
    </contour>
  </outline>
</glyph>
<glyph name="tml_A" format="1">
  <advance width="975"/>
  <unicode hex="0B85"/>
  <outline>
    <contour>
      <point x="323" y="460" type="curve" smooth="yes"/>
      <point x="323.104" y="460"/>
      <point x="282.804" y="460"/>
      <point x="282.804" y="460" type="curve"/>
      <point x="282.804" y="460"/>
      <point x="294" y="289"/>
      <point x="473" y="289" type="curve" smooth="yes"/>
      <point x="562" y="289"/>
      <point x="637" y="346"/>
      <point x="642" y="409" type="curve" smooth="yes"/>
      <point x="610" y="443" type="line" smooth="yes"/>
      <point x="610" y="375"/>
      <point x="544" y="329"/>
      <point x="473" y="329" type="curve" smooth="yes"/>
      <point x="392.876" y="329"/>
      <point x="331.084" y="375.817"/>
    </contour>
    <contour>
      <point x="325" y="516" type="curve" smooth="yes"/>
      <point x="323.547" y="515"/>
      <point x="284.892" y="516"/>
      <point x="284.892" y="516" type="curve"/>
      <point x="284.892" y="516"/>
      <point x="297" y="695"/>
      <point x="539" y="695" type="curve" smooth="yes"/>
      <point x="693.737" y="695"/>
      <point x="784" y="585"/>
      <point x="784" y="393" type="curve"/>
      <point x="784" y="224" type="line"/>
      <point x="744" y="224" type="line"/>
      <point x="744" y="396" type="line" smooth="yes"/>
      <point x="744" y="583"/>
      <point x="652.796" y="655"/>
      <point x="539" y="655" type="curve" smooth="yes"/>
      <point x="411.655" y="655"/>
      <point x="331.779" y="605.159"/>
    </contour>
    <contour>
      <point x="464" y="192" type="curve"/>
      <point x="464" y="232" type="line"/>
      <point x="536.889" y="232"/>
      <point x="711.111" y="232"/>
      <point x="784" y="232" type="curve"/>
      <point x="785" y="67" type="line"/>
      <point x="785" y="-35"/>
      <point x="727.619" y="-127"/>
      <point x="628" y="-127" type="curve" smooth="yes"/>
      <point x="466" y="-127" type="line" smooth="yes"/>
      <point x="466" y="-87" type="line"/>
      <point x="629" y="-87" type="line" smooth="yes"/>
      <point x="692.806" y="-86"/>
      <point x="744" y="-29"/>
      <point x="744" y="69" type="curve"/>
      <point x="744" y="192" type="line"/>
      <point x="708.125" y="192"/>
      <point x="499.875" y="192"/>
    </contour>
    <contour>
      <point x="60" y="72" type="curve" smooth="yes"/>
      <point x="60" y="188"/>
      <point x="144" y="233"/>
      <point x="274" y="233" type="curve" smooth="yes"/>
      <point x="410" y="233" type="line"/>
      <point x="410" y="191" type="line"/>
      <point x="256" y="191" type="line" smooth="yes"/>
      <point x="232" y="191"/>
      <point x="100" y="195.5"/>
      <point x="100" y="72" type="curve" smooth="yes"/>
      <point x="100" y="-48.0156"/>
      <point x="201" y="-87"/>
      <point x="261" y="-87" type="curve" smooth="yes"/>
      <point x="411" y="-87" type="line"/>
      <point x="411" y="-127" type="line"/>
      <point x="263" y="-127" type="line" smooth="yes"/>
      <point x="151" y="-127"/>
      <point x="60" y="-47"/>
    </contour>
    <contour>
      <point x="743" y="192" type="line"/>
      <point x="743" y="232" type="line"/>
      <point x="877" y="232" type="line"/>
      <point x="877" y="192" type="line"/>
    </contour>
    <contour>
      <point x="875" y="-107" type="line"/>
      <point x="875" y="578" type="line"/>
      <point x="915" y="578" type="line"/>
      <point x="915" y="-107" type="line"/>
    </contour>
  </outline>
</glyph>
<glyph name="tml_I" format="1">
  <advance width="1143"/>
  <unicode hex="0B87"/>
  <outline>
    <contour>
      <point x="404" y="410" type="curve" smooth="yes"/>
      <point x="404.104" y="410"/>
      <point x="363.804" y="410"/>
      <point x="363.804" y="410" type="curve"/>
      <point x="363.804" y="410"/>
      <point x="375" y="239"/>
      <point x="554" y="239" type="curve" smooth="yes"/>
      <point x="643" y="239"/>
      <point x="718" y="296"/>
      <point x="723" y="359" type="curve" smooth="yes"/>
      <point x="691" y="393" type="line" smooth="yes"/>
      <point x="691" y="325"/>
      <point x="625" y="279"/>
      <point x="554" y="279" type="curve" smooth="yes"/>
      <point x="473.876" y="279"/>
      <point x="412.084" y="325.817"/>
    </contour>
    <contour>
      <point x="406" y="466" type="curve" smooth="yes"/>
      <point x="404.547" y="465"/>
      <point x="365.892" y="466"/>
      <point x="365.892" y="466" type="curve"/>
      <point x="365.892" y="466"/>
      <point x="378" y="645"/>
      <point x="620" y="645" type="curve" smooth="yes"/>
      <point x="774.737" y="645"/>
      <point x="865" y="535"/>
      <point x="865" y="343" type="curve"/>
      <point x="865" y="214" type="line"/>
      <point x="825" y="214" type="line"/>
      <point x="825" y="346" type="line" smooth="yes"/>
      <point x="825" y="533"/>
      <point x="733.796" y="605"/>
      <point x="620" y="605" type="curve" smooth="yes"/>
      <point x="492.655" y="605"/>
      <point x="412.779" y="555.159"/>
    </contour>
    <contour>
      <point x="77" y="21" type="curve" smooth="yes"/>
      <point x="77" y="137"/>
      <point x="161" y="182"/>
      <point x="291" y="182" type="curve" smooth="yes"/>
      <point x="533" y="182" type="line"/>
      <point x="533" y="140" type="line"/>
      <point x="273" y="140" type="line" smooth="yes"/>
      <point x="249" y="140"/>
      <point x="117" y="144.5"/>
      <point x="117" y="21" type="curve" smooth="yes"/>
      <point x="117" y="-99.0156"/>
      <point x="218" y="-138"/>
      <point x="278" y="-138" type="curve" smooth="yes"/>
      <point x="534" y="-138" type="line"/>
      <point x="534" y="-178" type="line"/>
      <point x="280" y="-178" type="line" smooth="yes"/>
      <point x="168" y="-178"/>
      <point x="77" y="-98"/>
    </contour>
    <contour>
      <point x="588" y="141" type="curve"/>
      <point x="588" y="181" type="line"/>
      <point x="651.27" y="181"/>
      <point x="801.73" y="181"/>
      <point x="865" y="181" type="curve"/>
      <point x="866" y="16" type="line"/>
      <point x="866" y="-86"/>
      <point x="808.619" y="-178"/>
      <point x="709" y="-178" type="curve" smooth="yes"/>
      <point x="590" y="-178" type="line" smooth="yes"/>
      <point x="590" y="-138" type="line"/>
      <point x="710" y="-138" type="line" smooth="yes"/>
      <point x="773.806" y="-137"/>
      <point x="825" y="-80"/>
      <point x="825" y="18" type="curve"/>
      <point x="825" y="141" type="line"/>
      <point x="794.539" y="141"/>
      <point x="618.461" y="141"/>
    </contour>
    <contour>
      <point x="831" y="-169" type="curve"/>
      <point x="850" y="-130" type="line"/>
      <point x="913" y="-138"/>
      <point x="1022" y="-99"/>
      <point x="1022" y="29" type="curve" smooth="yes"/>
      <point x="1022" y="83"/>
      <point x="1000" y="141"/>
      <point x="865" y="141" type="curve"/>
      <point x="865" y="181" type="line"/>
      <point x="1004" y="181"/>
      <point x="1062" y="120"/>
      <point x="1062" y="36" type="curve" smooth="yes"/>
      <point x="1062" y="2" type="line"/>
      <point x="1062" y="-66"/>
      <point x="988" y="-188"/>
    </contour>
    <contour>
      <point x="665" y="800.919" type="curve" smooth="yes"/>
      <point x="665" y="800"/>
      <point x="665" y="760.928"/>
      <point x="665" y="760.928" type="curve"/>
      <point x="905.62" y="738.985"/>
      <point x="999.756" y="544.179"/>
      <point x="993" y="244" type="curve"/>
      <point x="1033" y="244" type="line"/>
      <point x="1039.78" y="610.83"/>
      <point x="901.269" y="780.627"/>
    </contour>
    <contour>
      <point x="611" y="802.8" type="curve" smooth="yes"/>
      <point x="611" y="762.687" type="line"/>
      <point x="374.309" y="753.861"/>
      <point x="261.264" y="590.019"/>
      <point x="263.644" y="369" type="curve" smooth="yes"/>
      <point x="264.325" y="305.66"/>
      <point x="283.665" y="210.089"/>
      <point x="301" y="146" type="curve"/>
      <point x="255" y="142" type="line"/>
      <point x="238.532" y="211.55"/>
      <point x="220.438" y="308.774"/>
      <point x="220.338" y="372" type="curve" smooth="yes"/>
      <point x="219.927" y="632.935"/>
      <point x="365.689" y="795.753"/>
    </contour>
    <contour>
      <point x="262" y="114" type="curve"/>
      <point x="309" y="114" type="line"/>
      <point x="331.711" y="-2"/>
      <point x="409" y="-95"/>
      <point x="527" y="-146.066" type="curve"/>
      <point x="487" y="-170.066" type="line" smooth="yes"/>
      <point x="380" y="-122"/>
      <point x="294.625" y="-18"/>
    </contour>
  </outline>
</glyph>
<glyph name="tml_Ii" format="1">
  <advance width="585"/>
  <unicode hex="0B88"/>
  <outline>
    <contour>
      <point x="421.86" y="253.116" type="curve" smooth="yes"/>
      <point x="421.86" y="278.418"/>
      <point x="442.698" y="300"/>
      <point x="468" y="300" type="curve" smooth="yes"/>
      <point x="493.303" y="300"/>
      <point x="514.884" y="278.418"/>
      <point x="514.884" y="253.116" type="curve" smooth="yes"/>
      <point x="514.884" y="227.813"/>
      <point x="493.303" y="206.977"/>
      <point x="468" y="206.977" type="curve" smooth="yes"/>
      <point x="442.698" y="206.977"/>
      <point x="421.86" y="227.813"/>
    </contour>
    <contour>
      <point x="177.475" y="253.568" type="curve" smooth="yes"/>
      <point x="177.475" y="278.87"/>
      <point x="198.312" y="300.452"/>
      <point x="223.614" y="300.452" type="curve" smooth="yes"/>
      <point x="248.917" y="300.452"/>
      <point x="270.498" y="278.87"/>
      <point x="270.498" y="253.568" type="curve" smooth="yes"/>
      <point x="270.498" y="228.266"/>
      <point x="248.917" y="207.429"/>
      <point x="223.614" y="207.429" type="curve" smooth="yes"/>
      <point x="198.312" y="207.429"/>
      <point x="177.475" y="228.266"/>
    </contour>
    <contour>
      <point x="343" y="0" type="line"/>
      <point x="383" y="0" type="line"/>
      <point x="383" y="594" type="line"/>
      <point x="343" y="594" type="line"/>
    </contour>
    <contour>
      <point x="60" y="1" type="line"/>
      <point x="60" y="593" type="line"/>
      <point x="100" y="594" type="line"/>
      <point x="100" y="1" type="line"/>
    </contour>
    <contour>
      <point x="248" y="555" type="line"/>
      <point x="525" y="555" type="line"/>
      <point x="525" y="596" type="line"/>
      <point x="248" y="596" type="line"/>
    </contour>
    <contour>
      <point x="60" y="555" type="line"/>
      <point x="60" y="596" type="line"/>
      <point x="194" y="596" type="line"/>
      <point x="194" y="555" type="line"/>
    </contour>
  </outline>
</glyph>
<glyph name="tml_U" format="1">
  <advance width="1003"/>
  <unicode hex="0B89"/>
  <outline>
    <contour>
      <point x="80.4" y="486" type="curve" smooth="yes"/>
      <point x="86.0618" y="577.562"/>
      <point x="151.671" y="656"/>
      <point x="267" y="656" type="curve" smooth="yes"/>
      <point x="380.276" y="656"/>
      <point x="484" y="603.257"/>
      <point x="484" y="420" type="curve"/>
      <point x="524" y="420" type="line"/>
      <point x="524" y="610.01"/>
      <point x="428.846" y="696"/>
      <point x="267" y="696" type="curve" smooth="yes"/>
      <point x="130.112" y="696"/>
      <point x="40.3806" y="600"/>
      <point x="40.3806" y="486" type="curve" smooth="yes"/>
      <point x="40.3806" y="486"/>
      <point x="80" y="486"/>
    </contour>
    <contour>
      <point x="260" y="0" type="line"/>
      <point x="260" y="38" type="line"/>
      <point x="963" y="38" type="line"/>
      <point x="963" y="0" type="line"/>
    </contour>
    <contour>
      <point x="58" y="38" type="curve"/>
      <point x="206" y="38" type="line"/>
      <point x="206" y="0" type="line"/>
      <point x="117" y="0" type="line" smooth="yes"/>
      <point x="67" y="0"/>
      <point x="58" y="5"/>
    </contour>
    <contour>
      <point x="58" y="33" type="line" smooth="yes"/>
      <point x="58" y="137" type="line" smooth="yes"/>
      <point x="58" y="178"/>
      <point x="72" y="183"/>
      <point x="112" y="183" type="curve" smooth="yes"/>
      <point x="337" y="183" type="line" smooth="yes"/>
      <point x="450.885" y="184"/>
      <point x="484" y="237"/>
      <point x="484" y="339" type="curve" smooth="yes"/>
      <point x="484" y="376" type="line"/>
      <point x="524" y="376" type="line"/>
      <point x="524" y="339" type="line" smooth="yes"/>
      <point x="524" y="264"/>
      <point x="498.688" y="142"/>
      <point x="335" y="142" type="curve" smooth="yes"/>
      <point x="101" y="141" type="line"/>
      <point x="101" y="128"/>
      <point x="101" y="33"/>
      <point x="101" y="33" type="curve" smooth="yes"/>
    </contour>
    <contour>
      <point x="80.5158" y="459" type="curve" smooth="yes"/>
      <point x="83" y="402"/>
      <point x="117.472" y="318"/>
      <point x="207" y="318" type="curve" smooth="yes"/>
      <point x="292.986" y="318"/>
      <point x="337" y="381"/>
      <point x="313" y="450" type="curve" smooth="yes"/>
      <point x="368" y="430" type="line" smooth="yes"/>
      <point x="368" y="333"/>
      <point x="299.483" y="278"/>
      <point x="208" y="278" type="curve" smooth="yes"/>
      <point x="93" y="278"/>
      <point x="40.3437" y="366"/>
      <point x="40.3437" y="459" type="curve" smooth="yes"/>
      <point x="80.5158" y="459"/>
    </contour>
  </outline>
</glyph>
<glyph name="tml_Ee" format="1">
  <advance width="656"/>
  <unicode hex="0B8F"/>
  <outline>
    <contour>
      <point x="327" y="-176" type="line"/>
      <point x="378" y="-176" type="line"/>
      <point x="526" y="0" type="line" smooth="yes"/>
      <point x="526" y="577" type="line"/>
      <point x="486" y="577" type="line"/>
      <point x="486" y="15" type="line"/>
    </contour>
    <component base="tml_E"/>
  </outline>
</glyph>
<glyph name="tml_Ai" format="1">
  <advance width="879"/>
  <unicode hex="0B90"/>
  <outline>
    <contour>
      <point x="689" y="196.767" type="curve" smooth="yes"/>
      <point x="687" y="194"/>
      <point x="689" y="237.814"/>
      <point x="689" y="237.814" type="curve"/>
      <point x="689" y="237.814"/>
      <point x="794" y="212"/>
      <point x="799" y="419" type="curve"/>
      <point x="799" y="502" type="line"/>
      <point x="799" y="617.784"/>
      <point x="711.711" y="638.902"/>
      <point x="675" y="644" type="curve"/>
      <point x="675" y="684" type="line"/>
      <point x="761.271" y="677.805"/>
      <point x="839" y="617.396"/>
      <point x="839" y="502" type="curve"/>
      <point x="839" y="387" type="line" smooth="yes"/>
      <point x="839" y="248"/>
      <point x="762.324" y="201.793"/>
    </contour>
    <contour>
      <point x="275" y="236" type="line" smooth="yes"/>
      <point x="275" y="233"/>
      <point x="275" y="196"/>
      <point x="275" y="196" type="curve"/>
      <point x="227" y="196" type="line" smooth="yes"/>
      <point x="182.013" y="196"/>
      <point x="105" y="172"/>
      <point x="105" y="46" type="curve" smooth="yes"/>
      <point x="105" y="-78"/>
      <point x="185.905" y="-140"/>
      <point x="258" y="-140" type="curve"/>
      <point x="258" y="-180" type="line"/>
      <point x="131.84" y="-180"/>
      <point x="65" y="-57"/>
      <point x="65" y="25" type="curve" smooth="yes"/>
      <point x="65" y="64" type="line" smooth="yes"/>
      <point x="65" y="138"/>
      <point x="110" y="236"/>
      <point x="234" y="236" type="curve" smooth="yes"/>
    </contour>
    <contour>
      <point x="52" y="460" type="curve" smooth="yes"/>
      <point x="52.1035" y="460"/>
      <point x="11.8037" y="460"/>
      <point x="11.8037" y="460" type="curve"/>
      <point x="11.8037" y="460"/>
      <point x="23" y="289"/>
      <point x="202" y="289" type="curve" smooth="yes"/>
      <point x="291" y="289"/>
      <point x="366" y="346"/>
      <point x="371" y="409" type="curve" smooth="yes"/>
      <point x="339" y="443" type="line" smooth="yes"/>
      <point x="339" y="375"/>
      <point x="273" y="329"/>
      <point x="202" y="329" type="curve" smooth="yes"/>
      <point x="121.876" y="329"/>
      <point x="60.084" y="375.817"/>
    </contour>
    <contour>
      <point x="54" y="516" type="curve" smooth="yes"/>
      <point x="52.5469" y="515"/>
      <point x="13.8916" y="516"/>
      <point x="13.8916" y="516" type="curve"/>
      <point x="13.8916" y="516"/>
      <point x="26" y="695"/>
      <point x="268" y="695" type="curve" smooth="yes"/>
      <point x="422.737" y="695"/>
      <point x="513" y="585"/>
      <point x="513" y="393" type="curve"/>
      <point x="513" y="372" type="line"/>
      <point x="473" y="372" type="line"/>
      <point x="473" y="396" type="line" smooth="yes"/>
      <point x="473" y="583"/>
      <point x="381.796" y="655"/>
      <point x="268" y="655" type="curve" smooth="yes"/>
      <point x="140.655" y="655"/>
      <point x="60.7793" y="605.159"/>
    </contour>
    <contour>
      <point x="623" y="236" type="line" smooth="yes"/>
      <point x="626" y="234"/>
      <point x="623" y="196"/>
      <point x="623" y="196" type="curve"/>
      <point x="347" y="196" type="line"/>
      <point x="347" y="236" type="line"/>
    </contour>
    <contour>
      <point x="312" y="-140" type="line"/>
      <point x="383" y="-140"/>
      <point x="474" y="-129.146"/>
      <point x="474" y="8" type="curve" smooth="yes"/>
      <point x="474" y="117" type="line" smooth="yes"/>
      <point x="513" y="118" type="line" smooth="yes"/>
      <point x="513" y="9" type="line" smooth="yes"/>
      <point x="513" y="-113.916"/>
      <point x="572.455" y="-140"/>
      <point x="616" y="-140" type="curve"/>
      <point x="616" y="-180" type="line"/>
      <point x="568.555" y="-180"/>
      <point x="518" y="-161.605"/>
      <point x="491" y="-105" type="curve"/>
      <point x="453" y="-170.164"/>
      <point x="368.893" y="-180"/>
      <point x="312" y="-180" type="curve"/>
    </contour>
    <contour>
      <point x="475" y="371" type="line"/>
      <point x="475" y="480" type="line" smooth="yes"/>
      <point x="475" y="605.611"/>
      <point x="533.037" y="675.5"/>
      <point x="621" y="684" type="curve"/>
      <point x="621" y="644" type="line"/>
      <point x="585.918" y="636.5"/>
      <point x="514" y="619.625"/>
      <point x="514" y="464" type="curve" smooth="yes"/>
      <point x="514" y="371" type="line"/>
    </contour>
    <contour>
      <point x="670" y="-140" type="line"/>
      <point x="731.622" y="-140"/>
      <point x="784" y="-85"/>
      <point x="784" y="-3" type="curve" smooth="yes"/>
      <point x="784" y="118" type="line"/>
      <point x="824" y="118" type="line"/>
      <point x="824" y="-3" type="line" smooth="yes"/>
      <point x="824" y="-87"/>
      <point x="769.937" y="-180"/>
      <point x="670" y="-180" type="curve"/>
    </contour>
  </outline>
</glyph>
<glyph name="tml_Oo" format="1">
  <advance width="819"/>
  <unicode hex="0B93"/>
  <outline>
    <contour>
      <point x="442" y="655" type="curve"/>
      <point x="442" y="695" type="line"/>
      <point x="679.148" y="695"/>
      <point x="779" y="494"/>
      <point x="779" y="398" type="curve" smooth="yes"/>
      <point x="779" y="165" type="line" smooth="yes"/>
      <point x="779" y="-17"/>
      <point x="446" y="-16"/>
      <point x="446" y="166" type="curve" smooth="yes"/>
      <point x="446" y="350" type="line" smooth="yes"/>
      <point x="486" y="350" type="line"/>
      <point x="486" y="162" type="line"/>
      <point x="486" y="47"/>
      <point x="732.977" y="30"/>
      <point x="739" y="163.5" type="curve" smooth="yes"/>
      <point x="739" y="397.5" type="line" smooth="yes"/>
      <point x="739" y="488"/>
      <point x="643.222" y="655"/>
    </contour>
    <contour>
      <point x="182" y="-141" type="curve" smooth="yes"/>
      <point x="182" y="-64"/>
      <point x="221.294" y="19"/>
      <point x="349" y="19" type="curve"/>
      <point x="349" y="-21" type="line"/>
      <point x="246.423" y="-21"/>
      <point x="222" y="-90"/>
      <point x="222" y="-143.066" type="curve" smooth="yes"/>
      <point x="222" y="-276"/>
      <point x="404.665" y="-304.886"/>
      <point x="491" y="-183" type="curve" smooth="yes"/>
      <point x="498.594" y="-172.398"/>
      <point x="502" y="-166"/>
      <point x="514" y="-143" type="curve"/>
      <point x="549" y="-163" type="line"/>
      <point x="517" y="-231"/>
      <point x="448" y="-302"/>
      <point x="345" y="-301" type="curve" smooth="yes"/>
      <point x="243.861" y="-300"/>
      <point x="182" y="-226"/>
    </contour>
    <contour>
      <point x="40.0088" y="202" type="curve" smooth="yes"/>
      <point x="40.0088" y="226" type="line" smooth="yes"/>
      <point x="40.0088" y="330"/>
      <point x="116.009" y="389"/>
      <point x="192.009" y="389" type="curve"/>
      <point x="192.009" y="349" type="line" smooth="yes"/>
      <point x="154.625" y="349"/>
      <point x="79.0088" y="325"/>
      <point x="79.0088" y="211" type="curve" smooth="yes"/>
      <point x="79.0088" y="121"/>
      <point x="141.881" y="70"/>
      <point x="192.009" y="70" type="curve"/>
      <point x="192.009" y="30" type="line" smooth="yes"/>
      <point x="103.637" y="30"/>
      <point x="40.0088" y="118"/>
    </contour>
    <contour>
      <point x="247.009" y="30" type="curve"/>
      <point x="247.009" y="70" type="line"/>
      <point x="291.458" y="70"/>
      <point x="341.009" y="118"/>
      <point x="341.009" y="212.617" type="curve" smooth="yes"/>
      <point x="341.009" y="312"/>
      <point x="289.272" y="349"/>
      <point x="247.009" y="349" type="curve"/>
      <point x="247.009" y="389" type="line" smooth="yes"/>
      <point x="320.192" y="389"/>
      <point x="383.009" y="322"/>
      <point x="383.009" y="226" type="curve" smooth="yes"/>
      <point x="383.009" y="203" type="line" smooth="yes"/>
      <point x="383.813" y="105"/>
      <point x="319.216" y="30"/>
    </contour>
    <contour>
      <point x="446" y="25" type="curve" smooth="yes"/>
      <point x="446" y="276" type="line"/>
      <point x="486" y="175" type="line" smooth="yes"/>
      <point x="486" y="27" type="line" smooth="yes"/>
      <point x="486" y="-61"/>
      <point x="619" y="-94"/>
      <point x="715" y="-92" type="curve" smooth="yes"/>
      <point x="715" y="-132" type="line"/>
      <point x="552" y="-132"/>
      <point x="446" y="-66"/>
    </contour>
    <contour>
      <point x="40" y="228" type="curve"/>
      <point x="40" y="310" type="line"/>
      <point x="40" y="467"/>
      <point x="116.653" y="695"/>
      <point x="389" y="695" type="curve"/>
      <point x="389" y="655" type="line"/>
      <point x="178.104" y="655"/>
      <point x="90.0088" y="502"/>
      <point x="82" y="332" type="curve"/>
      <point x="55" y="283"/>
      <point x="51" y="256"/>
    </contour>
  </outline>
</glyph>
<glyph name="tml_Ka" format="1">
  <advance width="778"/>
  <unicode hex="0B95"/>
  <outline>
    <contour>
      <point x="392" y="1" type="move" name="tml_virama"/>
    </contour>
    <contour>
      <point x="185" y="348" type="line"/>
      <point x="225" y="348" type="line"/>
      <point x="226" y="561" type="line"/>
      <point x="185" y="561" type="line"/>
    </contour>
    <contour>
      <point x="60" y="208" type="curve"/>
      <point x="60" y="208"/>
      <point x="100" y="208"/>
      <point x="100" y="208" type="curve"/>
      <point x="100" y="276"/>
      <point x="123" y="331"/>
      <point x="215" y="331" type="curve" smooth="yes"/>
      <point x="541" y="331" type="line" smooth="yes"/>
      <point x="641" y="331"/>
      <point x="678" y="296"/>
      <point x="678" y="196" type="curve"/>
      <point x="718" y="196" type="line"/>
      <point x="718" y="325"/>
      <point x="665" y="371"/>
      <point x="553" y="371" type="curve" smooth="yes"/>
      <point x="212" y="371" type="line" smooth="yes"/>
      <point x="171" y="371"/>
      <point x="60" y="362"/>
    </contour>
    <contour>
      <point x="249" y="-11" type="curve"/>
      <point x="249" y="29" type="line"/>
      <point x="167" y="29"/>
      <point x="107" y="78"/>
      <point x="101" y="172" type="curve"/>
      <point x="100" y="172"/>
      <point x="60" y="172"/>
      <point x="60" y="172" type="curve"/>
      <point x="63" y="76"/>
      <point x="126" y="-11"/>
    </contour>
    <contour>
      <point x="303" y="-11" type="line"/>
      <point x="439" y="-11"/>
      <point x="482" y="95"/>
      <point x="482" y="191" type="curve" smooth="yes"/>
      <point x="482" y="563" type="line"/>
      <point x="442" y="563" type="line"/>
      <point x="442" y="191" type="line" smooth="yes"/>
      <point x="442" y="75"/>
      <point x="378" y="29"/>
      <point x="303" y="29" type="curve"/>
    </contour>
    <contour>
      <point x="361" y="555" type="line"/>
      <point x="614" y="555" type="line"/>
      <point x="614" y="595" type="line"/>
      <point x="361" y="595" type="line"/>
    </contour>
    <contour>
      <point x="185" y="555" type="line"/>
      <point x="307" y="555" type="line"/>
      <point x="307" y="595" type="line"/>
      <point x="185" y="595" type="line"/>
    </contour>
    <contour>
      <point x="502" y="-11" type="line" smooth="yes"/>
      <point x="625" y="-11"/>
      <point x="712" y="68"/>
      <point x="717" y="160" type="curve"/>
      <point x="674" y="161" type="line"/>
      <point x="669" y="80"/>
      <point x="590" y="29"/>
      <point x="502" y="29" type="curve" smooth="yes"/>
    </contour>
  </outline>
</glyph>
<glyph name="tml_Nga" format="1">
  <advance width="841"/>
  <unicode hex="0B99"/>
  <outline>
    <contour>
      <point x="301" y="0" type="move" name="tml_virama"/>
    </contour>
    <contour>
      <point x="751" y="0" type="line"/>
      <point x="751" y="595" type="line"/>
      <point x="791" y="595" type="line"/>
      <point x="791" y="0" type="line"/>
    </contour>
    <contour>
      <point x="309" y="0" type="line"/>
      <point x="309" y="40" type="line"/>
      <point x="698" y="40" type="line"/>
      <point x="698" y="0" type="line"/>
    </contour>
    <contour>
      <point x="251" y="0" type="line"/>
      <point x="251" y="40" type="line"/>
      <point x="277.526" y="40"/>
      <point x="365.144" y="40"/>
      <point x="419" y="40" type="curve" smooth="yes"/>
      <point x="483" y="40"/>
      <point x="521" y="70"/>
      <point x="521" y="123" type="curve" smooth="yes"/>
      <point x="521" y="224" type="line" smooth="yes"/>
      <point x="521" y="304"/>
      <point x="442" y="314"/>
      <point x="392" y="314" type="curve" smooth="yes"/>
      <point x="392" y="354" type="line"/>
      <point x="478" y="354"/>
      <point x="561" y="322"/>
      <point x="561" y="229" type="curve" smooth="yes"/>
      <point x="561" y="118" type="line" smooth="yes"/>
      <point x="561" y="33"/>
      <point x="483" y="0"/>
      <point x="419" y="0" type="curve" smooth="yes"/>
    </contour>
    <contour>
      <point x="298" y="80" type="line"/>
      <point x="338" y="80" type="line"/>
      <point x="338" y="589" type="line"/>
      <point x="298" y="589" type="line"/>
    </contour>
    <contour>
      <point x="57" y="0" type="line"/>
      <point x="97" y="0" type="line"/>
      <point x="97" y="591" type="line"/>
      <point x="57" y="591" type="line"/>
    </contour>
    <contour>
      <point x="57" y="595" type="line"/>
      <point x="58" y="555" type="line"/>
      <point x="447" y="555" type="line"/>
      <point x="447" y="595" type="line"/>
    </contour>
  </outline>
</glyph>
<glyph name="tml_Ca" format="1">
  <advance width="650"/>
  <unicode hex="0B9A"/>
  <outline>
    <contour>
      <point x="311" y="0" type="move" name="_@MARKS_CLASS_0_LUT0_SUB0"/>
    </contour>
    <contour>
      <point x="40.5206" y="158" type="curve" smooth="yes"/>
      <point x="40" y="156"/>
      <point x="81.7335" y="158"/>
      <point x="81.7335" y="158" type="curve"/>
      <point x="81.7335" y="158"/>
      <point x="87" y="35"/>
      <point x="230" y="39" type="curve"/>
      <point x="230" y="-1" type="line"/>
      <point x="72.3685" y="-0.0913486"/>
      <point x="44.3282" y="105.675"/>
    </contour>
    <contour>
      <point x="80.598" y="204" type="curve" smooth="yes"/>
      <point x="82" y="204"/>
      <point x="40.1696" y="204"/>
      <point x="40.1696" y="204" type="curve"/>
      <point x="40.1696" y="204"/>
      <point x="31" y="371"/>
      <point x="246" y="371" type="curve" smooth="yes"/>
      <point x="565" y="371" type="line"/>
      <point x="565" y="331" type="line"/>
      <point x="239" y="331" type="line" smooth="yes"/>
      <point x="186.438" y="331"/>
      <point x="89.1106" y="314.56"/>
    </contour>
    <contour>
      <point x="283" y="-1" type="curve"/>
      <point x="283" y="39" type="line"/>
      <point x="377.637" y="39"/>
      <point x="422.632" y="98"/>
      <point x="423" y="187" type="curve" smooth="yes"/>
      <point x="423" y="588" type="line"/>
      <point x="463" y="588" type="line"/>
      <point x="463" y="191" type="line" smooth="yes"/>
      <point x="463" y="95"/>
      <point x="420.261" y="-1"/>
    </contour>
    <contour>
      <point x="165" y="348" type="line"/>
      <point x="165" y="586" type="line"/>
      <point x="206" y="586" type="line"/>
      <point x="205" y="348" type="line"/>
    </contour>
    <contour>
      <point x="342" y="555" type="line"/>
      <point x="342" y="595" type="line"/>
      <point x="610" y="595" type="line"/>
      <point x="610" y="555" type="line"/>
    </contour>
    <contour>
      <point x="165" y="555" type="line"/>
      <point x="165" y="595" type="line"/>
      <point x="288" y="595" type="line"/>
      <point x="288" y="555" type="line"/>
    </contour>
  </outline>
</glyph>
<glyph name="tml_Ja" format="1">
  <advance width="886"/>
  <unicode hex="0B9C"/>
  <outline>
    <contour>
      <point x="265" y="-180" type="curve"/>
      <point x="265" y="-140" type="line"/>
      <point x="193" y="-140"/>
      <point x="112" y="-78"/>
      <point x="112" y="46" type="curve" smooth="yes"/>
      <point x="112" y="172"/>
      <point x="189" y="196"/>
      <point x="234" y="196" type="curve" smooth="yes"/>
      <point x="672" y="196" type="line" smooth="yes"/>
      <point x="752" y="196"/>
      <point x="844" y="218"/>
      <point x="846" y="387" type="curve" smooth="yes"/>
      <point x="846" y="502" type="line"/>
      <point x="846" y="617"/>
      <point x="768" y="678"/>
      <point x="682" y="684" type="curve"/>
      <point x="682" y="644" type="line"/>
      <point x="719" y="639"/>
      <point x="806" y="618"/>
      <point x="806" y="502" type="curve"/>
      <point x="806" y="419" type="line"/>
      <point x="802" y="291"/>
      <point x="792" y="236"/>
      <point x="658" y="236" type="curve" smooth="yes"/>
      <point x="241" y="236" type="line" smooth="yes"/>
      <point x="117" y="236"/>
      <point x="72" y="138"/>
      <point x="72" y="64" type="curve" smooth="yes"/>
      <point x="72" y="25" type="line" smooth="yes"/>
      <point x="72" y="-57"/>
      <point x="139" y="-180"/>
    </contour>
    <contour>
      <point x="47" y="471" type="line" smooth="yes"/>
      <point x="47" y="397"/>
      <point x="105" y="307"/>
      <point x="185" y="307" type="curve"/>
      <point x="185" y="343" type="line"/>
      <point x="163" y="343"/>
      <point x="88" y="380"/>
      <point x="88" y="481" type="curve" smooth="yes"/>
      <point x="88" y="596"/>
      <point x="169" y="649"/>
      <point x="214" y="649" type="curve" smooth="yes"/>
      <point x="266" y="649"/>
      <point x="342" y="612"/>
      <point x="342" y="499" type="curve" smooth="yes"/>
      <point x="342" y="394"/>
      <point x="263" y="344"/>
      <point x="239" y="344" type="curve"/>
      <point x="239" y="307" type="line"/>
      <point x="314" y="307"/>
      <point x="379" y="410"/>
      <point x="379" y="471" type="curve" smooth="yes"/>
      <point x="379" y="499" type="line" smooth="yes"/>
      <point x="379" y="604"/>
      <point x="322" y="685"/>
      <point x="208" y="686" type="curve" smooth="yes"/>
      <point x="158" y="686"/>
      <point x="48" y="581"/>
      <point x="48" y="496" type="curve" smooth="yes"/>
    </contour>
    <contour>
      <point x="47" y="472" type="line"/>
      <point x="85" y="483" type="line"/>
      <point x="87" y="616"/>
      <point x="167" y="660"/>
      <point x="281" y="660" type="curve" smooth="yes"/>
      <point x="441" y="660"/>
      <point x="482" y="537"/>
      <point x="482" y="481" type="curve" smooth="yes"/>
      <point x="482" y="320" type="line"/>
      <point x="521" y="320" type="line"/>
      <point x="521" y="460" type="line" smooth="yes"/>
      <point x="521" y="592"/>
      <point x="450" y="696"/>
      <point x="280" y="696" type="curve"/>
      <point x="76" y="696"/>
      <point x="47" y="537"/>
      <point x="47" y="482" type="curve" smooth="yes"/>
    </contour>
    <contour>
      <point x="326" y="-140" type="curve"/>
      <point x="326" y="-180" type="line"/>
      <point x="433" y="-180"/>
      <point x="501" y="-135"/>
      <point x="508" y="-59" type="curve" smooth="yes"/>
      <point x="519" y="65"/>
      <point x="508" y="100"/>
      <point x="567" y="100" type="curve"/>
      <point x="600" y="100" type="line"/>
      <point x="600" y="140" type="line"/>
      <point x="565" y="140" type="line"/>
      <point x="478" y="140"/>
      <point x="475" y="82"/>
      <point x="469" y="-23" type="curve" smooth="yes"/>
      <point x="463" y="-125"/>
      <point x="401" y="-140"/>
    </contour>
    <contour>
      <point x="482" y="371" type="line"/>
      <point x="521" y="371" type="line"/>
      <point x="521" y="464" type="line" smooth="yes"/>
      <point x="521" y="620"/>
      <point x="593" y="637"/>
      <point x="628" y="644" type="curve"/>
      <point x="628" y="684" type="line"/>
      <point x="540" y="676"/>
      <point x="482" y="606"/>
      <point x="482" y="480" type="curve" smooth="yes"/>
    </contour>
    <contour>
      <point x="555" y="-137" type="curve" smooth="yes"/>
      <point x="555" y="-177" type="line" smooth="yes"/>
      <point x="710" y="-177"/>
      <point x="840" y="-151"/>
      <point x="840" y="-16" type="curve" smooth="yes"/>
      <point x="840" y="97"/>
      <point x="741" y="140"/>
      <point x="654" y="140" type="curve"/>
      <point x="654" y="100" type="line"/>
      <point x="686" y="99"/>
      <point x="798" y="90"/>
      <point x="800" y="-14" type="curve" smooth="yes"/>
      <point x="802" y="-138"/>
      <point x="626" y="-137"/>
    </contour>
    <contour>
      <point x="511" y="0" type="move" name="tml_virama"/>
    </contour>
  </outline>
</glyph>
<glyph name="tml_Nya" format="1">
  <advance width="1031"/>
  <unicode hex="0B9E"/>
  <outline>
    <contour>
      <point x="247.015" y="-163" type="line" smooth="yes"/>
      <point x="138.015" y="-163"/>
      <point x="53.0146" y="-109.335"/>
      <point x="53.0146" y="2" type="curve" smooth="yes"/>
      <point x="53.0146" y="414" type="line"/>
      <point x="51.9492" y="501.485"/>
      <point x="109.809" y="596"/>
      <point x="252.015" y="596" type="curve"/>
      <point x="252.015" y="556" type="line"/>
      <point x="138.867" y="556"/>
      <point x="93.0146" y="484.372"/>
      <point x="93.0146" y="421" type="curve" smooth="yes"/>
      <point x="93.0146" y="-2" type="line" smooth="yes"/>
      <point x="93.0146" y="-63.9941"/>
      <point x="141.015" y="-123"/>
      <point x="243.015" y="-123" type="curve" smooth="yes"/>
      <point x="434.015" y="-123" type="line"/>
      <point x="434.015" y="-163" type="line"/>
    </contour>
    <contour>
      <point x="474" y="-125" type="line"/>
      <point x="791" y="-125" type="line" smooth="yes"/>
      <point x="870" y="-125"/>
      <point x="944" y="-89"/>
      <point x="944" y="26" type="curve" smooth="yes"/>
      <point x="944" y="154" type="line" smooth="yes"/>
      <point x="944" y="259"/>
      <point x="896" y="283"/>
      <point x="815" y="283" type="curve" smooth="yes"/>
      <point x="815" y="323" type="line"/>
      <point x="900" y="323"/>
      <point x="984" y="296"/>
      <point x="984" y="154" type="curve" smooth="yes"/>
      <point x="984" y="26" type="line" smooth="yes"/>
      <point x="984" y="-82"/>
      <point x="926" y="-165"/>
      <point x="791" y="-165" type="curve" smooth="yes"/>
      <point x="474" y="-165" type="line"/>
    </contour>
    <component base="tml_E" xOffset="234"/>
  </outline>
</glyph>
<glyph name="tml_Tta" format="1">
  <advance width="642"/>
  <unicode hex="0B9F"/>
  <outline>
    <contour>
      <point x="93" y="0" type="line"/>
      <point x="93" y="40" type="line"/>
      <point x="571" y="40" type="line"/>
      <point x="571" y="0" type="line"/>
    </contour>
    <contour>
      <point x="93" y="95" type="line"/>
      <point x="93" y="596" type="line"/>
      <point x="134" y="596" type="line"/>
      <point x="134" y="95" type="line"/>
    </contour>
  </outline>
</glyph>
<glyph name="tml_Nna" format="1">
  <advance width="1260"/>
  <unicode hex="0BA3"/>
  <outline>
    <contour>
      <point x="384" y="157" type="curve"/>
      <point x="384" y="288" type="line" smooth="yes"/>
      <point x="384" y="584"/>
      <point x="618.198" y="605.957"/>
      <point x="675" y="605" type="curve"/>
      <point x="675" y="565" type="line"/>
      <point x="524.229" y="565"/>
      <point x="424" y="477"/>
      <point x="424" y="290" type="curve" smooth="yes"/>
      <point x="424" y="158" type="line" smooth="yes"/>
      <point x="424" y="77"/>
      <point x="451.238" y="29"/>
      <point x="489" y="29" type="curve"/>
      <point x="489" y="-11" type="line" smooth="yes"/>
      <point x="419.482" y="-11"/>
      <point x="384" y="72"/>
    </contour>
    <contour>
      <point x="347" y="566" type="curve"/>
      <point x="347" y="606" type="line"/>
      <point x="407.158" y="606"/>
      <point x="647" y="594"/>
      <point x="647" y="301" type="curve" smooth="yes"/>
      <point x="647" y="157" type="line" smooth="yes"/>
      <point x="647" y="65"/>
      <point x="613.429" y="-11"/>
      <point x="542" y="-11" type="curve"/>
      <point x="542" y="29" type="line" smooth="yes"/>
      <point x="583.309" y="29"/>
      <point x="607" y="75"/>
      <point x="607" y="157" type="curve" smooth="yes"/>
      <point x="607" y="306" type="line" smooth="yes"/>
      <point x="607" y="440"/>
      <point x="546.41" y="566"/>
    </contour>
    <contour>
      <point x="40" y="156" type="line"/>
      <point x="40" y="71"/>
      <point x="74.0967" y="-12"/>
      <point x="143" y="-12" type="curve" smooth="yes"/>
      <point x="143" y="28" type="line"/>
      <point x="114.385" y="28"/>
      <point x="80.4043" y="62"/>
      <point x="81" y="157" type="curve" smooth="yes"/>
      <point x="80" y="290" type="line" smooth="yes"/>
      <point x="79.3486" y="402.994"/>
      <point x="114.247" y="565"/>
      <point x="293" y="566" type="curve"/>
      <point x="293" y="606" type="line"/>
      <point x="218.387" y="605.957"/>
      <point x="40" y="569.727"/>
      <point x="40" y="290" type="curve" smooth="yes"/>
    </contour>
    <contour>
      <point x="173" y="400" type="curve"/>
      <point x="170" y="413"/>
      <point x="193" y="429"/>
      <point x="212" y="429" type="curve"/>
      <point x="281" y="429"/>
      <point x="302" y="370"/>
      <point x="302" y="292" type="curve" smooth="yes"/>
      <point x="302" y="156" type="line" smooth="yes"/>
      <point x="302" y="60"/>
      <point x="266.021" y="-12"/>
      <point x="199" y="-12" type="curve"/>
      <point x="199" y="28" type="line" smooth="yes"/>
      <point x="231.095" y="28"/>
      <point x="262" y="62"/>
      <point x="262" y="156" type="curve" smooth="yes"/>
      <point x="262" y="292" type="line" smooth="yes"/>
      <point x="262" y="348"/>
      <point x="260" y="400"/>
    </contour>
    <contour>
      <point x="728" y="157" type="curve"/>
      <point x="728" y="287" type="line" smooth="yes"/>
      <point x="728" y="587"/>
      <point x="965.533" y="606.957"/>
      <point x="1019" y="606" type="curve"/>
      <point x="1019" y="566" type="line"/>
      <point x="874.589" y="566"/>
      <point x="768" y="479"/>
      <point x="768" y="289" type="curve" smooth="yes"/>
      <point x="768" y="158" type="line" smooth="yes"/>
      <point x="768" y="72"/>
      <point x="799.086" y="30"/>
      <point x="832" y="30" type="curve"/>
      <point x="832" y="-10" type="line" smooth="yes"/>
      <point x="763.862" y="-10"/>
      <point x="728" y="72"/>
    </contour>
    <contour>
      <point x="729" y="565" type="curve"/>
      <point x="729" y="605" type="line"/>
      <point x="787.053" y="605"/>
      <point x="991" y="593"/>
      <point x="991" y="300" type="curve" smooth="yes"/>
      <point x="991" y="157" type="line" smooth="yes"/>
      <point x="991" y="65"/>
      <point x="952.164" y="-10"/>
      <point x="886" y="-10" type="curve"/>
      <point x="886" y="30" type="line" smooth="yes"/>
      <point x="922.792" y="30"/>
      <point x="951" y="78"/>
      <point x="951" y="157" type="curve" smooth="yes"/>
      <point x="951" y="305" type="line" smooth="yes"/>
      <point x="951" y="415"/>
      <point x="920.96" y="564"/>
    </contour>
    <contour>
      <point x="1074" y="566" type="line"/>
      <point x="1074" y="606" type="line"/>
      <point x="1220" y="606" type="line"/>
      <point x="1220" y="566" type="line"/>
    </contour>
    <contour>
      <point x="1083" y="1" type="line"/>
      <point x="1083" y="575" type="line"/>
      <point x="1123" y="575" type="line"/>
      <point x="1123" y="1" type="line"/>
    </contour>
  </outline>
</glyph>
<glyph name="tml_Ta" format="1">
  <advance width="695"/>
  <unicode hex="0BA4"/>
  <outline>
    <contour>
      <point x="131" y="-256" type="line"/>
      <point x="131" y="-112.261"/>
      <point x="179.556" y="-85"/>
      <point x="245" y="-85" type="curve" smooth="yes"/>
      <point x="481" y="-85" type="line" smooth="yes"/>
      <point x="608" y="-85"/>
      <point x="614" y="8"/>
      <point x="615" y="59" type="curve" smooth="yes"/>
      <point x="615" y="151" type="line"/>
      <point x="655" y="151" type="line"/>
      <point x="655" y="57" type="line" smooth="yes"/>
      <point x="655" y="-9"/>
      <point x="635" y="-125"/>
      <point x="482" y="-125" type="curve" smooth="yes"/>
      <point x="237" y="-125" type="line" smooth="yes"/>
      <point x="191.9" y="-125"/>
      <point x="171" y="-154.408"/>
      <point x="171" y="-256" type="curve"/>
    </contour>
    <contour>
      <point x="40" y="165" type="curve"/>
      <point x="80" y="165" type="line"/>
      <point x="85.5635" y="54"/>
      <point x="174.573" y="42"/>
      <point x="231" y="42" type="curve"/>
      <point x="231" y="2" type="line"/>
      <point x="98.1309" y="2"/>
      <point x="40" y="72"/>
    </contour>
    <contour>
      <point x="40" y="205" type="curve"/>
      <point x="78" y="205" type="line"/>
      <point x="78" y="309"/>
      <point x="181.001" y="334.128"/>
      <point x="226" y="334" type="curve" smooth="yes"/>
      <point x="498" y="333" type="line" smooth="yes"/>
      <point x="542.784" y="332.872"/>
      <point x="615" y="335"/>
      <point x="615" y="207" type="curve" smooth="yes"/>
      <point x="615" y="205" type="line" smooth="yes"/>
      <point x="655" y="205" type="line"/>
      <point x="655" y="352"/>
      <point x="576" y="374"/>
      <point x="486" y="374" type="curve"/>
      <point x="236" y="374" type="line" smooth="yes"/>
      <point x="139" y="374"/>
      <point x="40" y="325"/>
    </contour>
    <contour>
      <point x="284" y="2" type="line"/>
      <point x="420.498" y="2"/>
      <point x="463" y="98"/>
      <point x="463" y="194" type="curve" smooth="yes"/>
      <point x="463" y="591" type="line"/>
      <point x="423" y="591" type="line"/>
      <point x="423" y="190" type="line" smooth="yes"/>
      <point x="423" y="89"/>
      <point x="370.972" y="42"/>
      <point x="284" y="42" type="curve"/>
    </contour>
    <contour>
      <point x="165" y="351" type="line"/>
      <point x="205" y="351" type="line"/>
      <point x="206" y="589" type="line"/>
      <point x="165" y="589" type="line"/>
    </contour>
    <contour>
      <point x="342" y="555" type="line"/>
      <point x="595" y="555" type="line"/>
      <point x="595" y="595" type="line"/>
      <point x="342" y="595" type="line"/>
    </contour>
    <contour>
      <point x="165" y="555" type="line"/>
      <point x="288" y="555" type="line"/>
      <point x="288" y="595" type="line"/>
      <point x="165" y="595" type="line"/>
    </contour>
  </outline>
</glyph>
<glyph name="tml_Na" format="1">
  <advance width="619"/>
  <unicode hex="0BA8"/>
  <outline>
    <contour>
      <point x="412" y="335" type="curve" smooth="yes"/>
      <point x="412" y="375" type="line"/>
      <point x="488" y="375"/>
      <point x="566" y="353"/>
      <point x="566" y="206" type="curve" smooth="yes"/>
      <point x="566" y="25" type="line" smooth="yes"/>
      <point x="566" y="-41"/>
      <point x="545" y="-157"/>
      <point x="392" y="-157" type="curve" smooth="yes"/>
      <point x="120" y="-157" type="line" smooth="yes"/>
      <point x="92" y="-157"/>
      <point x="79" y="-182"/>
      <point x="79" y="-257" type="curve"/>
      <point x="39" y="-257" type="line"/>
      <point x="39" y="-121"/>
      <point x="88" y="-117"/>
      <point x="137" y="-117" type="curve" smooth="yes"/>
      <point x="391" y="-117" type="line" smooth="yes"/>
      <point x="469" y="-117"/>
      <point x="525" y="-83"/>
      <point x="525" y="25" type="curve" smooth="yes"/>
      <point x="526" y="206" type="line" smooth="yes"/>
      <point x="526.674" y="327.996"/>
      <point x="469" y="335"/>
    </contour>
    <contour>
      <point x="74" y="0" type="line"/>
      <point x="74" y="590" type="line"/>
      <point x="114" y="590" type="line"/>
      <point x="114" y="0" type="line"/>
    </contour>
    <contour>
      <point x="74" y="555" type="line"/>
      <point x="74" y="595" type="line"/>
      <point x="201" y="595" type="line"/>
      <point x="201" y="555" type="line"/>
    </contour>
    <contour>
      <point x="317" y="0" type="line"/>
      <point x="318" y="588" type="line"/>
      <point x="357" y="588" type="line"/>
      <point x="358" y="0" type="line"/>
    </contour>
    <contour>
      <point x="264" y="555" type="line"/>
      <point x="264" y="595" type="line"/>
      <point x="501" y="595" type="line"/>
      <point x="501" y="555" type="line"/>
    </contour>
    <contour>
      <point x="293" y="0" type="move" name="tml_virama"/>
    </contour>
  </outline>
</glyph>
<glyph name="tml_Nnna" format="1">
  <advance width="914"/>
  <unicode hex="0BA9"/>
  <outline>
    <contour>
      <point x="384" y="155" type="curve"/>
      <point x="384" y="298" type="line" smooth="yes"/>
      <point x="384" y="594"/>
      <point x="623.595" y="605.957"/>
      <point x="667" y="605" type="curve"/>
      <point x="667" y="565" type="line"/>
      <point x="534.454" y="565"/>
      <point x="424" y="487"/>
      <point x="424" y="300" type="curve" smooth="yes"/>
      <point x="424" y="156" type="line" smooth="yes"/>
      <point x="424" y="75"/>
      <point x="451.595" y="27"/>
      <point x="489" y="27" type="curve"/>
      <point x="489" y="-13" type="line" smooth="yes"/>
      <point x="419.959" y="-13"/>
      <point x="384" y="70"/>
    </contour>
    <contour>
      <point x="350" y="565" type="curve"/>
      <point x="350" y="605" type="line"/>
      <point x="409.714" y="605"/>
      <point x="647" y="604"/>
      <point x="647" y="311" type="curve" smooth="yes"/>
      <point x="647" y="155" type="line" smooth="yes"/>
      <point x="647" y="63"/>
      <point x="614.725" y="-13"/>
      <point x="543" y="-13" type="curve"/>
      <point x="543" y="27" type="line" smooth="yes"/>
      <point x="584.447" y="27"/>
      <point x="607" y="73"/>
      <point x="607" y="155" type="curve" smooth="yes"/>
      <point x="607" y="316" type="line" smooth="yes"/>
      <point x="607" y="450"/>
      <point x="546.932" y="564"/>
    </contour>
    <contour>
      <point x="40" y="154" type="line"/>
      <point x="40" y="69"/>
      <point x="75.9111" y="-14"/>
      <point x="147" y="-14" type="curve" smooth="yes"/>
      <point x="147" y="26" type="line"/>
      <point x="116.828" y="26"/>
      <point x="80.3711" y="60"/>
      <point x="81" y="155" type="curve" smooth="yes"/>
      <point x="80" y="300" type="line" smooth="yes"/>
      <point x="79.2207" y="412.993"/>
      <point x="114.729" y="564"/>
      <point x="296" y="565" type="curve"/>
      <point x="296" y="605" type="line"/>
      <point x="220.502" y="604.957"/>
      <point x="40" y="579.727"/>
      <point x="40" y="300" type="curve" smooth="yes"/>
    </contour>
    <contour>
      <point x="177" y="408" type="curve"/>
      <point x="174" y="421"/>
      <point x="197" y="437"/>
      <point x="216" y="437" type="curve"/>
      <point x="285" y="437"/>
      <point x="307" y="378"/>
      <point x="307" y="300" type="curve" smooth="yes"/>
      <point x="307" y="154" type="line" smooth="yes"/>
      <point x="307" y="58"/>
      <point x="269.623" y="-14"/>
      <point x="200" y="-14" type="curve"/>
      <point x="200" y="26" type="line" smooth="yes"/>
      <point x="234.132" y="26"/>
      <point x="267" y="60"/>
      <point x="267" y="154" type="curve" smooth="yes"/>
      <point x="267" y="300" type="line" smooth="yes"/>
      <point x="267" y="356"/>
      <point x="264" y="408"/>
    </contour>
    <contour>
      <point x="720" y="566" type="line"/>
      <point x="720" y="605" type="line"/>
      <point x="874" y="605" type="line"/>
      <point x="874" y="565" type="line"/>
    </contour>
    <contour>
      <point x="738" y="0" type="line"/>
      <point x="738" y="573" type="line"/>
      <point x="778" y="573" type="line"/>
      <point x="778" y="0" type="line"/>
    </contour>
  </outline>
</glyph>
<glyph name="tml_Pa" format="1">
  <advance width="539"/>
  <unicode hex="0BAA"/>
  <outline>
    <contour>
      <point x="271" y="0" type="move" name="_@MARKS_CLASS_0_LUT0_SUB0"/>
    </contour>
    <contour>
      <point x="70" y="24" type="line"/>
      <point x="70" y="595" type="line"/>
      <point x="110" y="595" type="line"/>
      <point x="110" y="24" type="line"/>
    </contour>
    <contour>
      <point x="428" y="21" type="line"/>
      <point x="428" y="595" type="line"/>
      <point x="469" y="595" type="line"/>
      <point x="469" y="21" type="line"/>
    </contour>
    <contour>
      <point x="298" y="0" type="line"/>
      <point x="298" y="40" type="line"/>
      <point x="469" y="40" type="line"/>
      <point x="469" y="0" type="line"/>
    </contour>
    <contour>
      <point x="70" y="0" type="line"/>
      <point x="70" y="40" type="line"/>
      <point x="242" y="40" type="line"/>
      <point x="242" y="0" type="line"/>
    </contour>
  </outline>
</glyph>
<glyph name="tml_Ma" format="1">
  <advance width="601"/>
  <unicode hex="0BAE"/>
  <outline>
    <contour>
      <point x="418" y="0" type="curve" smooth="yes"/>
      <point x="418" y="40" type="line"/>
      <point x="500.32" y="40"/>
      <point x="502" y="165"/>
      <point x="502" y="196" type="curve" smooth="yes"/>
      <point x="502" y="434" type="line" smooth="yes"/>
      <point x="502" y="442"/>
      <point x="507.88" y="565"/>
      <point x="418" y="565" type="curve"/>
      <point x="418" y="605" type="line"/>
      <point x="476.457" y="605"/>
      <point x="542" y="569"/>
      <point x="542" y="434" type="curve" smooth="yes"/>
      <point x="542" y="197" type="line" smooth="yes"/>
      <point x="542" y="48"/>
      <point x="481.771" y="0"/>
    </contour>
    <contour>
      <point x="246" y="39" type="line" smooth="yes"/>
      <point x="246" y="434" type="line" smooth="yes"/>
      <point x="245.139" y="567"/>
      <point x="308.015" y="605"/>
      <point x="364" y="605" type="curve"/>
      <point x="364" y="565" type="line"/>
      <point x="280.371" y="565"/>
      <point x="286" y="443"/>
      <point x="286" y="434" type="curve" smooth="yes"/>
      <point x="286" y="39" type="line"/>
    </contour>
    <contour>
      <point x="40" y="24" type="line"/>
      <point x="40" y="595" type="line"/>
      <point x="80" y="595" type="line"/>
      <point x="80" y="24" type="line"/>
    </contour>
    <contour>
      <point x="40" y="0" type="line"/>
      <point x="40" y="40" type="line"/>
      <point x="364" y="40" type="line"/>
      <point x="364" y="0" type="line"/>
    </contour>
  </outline>
</glyph>
<glyph name="tml_Ya" format="1">
  <advance width="645"/>
  <unicode hex="0BAF"/>
  <outline>
    <contour>
      <point x="401" y="0" type="move" name="tml_virama"/>
    </contour>
    <contour>
      <point x="488" y="0" type="line"/>
      <point x="488" y="40" type="line"/>
      <point x="518" y="40" type="line" smooth="yes"/>
      <point x="545" y="40"/>
      <point x="565" y="44"/>
      <point x="565" y="77" type="curve"/>
      <point x="565" y="595" type="line"/>
      <point x="605" y="595" type="line"/>
      <point x="605" y="0" type="line"/>
    </contour>
    <contour>
      <point x="40" y="140" type="curve" smooth="yes"/>
      <point x="40" y="595" type="line"/>
      <point x="80" y="595" type="line"/>
      <point x="80" y="145" type="line"/>
      <point x="80" y="87"/>
      <point x="125.243" y="40"/>
      <point x="161" y="40" type="curve" smooth="yes"/>
      <point x="166" y="40" type="line"/>
      <point x="166" y="0" type="line"/>
      <point x="160" y="0" type="line" smooth="yes"/>
      <point x="111.2" y="0"/>
      <point x="40" y="57"/>
    </contour>
    <contour>
      <point x="220" y="0" type="line"/>
      <point x="220" y="40" type="line"/>
      <point x="226" y="40" type="line" smooth="yes"/>
      <point x="270.66" y="40"/>
      <point x="318" y="62"/>
      <point x="318" y="127" type="curve"/>
      <point x="318" y="595" type="line"/>
      <point x="358" y="595" type="line"/>
      <point x="358" y="82" type="line" smooth="yes"/>
      <point x="358" y="45"/>
      <point x="373" y="40"/>
      <point x="392" y="40" type="curve" smooth="yes"/>
      <point x="436" y="40" type="line"/>
      <point x="435" y="0" type="line"/>
      <point x="322" y="0" type="line"/>
      <point x="322" y="36" type="line"/>
      <point x="304.953" y="15"/>
      <point x="267.271" y="0"/>
      <point x="226" y="0" type="curve" smooth="yes"/>
    </contour>
  </outline>
</glyph>
<glyph name="tml_Ra" format="1">
  <advance width="518"/>
  <unicode hex="0BB0"/>
  <outline>
    <contour>
      <point x="154" y="-177" type="line"/>
      <point x="209" y="-177" type="line"/>
      <point x="364" y="0" type="line" smooth="yes"/>
      <point x="366" y="591" type="line"/>
      <point x="324" y="591" type="line"/>
      <point x="324" y="19" type="line"/>
    </contour>
    <contour>
      <point x="40" y="0" type="line"/>
      <point x="80" y="0" type="line"/>
      <point x="80" y="595" type="line"/>
      <point x="40" y="595" type="line"/>
    </contour>
    <contour>
      <point x="229" y="555" type="line"/>
      <point x="478" y="555" type="line"/>
      <point x="478" y="595" type="line"/>
      <point x="229" y="595" type="line"/>
    </contour>
    <contour>
      <point x="42" y="555" type="line"/>
      <point x="175" y="555" type="line"/>
      <point x="175" y="595" type="line"/>
      <point x="42" y="595" type="line"/>
    </contour>
    <contour>
      <point x="231" y="0" type="move" name="tml_virama"/>
    </contour>
  </outline>
</glyph>
<glyph name="tml_Rra" format="1">
  <advance width="654"/>
  <unicode hex="0BB1"/>
  <outline>
    <contour>
      <point x="40" y="-256" type="line"/>
      <point x="40" y="-95.1494"/>
      <point x="112.976" y="-76"/>
      <point x="172" y="-76" type="curve" smooth="yes"/>
      <point x="460" y="-76" type="line" smooth="yes"/>
      <point x="528.25" y="-76"/>
      <point x="574.212" y="-20.4697"/>
      <point x="574" y="64" type="curve" smooth="yes"/>
      <point x="574" y="460" type="line" smooth="yes"/>
      <point x="574" y="560"/>
      <point x="503.258" y="566"/>
      <point x="488" y="566" type="curve"/>
      <point x="488" y="606" type="line"/>
      <point x="574.817" y="606"/>
      <point x="614" y="530"/>
      <point x="614" y="475" type="curve" smooth="yes"/>
      <point x="614" y="64" type="line" smooth="yes"/>
      <point x="614" y="-22.3018"/>
      <point x="570.632" y="-114.356"/>
      <point x="459" y="-116" type="curve" smooth="yes"/>
      <point x="165" y="-116" type="line" smooth="yes"/>
      <point x="112.435" y="-116"/>
      <point x="80" y="-145.109"/>
      <point x="80" y="-256" type="curve"/>
    </contour>
    <contour>
      <point x="70" y="0" type="line"/>
      <point x="70" y="479" type="line" smooth="yes"/>
      <point x="70" y="529"/>
      <point x="100.549" y="606"/>
      <point x="184" y="606" type="curve"/>
      <point x="184" y="566" type="line"/>
      <point x="122.442" y="566"/>
      <point x="109.878" y="502.999"/>
      <point x="110" y="474" type="curve" smooth="yes"/>
      <point x="112" y="0" type="line"/>
    </contour>
    <contour>
      <point x="237" y="566" type="curve"/>
      <point x="237" y="606" type="line"/>
      <point x="283" y="606"/>
      <point x="313" y="593.586"/>
      <point x="337" y="561" type="curve"/>
      <point x="365" y="596.689"/>
      <point x="398" y="606"/>
      <point x="437" y="606" type="curve"/>
      <point x="437" y="566" type="line"/>
      <point x="392" y="566"/>
      <point x="355.59" y="542.186"/>
      <point x="356" y="450" type="curve" smooth="yes"/>
      <point x="358" y="0" type="line"/>
      <point x="318" y="0" type="line"/>
      <point x="316" y="449" type="line" smooth="yes"/>
      <point x="315.585" y="542.167"/>
      <point x="289" y="566"/>
    </contour>
  </outline>
</glyph>
<glyph name="tml_La" format="1">
  <advance width="835"/>
  <unicode hex="0BB2"/>
  <outline>
    <contour>
      <point x="481" y="0" type="move" name="_@MARKS_CLASS_0_LUT0_SUB0"/>
    </contour>
    <contour>
      <point x="247" y="0" type="curve"/>
      <point x="247" y="40" type="line"/>
      <point x="291.449" y="40"/>
      <point x="341" y="88"/>
      <point x="341" y="182.617" type="curve" smooth="yes"/>
      <point x="341" y="282"/>
      <point x="289.264" y="319"/>
      <point x="247" y="319" type="curve"/>
      <point x="247" y="359" type="line" smooth="yes"/>
      <point x="320.184" y="359"/>
      <point x="383" y="292"/>
      <point x="383" y="196" type="curve" smooth="yes"/>
      <point x="383" y="173" type="line" smooth="yes"/>
      <point x="383.805" y="75"/>
      <point x="319.207" y="0"/>
    </contour>
    <contour>
      <point x="40" y="172" type="curve" smooth="yes"/>
      <point x="40" y="196" type="line" smooth="yes"/>
      <point x="40" y="300"/>
      <point x="116" y="359"/>
      <point x="192" y="359" type="curve"/>
      <point x="192" y="319" type="line" smooth="yes"/>
      <point x="154.616" y="319"/>
      <point x="79" y="295"/>
      <point x="79" y="181" type="curve" smooth="yes"/>
      <point x="79" y="91"/>
      <point x="141.872" y="40"/>
      <point x="192" y="40" type="curve"/>
      <point x="192" y="0" type="line" smooth="yes"/>
      <point x="103.628" y="0"/>
      <point x="40" y="88"/>
    </contour>
    <contour>
      <point x="40" y="204" type="line"/>
      <point x="40" y="302" type="line"/>
      <point x="40" y="468.761"/>
      <point x="117.212" y="605"/>
      <point x="242" y="605" type="curve"/>
      <point x="242" y="565" type="line"/>
      <point x="140.657" y="565"/>
      <point x="81.4795" y="443.391"/>
      <point x="80" y="306" type="curve" smooth="yes"/>
    </contour>
    <contour>
      <point x="295.991" y="566" type="curve"/>
      <point x="295.991" y="606" type="line"/>
      <point x="461.496" y="606"/>
      <point x="494.991" y="480.802"/>
      <point x="494.991" y="393" type="curve" smooth="yes"/>
      <point x="494.991" y="142" type="line" smooth="yes"/>
      <point x="494.991" y="87.8408"/>
      <point x="545.235" y="41"/>
      <point x="597.991" y="41" type="curve"/>
      <point x="597.991" y="0" type="line"/>
      <point x="524.235" y="0"/>
      <point x="453.991" y="64.1143"/>
      <point x="453.991" y="140" type="curve" smooth="yes"/>
      <point x="453.991" y="401" type="line" smooth="yes"/>
      <point x="453.991" y="447.265"/>
      <point x="444.178" y="566"/>
    </contour>
    <contour>
      <point x="621.991" y="594" type="line"/>
      <point x="741.991" y="595"/>
      <point x="795.991" y="541"/>
      <point x="795.991" y="424" type="curve" smooth="yes"/>
      <point x="795.991" y="146" type="line" smooth="yes"/>
      <point x="795.991" y="71.2412"/>
      <point x="747.075" y="0"/>
      <point x="650.991" y="0" type="curve"/>
      <point x="650.991" y="41" type="line"/>
      <point x="731.824" y="41"/>
      <point x="755.991" y="103.5"/>
      <point x="755.991" y="146" type="curve"/>
      <point x="755.991" y="422" type="line"/>
      <point x="755.991" y="488"/>
      <point x="746.991" y="554"/>
      <point x="621.991" y="554" type="curve"/>
    </contour>
  </outline>
</glyph>
<glyph name="tml_Lla" format="1">
  <advance width="898"/>
  <unicode hex="0BB3"/>
  <outline>
    <contour>
      <point x="40" y="172" type="line" smooth="yes"/>
      <point x="40" y="88"/>
      <point x="104" y="0"/>
      <point x="192" y="0" type="curve" smooth="yes"/>
      <point x="192" y="40" type="line"/>
      <point x="142" y="40"/>
      <point x="79" y="91"/>
      <point x="79" y="181" type="curve" smooth="yes"/>
      <point x="79" y="295"/>
      <point x="155" y="319"/>
      <point x="192" y="319" type="curve" smooth="yes"/>
      <point x="192" y="359" type="line"/>
      <point x="116" y="359"/>
      <point x="40" y="300"/>
      <point x="40" y="196" type="curve" smooth="yes"/>
    </contour>
    <contour>
      <point x="247" y="0" type="line"/>
      <point x="319" y="0"/>
      <point x="384" y="75"/>
      <point x="383" y="173" type="curve" smooth="yes"/>
      <point x="383" y="196" type="line" smooth="yes"/>
      <point x="383" y="292"/>
      <point x="320" y="359"/>
      <point x="247" y="359" type="curve" smooth="yes"/>
      <point x="247" y="319" type="line"/>
      <point x="289" y="319"/>
      <point x="341" y="282"/>
      <point x="341" y="183" type="curve" smooth="yes"/>
      <point x="341" y="88"/>
      <point x="291" y="40"/>
      <point x="247" y="40" type="curve"/>
    </contour>
    <contour>
      <point x="315" y="565" type="line"/>
      <point x="428" y="565"/>
      <point x="478" y="472"/>
      <point x="478" y="354" type="curve"/>
      <point x="478" y="0" type="line"/>
      <point x="518" y="0" type="line"/>
      <point x="518" y="355" type="line"/>
      <point x="518" y="454"/>
      <point x="477" y="605"/>
      <point x="315" y="605" type="curve"/>
    </contour>
    <contour>
      <point x="40" y="204" type="line"/>
      <point x="80" y="306" type="line" smooth="yes"/>
      <point x="82" y="443"/>
      <point x="148" y="565"/>
      <point x="261" y="565" type="curve"/>
      <point x="261" y="605" type="line"/>
      <point x="124" y="605"/>
      <point x="40" y="469"/>
      <point x="40" y="302" type="curve"/>
    </contour>
    <contour>
      <point x="478" y="325" type="curve"/>
      <point x="518" y="326" type="line"/>
      <point x="518" y="454"/>
      <point x="535" y="565"/>
      <point x="622" y="565" type="curve"/>
      <point x="622" y="605" type="line"/>
      <point x="488" y="605"/>
      <point x="478" y="440"/>
    </contour>
    <contour>
      <point x="745" y="0" type="line"/>
      <point x="785" y="0" type="line"/>
      <point x="785" y="574" type="line"/>
      <point x="745" y="574" type="line"/>
    </contour>
    <contour>
      <point x="676" y="565" type="line"/>
      <point x="859" y="565" type="line"/>
      <point x="859" y="605" type="line"/>
      <point x="676" y="605" type="line"/>
    </contour>
    <contour>
      <point x="531" y="0" type="move" name="tml_virama"/>
    </contour>
  </outline>
</glyph>
<glyph name="tml_Llla" format="1">
  <advance width="601"/>
  <unicode hex="0BB4"/>
  <outline>
    <contour>
      <point x="396" y="2" type="move" name="tml_virama"/>
    </contour>
    <contour>
      <point x="87.0859" y="-67" type="line"/>
      <point x="87.0859" y="-191"/>
      <point x="202.853" y="-260"/>
      <point x="331.086" y="-165" type="curve"/>
      <point x="312.086" y="-163"/>
      <point x="289.172" y="-153"/>
      <point x="283.086" y="-148" type="curve"/>
      <point x="245.344" y="-189"/>
      <point x="127.086" y="-185"/>
      <point x="127.086" y="-67" type="curve"/>
    </contour>
    <contour>
      <point x="247.086" y="1" type="curve"/>
      <point x="287.086" y="1" type="line"/>
      <point x="287.086" y="-112"/>
      <point x="378.086" y="-106"/>
      <point x="485.086" y="-106" type="curve"/>
      <point x="485.086" y="-146" type="line" smooth="yes"/>
      <point x="433.086" y="-145" type="line"/>
      <point x="269.086" y="-146"/>
      <point x="247.086" y="-60"/>
    </contour>
    <component base="tml_Ma" xOffset="1.08594" yOffset="1.45313"/>
  </outline>
</glyph>
<glyph name="tml_Va" format="1">
  <advance width="793"/>
  <unicode hex="0BB5"/>
  <outline>
    <contour>
      <point x="247" y="0" type="line"/>
      <point x="319" y="0"/>
      <point x="384" y="75"/>
      <point x="383" y="173" type="curve" smooth="yes"/>
      <point x="383" y="196" type="line" smooth="yes"/>
      <point x="383" y="292"/>
      <point x="320" y="359"/>
      <point x="247" y="359" type="curve" smooth="yes"/>
      <point x="247" y="319" type="line"/>
      <point x="289" y="319"/>
      <point x="341" y="282"/>
      <point x="341" y="183" type="curve" smooth="yes"/>
      <point x="341" y="88"/>
      <point x="291" y="40"/>
      <point x="247" y="40" type="curve"/>
    </contour>
    <contour>
      <point x="40" y="172" type="line" smooth="yes"/>
      <point x="40" y="88"/>
      <point x="104" y="0"/>
      <point x="192" y="0" type="curve" smooth="yes"/>
      <point x="192" y="40" type="line"/>
      <point x="142" y="40"/>
      <point x="79" y="91"/>
      <point x="79" y="181" type="curve" smooth="yes"/>
      <point x="79" y="295"/>
      <point x="155" y="319"/>
      <point x="192" y="319" type="curve" smooth="yes"/>
      <point x="192" y="359" type="line"/>
      <point x="116" y="359"/>
      <point x="40" y="300"/>
      <point x="40" y="196" type="curve" smooth="yes"/>
    </contour>
    <contour>
      <point x="40" y="204" type="line"/>
      <point x="80" y="306" type="line" smooth="yes"/>
      <point x="82" y="443"/>
      <point x="149" y="565"/>
      <point x="263" y="565" type="curve"/>
      <point x="263" y="605" type="line"/>
      <point x="125" y="605"/>
      <point x="40" y="469"/>
      <point x="40" y="302" type="curve"/>
    </contour>
    <contour>
      <point x="314" y="565" type="line"/>
      <point x="431" y="565"/>
      <point x="489" y="473"/>
      <point x="490" y="354" type="curve"/>
      <point x="490" y="76" type="line" smooth="yes"/>
      <point x="490" y="40"/>
      <point x="484" y="40"/>
      <point x="417" y="40" type="curve"/>
      <point x="417" y="0" type="line"/>
      <point x="657" y="0" type="line"/>
      <point x="657" y="40" type="line"/>
      <point x="531" y="40" type="line"/>
      <point x="531" y="355" type="line"/>
      <point x="530" y="466"/>
      <point x="476" y="605"/>
      <point x="314" y="605" type="curve"/>
    </contour>
    <contour>
      <point x="712" y="0" type="line"/>
      <point x="753" y="0" type="line"/>
      <point x="753" y="595" type="line"/>
      <point x="712" y="595" type="line"/>
    </contour>
    <contour>
      <point x="581" y="0" type="move" name="tml_virama"/>
    </contour>
  </outline>
</glyph>
<glyph name="tml_Sha" format="1">
  <advance width="852"/>
  <unicode hex="0BB6"/>
  <outline>
    <contour>
      <point x="58" y="132" type="curve" smooth="yes"/>
      <point x="58" y="595" type="line"/>
      <point x="98" y="595" type="line" smooth="yes"/>
      <point x="98" y="136" type="line" smooth="yes"/>
      <point x="98" y="62.6738"/>
      <point x="132.547" y="40"/>
      <point x="182" y="40" type="curve"/>
      <point x="182" y="0" type="line"/>
      <point x="177" y="0" type="line" smooth="yes"/>
      <point x="94.71" y="0"/>
      <point x="58" y="61.2861"/>
    </contour>
    <contour>
      <point x="236" y="0" type="line"/>
      <point x="236" y="40" type="line"/>
      <point x="282.548" y="40"/>
      <point x="321" y="70.7725"/>
      <point x="321" y="130" type="curve"/>
      <point x="321" y="582" type="line"/>
      <point x="361" y="582" type="line"/>
      <point x="361" y="126" type="line"/>
      <point x="361" y="80.25"/>
      <point x="328.231" y="0"/>
      <point x="241" y="0" type="curve" smooth="yes"/>
    </contour>
    <contour>
      <point x="485" y="132" type="curve" smooth="yes"/>
      <point x="485" y="595" type="line"/>
      <point x="525" y="595" type="line" smooth="yes"/>
      <point x="525" y="136" type="line" smooth="yes"/>
      <point x="525" y="72.2188"/>
      <point x="551.891" y="40"/>
      <point x="607" y="40" type="curve"/>
      <point x="607" y="0" type="line"/>
      <point x="603" y="0" type="line" smooth="yes"/>
      <point x="530.003" y="0"/>
      <point x="485" y="49"/>
    </contour>
    <contour>
      <point x="661" y="0" type="line"/>
      <point x="661" y="40" type="line"/>
      <point x="707.548" y="40"/>
      <point x="746" y="73.2119"/>
      <point x="746" y="132" type="curve"/>
      <point x="746" y="582" type="line"/>
      <point x="786" y="582" type="line"/>
      <point x="786" y="128" type="line"/>
      <point x="786" y="62.5234"/>
      <point x="738.972" y="0"/>
      <point x="664" y="0" type="curve" smooth="yes"/>
    </contour>
    <contour>
      <point x="321" y="555" type="line"/>
      <point x="321" y="595" type="line"/>
      <point x="786" y="595" type="line"/>
      <point x="786" y="555" type="line"/>
    </contour>
  </outline>
</glyph>
<glyph name="tml_Ssa" format="1">
  <advance width="1258"/>
  <unicode hex="0BB7"/>
  <outline>
    <contour>
      <point x="621" y="0" type="move" name="tml_virama"/>
    </contour>
    <contour>
      <point x="247" y="0" type="curve"/>
      <point x="247" y="40" type="line"/>
      <point x="291.449" y="40"/>
      <point x="341" y="88"/>
      <point x="341" y="182.617" type="curve" smooth="yes"/>
      <point x="341" y="282"/>
      <point x="289.264" y="319"/>
      <point x="247" y="319" type="curve"/>
      <point x="247" y="359" type="line" smooth="yes"/>
      <point x="320.184" y="359"/>
      <point x="383" y="292"/>
      <point x="383" y="196" type="curve" smooth="yes"/>
      <point x="383" y="173" type="line" smooth="yes"/>
      <point x="383.805" y="75"/>
      <point x="319.207" y="0"/>
    </contour>
    <contour>
      <point x="40" y="172" type="curve" smooth="yes"/>
      <point x="40" y="196" type="line" smooth="yes"/>
      <point x="40" y="300"/>
      <point x="116" y="359"/>
      <point x="192" y="359" type="curve"/>
      <point x="192" y="319" type="line" smooth="yes"/>
      <point x="154.616" y="319"/>
      <point x="79" y="295"/>
      <point x="79" y="181" type="curve" smooth="yes"/>
      <point x="79" y="91"/>
      <point x="141.872" y="40"/>
      <point x="192" y="40" type="curve"/>
      <point x="192" y="0" type="line" smooth="yes"/>
      <point x="103.628" y="0"/>
      <point x="40" y="88"/>
    </contour>
    <contour>
      <point x="40" y="204" type="line"/>
      <point x="40" y="302" type="line"/>
      <point x="40" y="468.761"/>
      <point x="125.239" y="605"/>
      <point x="263" y="605" type="curve"/>
      <point x="263" y="565" type="line"/>
      <point x="148.521" y="565"/>
      <point x="81.6709" y="443.391"/>
      <point x="80" y="306" type="curve" smooth="yes"/>
    </contour>
    <contour>
      <point x="314" y="565" type="curve"/>
      <point x="314" y="605" type="line"/>
      <point x="476" y="605"/>
      <point x="530" y="466"/>
      <point x="531" y="355" type="curve"/>
      <point x="531" y="40" type="line"/>
      <point x="802" y="40" type="line"/>
      <point x="802" y="0" type="line"/>
      <point x="417" y="0" type="line"/>
      <point x="417" y="40" type="line"/>
      <point x="484" y="40"/>
      <point x="490" y="40"/>
      <point x="490" y="76" type="curve" smooth="yes"/>
      <point x="490" y="354" type="line"/>
      <point x="489" y="473"/>
      <point x="431" y="565"/>
    </contour>
    <contour>
      <point x="856" y="567" type="curve"/>
      <point x="856" y="607" type="line"/>
      <point x="935.669" y="607"/>
      <point x="996" y="561"/>
      <point x="996" y="413" type="curve" smooth="yes"/>
      <point x="996" y="123" type="line"/>
      <point x="956" y="123" type="line"/>
      <point x="956" y="413" type="line" smooth="yes"/>
      <point x="956" y="557"/>
      <point x="896.426" y="567"/>
    </contour>
    <contour>
      <point x="956" y="83" type="line"/>
      <point x="996" y="83" type="line"/>
      <point x="996" y="-178" type="line"/>
      <point x="956" y="-178" type="line"/>
    </contour>
    <contour>
      <point x="856" y="158" type="line"/>
      <point x="856" y="198" type="line"/>
      <point x="1132" y="198" type="line" smooth="yes"/>
      <point x="1132" y="158" type="line"/>
    </contour>
    <contour>
      <point x="661" y="334" type="curve" smooth="yes"/>
      <point x="661" y="433" type="line" smooth="yes"/>
      <point x="661" y="570"/>
      <point x="721.409" y="607"/>
      <point x="803" y="607" type="curve"/>
      <point x="803" y="567" type="line"/>
      <point x="770.447" y="567"/>
      <point x="701" y="570"/>
      <point x="701" y="435" type="curve" smooth="yes"/>
      <point x="701" y="317" type="line" smooth="yes"/>
      <point x="701" y="201"/>
      <point x="766.83" y="197"/>
      <point x="803" y="197" type="curve"/>
      <point x="803" y="158" type="line"/>
      <point x="721.409" y="158"/>
      <point x="661" y="191"/>
    </contour>
    <contour>
      <point x="1092" y="0" type="line"/>
      <point x="1092" y="198" type="line"/>
      <point x="1132" y="198" type="line"/>
      <point x="1132" y="0" type="line"/>
    </contour>
    <contour>
      <point x="856" y="1" type="line"/>
      <point x="856" y="41" type="line"/>
      <point x="1132" y="41" type="line"/>
      <point x="1132" y="0" type="line"/>
    </contour>
  </outline>
</glyph>
<glyph name="tml_Sa" format="1">
  <advance width="1167"/>
  <unicode hex="0BB8"/>
  <outline>
    <contour>
      <point x="707" y="566" type="curve"/>
      <point x="707" y="606" type="line"/>
      <point x="819" y="606"/>
      <point x="843" y="507"/>
      <point x="843" y="405" type="curve" smooth="yes"/>
      <point x="843" y="109" type="line" smooth="yes"/>
      <point x="843" y="72"/>
      <point x="882" y="40"/>
      <point x="924" y="40" type="curve"/>
      <point x="924" y="0" type="line"/>
      <point x="861" y="0"/>
      <point x="802" y="49.002"/>
      <point x="802" y="107" type="curve" smooth="yes"/>
      <point x="802" y="397" type="line" smooth="yes"/>
      <point x="802" y="458.004"/>
      <point x="803" y="566"/>
    </contour>
    <contour>
      <point x="978" y="0" type="curve"/>
      <point x="978" y="40" type="line"/>
      <point x="1075" y="40"/>
      <point x="1104" y="116"/>
      <point x="1104" y="167" type="curve"/>
      <point x="1104" y="424" type="line"/>
      <point x="1104" y="490"/>
      <point x="1096" y="556"/>
      <point x="971" y="556" type="curve"/>
      <point x="971" y="596" type="line"/>
      <point x="1091" y="597"/>
      <point x="1144" y="543"/>
      <point x="1144" y="426" type="curve" smooth="yes"/>
      <point x="1144" y="167" type="line" smooth="yes"/>
      <point x="1144" y="82"/>
      <point x="1088" y="0"/>
    </contour>
    <contour>
      <point x="76" y="172" type="curve" smooth="yes"/>
      <point x="76" y="196" type="line" smooth="yes"/>
      <point x="76" y="300"/>
      <point x="152" y="359"/>
      <point x="228" y="359" type="curve"/>
      <point x="228" y="319" type="line" smooth="yes"/>
      <point x="190.616" y="319"/>
      <point x="115" y="295"/>
      <point x="115" y="181" type="curve" smooth="yes"/>
      <point x="115" y="91"/>
      <point x="177.872" y="40"/>
      <point x="228" y="40" type="curve"/>
      <point x="228" y="0" type="line" smooth="yes"/>
      <point x="139.628" y="0"/>
      <point x="76" y="88"/>
    </contour>
    <contour>
      <point x="283" y="0" type="curve"/>
      <point x="283" y="40" type="line"/>
      <point x="327.449" y="40"/>
      <point x="377" y="88"/>
      <point x="377" y="182.617" type="curve" smooth="yes"/>
      <point x="377" y="282"/>
      <point x="325.264" y="319"/>
      <point x="283" y="319" type="curve"/>
      <point x="283" y="359" type="line" smooth="yes"/>
      <point x="356.184" y="359"/>
      <point x="419" y="292"/>
      <point x="419" y="196" type="curve" smooth="yes"/>
      <point x="419" y="173" type="line" smooth="yes"/>
      <point x="419.805" y="75"/>
      <point x="355.207" y="0"/>
    </contour>
    <contour>
      <point x="352.991" y="565" type="curve"/>
      <point x="352.991" y="605" type="line"/>
      <point x="514.991" y="605"/>
      <point x="555.991" y="454"/>
      <point x="555.991" y="355" type="curve"/>
      <point x="555.991" y="0" type="line"/>
      <point x="515.991" y="0" type="line"/>
      <point x="515.991" y="354" type="line"/>
      <point x="515.991" y="472"/>
      <point x="465.991" y="565"/>
    </contour>
    <contour>
      <point x="76" y="204" type="line"/>
      <point x="76" y="302" type="line"/>
      <point x="76" y="468.761"/>
      <point x="161.239" y="605"/>
      <point x="299" y="605" type="curve"/>
      <point x="299" y="565" type="line"/>
      <point x="184.521" y="565"/>
      <point x="117.671" y="443.391"/>
      <point x="116" y="306" type="curve" smooth="yes"/>
    </contour>
    <contour>
      <point x="515.991" y="325" type="line"/>
      <point x="515.991" y="440"/>
      <point x="521.991" y="605"/>
      <point x="652.991" y="605" type="curve"/>
      <point x="652.991" y="565" type="line"/>
      <point x="568.991" y="565"/>
      <point x="555.991" y="454"/>
      <point x="555.991" y="326" type="curve"/>
    </contour>
  </outline>
</glyph>
<glyph name="tml_Ha" format="1">
  <advance width="1311"/>
  <unicode hex="0BB9"/>
  <outline>
    <contour>
      <point x="971" y="0" type="move" name="tml_virama"/>
    </contour>
    <contour>
      <point x="1210" y="312" type="line"/>
      <point x="1251" y="312" type="line"/>
      <point x="1251" y="473" type="line" smooth="yes"/>
      <point x="1251" y="528"/>
      <point x="1225" y="604"/>
      <point x="1127" y="604" type="curve" smooth="yes"/>
      <point x="1127" y="564" type="line"/>
      <point x="1142" y="564"/>
      <point x="1209" y="558"/>
      <point x="1209" y="458" type="curve" smooth="yes"/>
    </contour>
    <contour>
      <point x="314" y="565" type="line"/>
      <point x="431" y="565"/>
      <point x="489" y="473"/>
      <point x="490" y="354" type="curve"/>
      <point x="490" y="76" type="line" smooth="yes"/>
      <point x="490" y="40"/>
      <point x="484" y="40"/>
      <point x="417" y="40" type="curve"/>
      <point x="417" y="0" type="line"/>
      <point x="656" y="0" type="line"/>
      <point x="656" y="40" type="line"/>
      <point x="531" y="40" type="line"/>
      <point x="531" y="355" type="line"/>
      <point x="530" y="466"/>
      <point x="476" y="605"/>
      <point x="314" y="605" type="curve"/>
    </contour>
    <contour>
      <point x="876" y="564" type="line"/>
      <point x="918" y="564"/>
      <point x="955" y="542"/>
      <point x="955" y="456" type="curve" smooth="yes"/>
      <point x="957" y="0" type="line"/>
      <point x="997" y="0" type="line"/>
      <point x="995" y="457" type="line" smooth="yes"/>
      <point x="995" y="542"/>
      <point x="1040" y="564"/>
      <point x="1076" y="564" type="curve"/>
      <point x="1076" y="604" type="line"/>
      <point x="1037" y="604"/>
      <point x="1004" y="595"/>
      <point x="976" y="560" type="curve"/>
      <point x="952" y="592"/>
      <point x="922" y="604"/>
      <point x="876" y="604" type="curve"/>
    </contour>
    <contour>
      <point x="40" y="172" type="line" smooth="yes"/>
      <point x="40" y="88"/>
      <point x="104" y="0"/>
      <point x="192" y="0" type="curve" smooth="yes"/>
      <point x="192" y="40" type="line"/>
      <point x="142" y="40"/>
      <point x="79" y="91"/>
      <point x="79" y="181" type="curve" smooth="yes"/>
      <point x="79" y="295"/>
      <point x="155" y="319"/>
      <point x="192" y="319" type="curve" smooth="yes"/>
      <point x="192" y="359" type="line"/>
      <point x="116" y="359"/>
      <point x="40" y="300"/>
      <point x="40" y="196" type="curve" smooth="yes"/>
    </contour>
    <contour>
      <point x="247" y="0" type="line"/>
      <point x="319" y="0"/>
      <point x="384" y="75"/>
      <point x="383" y="173" type="curve" smooth="yes"/>
      <point x="383" y="196" type="line" smooth="yes"/>
      <point x="383" y="292"/>
      <point x="320" y="359"/>
      <point x="247" y="359" type="curve" smooth="yes"/>
      <point x="247" y="319" type="line"/>
      <point x="289" y="319"/>
      <point x="341" y="282"/>
      <point x="341" y="183" type="curve" smooth="yes"/>
      <point x="341" y="88"/>
      <point x="291" y="40"/>
      <point x="247" y="40" type="curve"/>
    </contour>
    <contour>
      <point x="708" y="0" type="line"/>
      <point x="749" y="0" type="line"/>
      <point x="747" y="472" type="line" smooth="yes"/>
      <point x="747" y="501"/>
      <point x="760" y="564"/>
      <point x="822" y="564" type="curve"/>
      <point x="822" y="604" type="line"/>
      <point x="739" y="604"/>
      <point x="708" y="527"/>
      <point x="708" y="477" type="curve" smooth="yes"/>
    </contour>
    <contour>
      <point x="40" y="204" type="line"/>
      <point x="80" y="306" type="line" smooth="yes"/>
      <point x="82" y="443"/>
      <point x="149" y="565"/>
      <point x="263" y="565" type="curve"/>
      <point x="263" y="605" type="line"/>
      <point x="125" y="605"/>
      <point x="40" y="469"/>
      <point x="40" y="302" type="curve"/>
    </contour>
    <contour>
      <point x="1252" y="266" type="line"/>
      <point x="1211" y="266" type="line"/>
      <point x="1213" y="69" type="line" smooth="yes"/>
      <point x="1214" y="-15"/>
      <point x="1165" y="-85"/>
      <point x="1098" y="-85" type="curve" smooth="yes"/>
      <point x="1014" y="-85"/>
      <point x="305" y="-85"/>
      <point x="218" y="-85" type="curve" smooth="yes"/>
      <point x="138" y="-85"/>
      <point x="102" y="-136"/>
      <point x="102" y="-256" type="curve"/>
      <point x="142" y="-256" type="line"/>
      <point x="142" y="-155"/>
      <point x="166" y="-125"/>
      <point x="212" y="-125" type="curve" smooth="yes"/>
      <point x="1099" y="-125" type="line" smooth="yes"/>
      <point x="1200" y="-123"/>
      <point x="1252" y="-35"/>
      <point x="1252" y="63" type="curve" smooth="yes"/>
    </contour>
  </outline>
</glyph>
<glyph name="tml_MatraAa" format="1">
  <advance width="570"/>
  <unicode hex="0BBE"/>
  <outline>
    <contour>
      <point x="366" y="0" type="line"/>
      <point x="406" y="0" type="line"/>
      <point x="406" y="593" type="line"/>
      <point x="366" y="593" type="line"/>
    </contour>
    <contour>
      <point x="83" y="0" type="line"/>
      <point x="83" y="592" type="line"/>
      <point x="123" y="593" type="line"/>
      <point x="123" y="0" type="line"/>
    </contour>
    <contour>
      <point x="271" y="555" type="line"/>
      <point x="490" y="555" type="line"/>
      <point x="490" y="595" type="line"/>
      <point x="271" y="595" type="line"/>
    </contour>
    <contour>
      <point x="83" y="555" type="line"/>
      <point x="83" y="595" type="line"/>
      <point x="218" y="595" type="line"/>
      <point x="218" y="555" type="line"/>
    </contour>
  </outline>
</glyph>
<glyph name="tml_MatraI" format="1">
  <advance width="556"/>
  <unicode hex="0BBF"/>
  <outline>
    <contour>
      <point x="301" y="717" type="line"/>
      <point x="367" y="717"/>
      <point x="435" y="690"/>
      <point x="435" y="579" type="curve" smooth="yes"/>
      <point x="435" y="69" type="line"/>
      <point x="475" y="69" type="line"/>
      <point x="475" y="582" type="line" smooth="yes"/>
      <point x="475" y="683"/>
      <point x="421" y="757"/>
      <point x="301" y="757" type="curve"/>
    </contour>
    <contour>
      <point x="82" y="580" type="line"/>
      <point x="122" y="580" type="line" smooth="yes"/>
      <point x="122" y="689"/>
      <point x="180" y="718"/>
      <point x="247" y="718" type="curve" smooth="yes"/>
      <point x="247" y="718" type="line" smooth="yes"/>
      <point x="247" y="758" type="line"/>
      <point x="247" y="758" type="line" smooth="yes"/>
      <point x="125" y="758"/>
      <point x="82" y="678"/>
      <point x="82" y="580" type="curve"/>
    </contour>
  </outline>
</glyph>
<glyph name="tml_MatraU" format="1">
  <advance width="569"/>
  <unicode hex="0BC1"/>
  <outline>
    <contour>
      <point x="39" y="615" type="line"/>
      <point x="39" y="655" type="line"/>
      <point x="323" y="655" type="line" smooth="yes"/>
      <point x="438" y="655"/>
      <point x="488" y="604"/>
      <point x="488" y="537" type="curve" smooth="yes"/>
      <point x="488" y="530" type="line" smooth="yes"/>
      <point x="488" y="471"/>
      <point x="436" y="417"/>
      <point x="381" y="417" type="curve" smooth="yes"/>
      <point x="369" y="417" type="line" smooth="yes"/>
      <point x="300" y="417"/>
      <point x="258" y="480"/>
      <point x="258" y="530" type="curve"/>
      <point x="298" y="530" type="line" smooth="yes"/>
      <point x="298" y="510"/>
      <point x="315" y="457"/>
      <point x="374" y="457" type="curve" smooth="yes"/>
      <point x="429" y="457"/>
      <point x="448" y="511"/>
      <point x="448" y="529" type="curve" smooth="yes"/>
      <point x="448" y="584"/>
      <point x="416" y="615"/>
      <point x="319" y="615" type="curve" smooth="yes"/>
    </contour>
  </outline>
</glyph>
<glyph name="tml_MatraE" format="1">
  <advance width="633"/>
  <unicode hex="0BC6"/>
  <outline>
    <contour>
      <point x="283" y="0" type="curve"/>
      <point x="283" y="40" type="line"/>
      <point x="327.449" y="40"/>
      <point x="377" y="88"/>
      <point x="377" y="182.617" type="curve" smooth="yes"/>
      <point x="377" y="282"/>
      <point x="325.264" y="319"/>
      <point x="283" y="319" type="curve"/>
      <point x="283" y="359" type="line" smooth="yes"/>
      <point x="356.184" y="359"/>
      <point x="419" y="292"/>
      <point x="419" y="196" type="curve" smooth="yes"/>
      <point x="419" y="173" type="line" smooth="yes"/>
      <point x="419.805" y="75"/>
      <point x="355.207" y="0"/>
    </contour>
    <contour>
      <point x="76" y="172" type="curve" smooth="yes"/>
      <point x="76" y="196" type="line" smooth="yes"/>
      <point x="76" y="300"/>
      <point x="152" y="359"/>
      <point x="228" y="359" type="curve"/>
      <point x="228" y="319" type="line" smooth="yes"/>
      <point x="190.616" y="319"/>
      <point x="115" y="295"/>
      <point x="115" y="181" type="curve" smooth="yes"/>
      <point x="115" y="91"/>
      <point x="177.872" y="40"/>
      <point x="228" y="40" type="curve"/>
      <point x="228" y="0" type="line" smooth="yes"/>
      <point x="139.628" y="0"/>
      <point x="76" y="88"/>
    </contour>
    <contour>
      <point x="350" y="637" type="curve"/>
      <point x="350" y="677" type="line"/>
      <point x="493.918" y="677"/>
      <point x="555" y="570.348"/>
      <point x="555" y="451" type="curve" smooth="yes"/>
      <point x="555" y="-10" type="line"/>
      <point x="515" y="-10" type="line"/>
      <point x="515" y="451" type="line" smooth="yes"/>
      <point x="515" y="508.357"/>
      <point x="494.073" y="637"/>
    </contour>
    <contour>
      <point x="76" y="194" type="curve"/>
      <point x="76" y="248" type="line"/>
      <point x="76" y="451" type="line" smooth="yes"/>
      <point x="76" y="569.502"/>
      <point x="141.914" y="677"/>
      <point x="296" y="677" type="curve" smooth="yes"/>
      <point x="296" y="677" type="line"/>
      <point x="296" y="637" type="line" smooth="yes"/>
      <point x="296" y="637" type="line" smooth="yes"/>
      <point x="150.009" y="637"/>
      <point x="116" y="524.744"/>
      <point x="116" y="451" type="curve" smooth="yes"/>
      <point x="116" y="303" type="line" smooth="yes"/>
      <point x="117" y="246"/>
      <point x="82" y="224"/>
    </contour>
  </outline>
</glyph>
<glyph name="tml_MatraEe" format="1">
  <advance width="621"/>
  <unicode hex="0BC7"/>
  <outline>
    <contour>
      <point x="413" y="376" type="line"/>
      <point x="485" y="376"/>
      <point x="550" y="451"/>
      <point x="549" y="549" type="curve" smooth="yes"/>
      <point x="549" y="572" type="line" smooth="yes"/>
      <point x="549" y="668"/>
      <point x="486" y="735"/>
      <point x="413" y="735" type="curve" smooth="yes"/>
      <point x="413" y="695" type="line"/>
      <point x="455" y="695"/>
      <point x="507" y="658"/>
      <point x="507" y="559" type="curve" smooth="yes"/>
      <point x="507" y="464"/>
      <point x="457" y="416"/>
      <point x="413" y="416" type="curve"/>
    </contour>
    <contour>
      <point x="206" y="548" type="line" smooth="yes"/>
      <point x="206" y="464"/>
      <point x="270" y="376"/>
      <point x="358" y="376" type="curve" smooth="yes"/>
      <point x="358" y="416" type="line"/>
      <point x="308" y="416"/>
      <point x="245" y="467"/>
      <point x="245" y="557" type="curve" smooth="yes"/>
      <point x="245" y="671"/>
      <point x="321" y="695"/>
      <point x="358" y="695" type="curve" smooth="yes"/>
      <point x="358" y="735" type="line"/>
      <point x="282" y="735"/>
      <point x="206" y="676"/>
      <point x="206" y="572" type="curve" smooth="yes"/>
    </contour>
    <contour>
      <point x="413" y="-12" type="line"/>
      <point x="485" y="-12"/>
      <point x="550" y="63"/>
      <point x="549" y="161" type="curve" smooth="yes"/>
      <point x="549" y="184" type="line" smooth="yes"/>
      <point x="549" y="280"/>
      <point x="486" y="347"/>
      <point x="413" y="347" type="curve" smooth="yes"/>
      <point x="413" y="307" type="line"/>
      <point x="455" y="307"/>
      <point x="507" y="270"/>
      <point x="507" y="171" type="curve" smooth="yes"/>
      <point x="507" y="76"/>
      <point x="457" y="28"/>
      <point x="413" y="28" type="curve"/>
    </contour>
    <contour>
      <point x="206" y="160" type="line" smooth="yes"/>
      <point x="206" y="76"/>
      <point x="270" y="-12"/>
      <point x="358" y="-12" type="curve" smooth="yes"/>
      <point x="358" y="28" type="line"/>
      <point x="308" y="28"/>
      <point x="245" y="79"/>
      <point x="245" y="169" type="curve" smooth="yes"/>
      <point x="245" y="283"/>
      <point x="321" y="307"/>
      <point x="358" y="307" type="curve" smooth="yes"/>
      <point x="358" y="347" type="line"/>
      <point x="282" y="347"/>
      <point x="206" y="288"/>
      <point x="206" y="184" type="curve" smooth="yes"/>
    </contour>
    <contour>
      <point x="81" y="225" type="line"/>
      <point x="81" y="25"/>
      <point x="268" y="-12"/>
      <point x="351" y="-12" type="curve" smooth="yes"/>
      <point x="356" y="-12" type="line" smooth="yes"/>
      <point x="356" y="28" type="line"/>
      <point x="320" y="28"/>
      <point x="118" y="34"/>
      <point x="118" y="238" type="curve" smooth="yes"/>
      <point x="118" y="492" type="line" smooth="yes"/>
      <point x="118" y="676"/>
      <point x="307" y="694"/>
      <point x="354" y="696" type="curve"/>
      <point x="354" y="735" type="line" smooth="yes"/>
      <point x="291" y="735"/>
      <point x="81" y="706"/>
      <point x="81" y="496" type="curve"/>
    </contour>
  </outline>
</glyph>
<glyph name="tml_MatraAi" format="1">
  <advance width="1043"/>
  <unicode hex="0BC8"/>
  <outline>
    <contour>
      <point x="423" y="158" type="line"/>
      <point x="423" y="73"/>
      <point x="472" y="-10"/>
      <point x="568" y="-10" type="curve" smooth="yes"/>
      <point x="568" y="30" type="line"/>
      <point x="507" y="30"/>
      <point x="463" y="78"/>
      <point x="463" y="159" type="curve" smooth="yes"/>
      <point x="463" y="290" type="line" smooth="yes"/>
      <point x="463" y="477"/>
      <point x="572" y="565"/>
      <point x="748" y="565" type="curve"/>
      <point x="748" y="605" type="line"/>
      <point x="683" y="606"/>
      <point x="423" y="584"/>
      <point x="423" y="288" type="curve" smooth="yes"/>
    </contour>
    <contour>
      <point x="389" y="565" type="line"/>
      <point x="649" y="565"/>
      <point x="728" y="440"/>
      <point x="728" y="306" type="curve" smooth="yes"/>
      <point x="728" y="158" type="line" smooth="yes"/>
      <point x="728" y="76"/>
      <point x="690" y="30"/>
      <point x="622" y="30" type="curve" smooth="yes"/>
      <point x="622" y="-10" type="line"/>
      <point x="722" y="-10"/>
      <point x="768" y="66"/>
      <point x="768" y="158" type="curve" smooth="yes"/>
      <point x="768" y="301" type="line" smooth="yes"/>
      <point x="768" y="594"/>
      <point x="465" y="605"/>
      <point x="389" y="605" type="curve"/>
    </contour>
    <contour>
      <point x="40" y="157" type="line"/>
      <point x="40" y="72"/>
      <point x="89" y="-11"/>
      <point x="186" y="-11" type="curve" smooth="yes"/>
      <point x="186" y="29" type="line"/>
      <point x="138" y="29"/>
      <point x="80" y="63"/>
      <point x="81" y="158" type="curve" smooth="yes"/>
      <point x="80" y="290" type="line" smooth="yes"/>
      <point x="79" y="403"/>
      <point x="121" y="564"/>
      <point x="335" y="565" type="curve"/>
      <point x="335" y="605" type="line"/>
      <point x="248" y="605"/>
      <point x="40" y="570"/>
      <point x="40" y="290" type="curve" smooth="yes"/>
    </contour>
    <contour>
      <point x="257" y="408" type="curve"/>
      <point x="344" y="408"/>
      <point x="345" y="340"/>
      <point x="345" y="284" type="curve" smooth="yes"/>
      <point x="345" y="157" type="line" smooth="yes"/>
      <point x="345" y="63"/>
      <point x="293" y="29"/>
      <point x="239" y="29" type="curve" smooth="yes"/>
      <point x="239" y="-11" type="line"/>
      <point x="334" y="-11"/>
      <point x="385" y="61"/>
      <point x="385" y="157" type="curve" smooth="yes"/>
      <point x="385" y="284" type="line" smooth="yes"/>
      <point x="385" y="362"/>
      <point x="364" y="437"/>
      <point x="295" y="437" type="curve"/>
      <point x="276" y="437"/>
      <point x="254" y="421"/>
    </contour>
    <contour>
      <point x="802" y="556" type="line"/>
      <point x="864" y="554"/>
      <point x="955" y="471"/>
      <point x="955" y="303" type="curve" smooth="yes"/>
      <point x="955" y="162" type="line" smooth="yes"/>
      <point x="955" y="86"/>
      <point x="914" y="35"/>
      <point x="841" y="35" type="curve" smooth="yes"/>
      <point x="841" y="-5" type="line"/>
      <point x="941" y="-5"/>
      <point x="995" y="70"/>
      <point x="995" y="162" type="curve" smooth="yes"/>
      <point x="995" y="303" type="line" smooth="yes"/>
      <point x="995" y="483"/>
      <point x="898" y="590"/>
      <point x="802" y="596" type="curve"/>
    </contour>
  </outline>
</glyph>
<glyph name="tml_Virama" format="1">
  <advance width="139"/>
  <unicode hex="0BCD"/>
  <outline>
    <contour>
      <point x="34.6426" y="725.27" type="curve" smooth="yes"/>
      <point x="34.6426" y="745.143"/>
      <point x="50.2588" y="761.112"/>
      <point x="69.7764" y="761.112" type="curve" smooth="yes"/>
      <point x="89.2949" y="761.112"/>
      <point x="104.91" y="745.143"/>
      <point x="104.91" y="725.27" type="curve" smooth="yes"/>
      <point x="104.91" y="705.396"/>
      <point x="89.2949" y="689.425"/>
      <point x="69.7764" y="689.425" type="curve" smooth="yes"/>
      <point x="50.2588" y="689.425"/>
      <point x="34.6426" y="705.396"/>
    </contour>
  </outline>
</glyph>
<glyph name="tml_Om" format="1">
  <advance width="819"/>
  <unicode hex="0BD0"/>
  <outline>
    <contour>
      <point x="247" y="389" type="curve" smooth="yes"/>
      <point x="247" y="349" type="line"/>
      <point x="289" y="349"/>
      <point x="341" y="312"/>
      <point x="341" y="213" type="curve" smooth="yes"/>
      <point x="341" y="118"/>
      <point x="291" y="70"/>
      <point x="247" y="70" type="curve"/>
      <point x="247" y="30" type="line"/>
      <point x="319" y="30"/>
      <point x="384" y="105"/>
      <point x="383" y="203" type="curve" smooth="yes"/>
      <point x="383" y="226" type="line" smooth="yes"/>
      <point x="383" y="322"/>
      <point x="320" y="389"/>
    </contour>
    <contour>
      <point x="192" y="389" type="line"/>
      <point x="116" y="389"/>
      <point x="40" y="330"/>
      <point x="40" y="226" type="curve" smooth="yes"/>
      <point x="40" y="202" type="line" smooth="yes"/>
      <point x="40" y="118"/>
      <point x="104" y="30"/>
      <point x="192" y="30" type="curve" smooth="yes"/>
      <point x="192" y="70" type="line"/>
      <point x="142" y="70"/>
      <point x="79" y="121"/>
      <point x="79" y="211" type="curve" smooth="yes"/>
      <point x="79" y="325"/>
      <point x="155" y="349"/>
      <point x="192" y="349" type="curve" smooth="yes"/>
    </contour>
    <contour>
      <point x="40" y="228" type="line"/>
      <point x="51" y="256"/>
      <point x="55" y="283"/>
      <point x="82" y="332" type="curve"/>
      <point x="90" y="502"/>
      <point x="178" y="655"/>
      <point x="389" y="655" type="curve"/>
      <point x="389" y="695" type="line"/>
      <point x="389" y="695" type="line" smooth="yes"/>
      <point x="117" y="695"/>
      <point x="40" y="467"/>
      <point x="40" y="310" type="curve"/>
    </contour>
    <contour>
      <point x="779" y="165" type="curve" smooth="yes"/>
      <point x="779" y="398" type="line" smooth="yes"/>
      <point x="779" y="494"/>
      <point x="679" y="695"/>
      <point x="442" y="695" type="curve"/>
      <point x="442" y="655" type="line"/>
      <point x="643" y="655"/>
      <point x="739" y="488"/>
      <point x="739" y="398" type="curve" smooth="yes"/>
      <point x="739" y="164" type="line" smooth="yes"/>
      <point x="733" y="30"/>
      <point x="486" y="47"/>
      <point x="486" y="162" type="curve"/>
      <point x="486" y="350" type="line"/>
      <point x="446" y="350" type="line" smooth="yes"/>
      <point x="446" y="166" type="line" smooth="yes"/>
      <point x="446" y="-16"/>
      <point x="779" y="-17"/>
    </contour>
    <contour>
      <point x="715" y="-132" type="curve"/>
      <point x="715" y="-92" type="line" smooth="yes"/>
      <point x="619" y="-94"/>
      <point x="486" y="-61"/>
      <point x="486" y="27" type="curve" smooth="yes"/>
      <point x="486" y="175" type="line" smooth="yes"/>
      <point x="446" y="276" type="line"/>
      <point x="446" y="25" type="line" smooth="yes"/>
      <point x="446" y="-66"/>
      <point x="552" y="-132"/>
    </contour>
    <contour>
      <point x="530" y="-155" type="curve"/>
      <point x="493" y="-134" type="line" smooth="yes"/>
      <point x="429" y="-252"/>
      <point x="281" y="-243"/>
      <point x="226" y="-114" type="curve"/>
      <point x="185" y="-124" type="line"/>
      <point x="253" y="-296"/>
      <point x="451" y="-298"/>
    </contour>
    <contour>
      <point x="289" y="-152" type="line"/>
      <point x="299" y="-152" type="line"/>
      <point x="299" y="-30" type="line"/>
      <point x="289" y="-30" type="line"/>
    </contour>
    <contour>
      <point x="289" y="-157" type="line"/>
      <point x="381" y="-157" type="line"/>
      <point x="381" y="-149" type="line"/>
      <point x="289" y="-149" type="line"/>
    </contour>
    <contour>
      <point x="388" y="-157" type="line" smooth="yes"/>
      <point x="405" y="-157"/>
      <point x="421" y="-147"/>
      <point x="421" y="-115" type="curve" smooth="yes"/>
      <point x="421" y="-64" type="line" smooth="yes"/>
      <point x="421" y="-35"/>
      <point x="403" y="-28"/>
      <point x="388" y="-28" type="curve"/>
      <point x="388" y="-36" type="line"/>
      <point x="412" y="-36"/>
      <point x="410" y="-63"/>
      <point x="410" y="-64" type="curve" smooth="yes"/>
      <point x="410" y="-115" type="line" smooth="yes"/>
      <point x="410" y="-122"/>
      <point x="410" y="-149"/>
      <point x="388" y="-149" type="curve"/>
    </contour>
    <contour>
      <point x="343" y="-149" type="line" smooth="yes"/>
      <point x="353" y="-149" type="line"/>
      <point x="353" y="-64" type="line" smooth="yes"/>
      <point x="353" y="-62"/>
      <point x="352" y="-36"/>
      <point x="374" y="-36" type="curve"/>
      <point x="374" y="-28" type="line"/>
      <point x="359" y="-28"/>
      <point x="343" y="-36"/>
      <point x="343" y="-64" type="curve" smooth="yes"/>
    </contour>
    <contour>
      <point x="370" y="6" type="curve" smooth="yes"/>
      <point x="370" y="0"/>
      <point x="375" y="-4"/>
      <point x="381" y="-4" type="curve" smooth="yes"/>
      <point x="388" y="-4"/>
      <point x="393" y="0"/>
      <point x="393" y="6" type="curve" smooth="yes"/>
      <point x="393" y="12"/>
      <point x="388" y="16"/>
      <point x="381" y="16" type="curve" smooth="yes"/>
      <point x="375" y="16"/>
      <point x="370" y="12"/>
    </contour>
  </outline>
</glyph>
<glyph name="tml_Zero" format="1">
  <advance width="450"/>
  <unicode hex="0BE6"/>
  <outline>
    <contour>
      <point x="247" y="-10" type="curve"/>
      <point x="247" y="70" type="line"/>
      <point x="291.449" y="70"/>
      <point x="341" y="178"/>
      <point x="341" y="272.617" type="curve" smooth="yes"/>
      <point x="341" y="372"/>
      <point x="289.264" y="479"/>
      <point x="247" y="479" type="curve"/>
      <point x="247" y="569" type="line" smooth="yes"/>
      <point x="320.184" y="569"/>
      <point x="383" y="502"/>
      <point x="383" y="406" type="curve" smooth="yes"/>
      <point x="383" y="163" type="line" smooth="yes"/>
      <point x="383.805" y="65"/>
      <point x="319.207" y="-10"/>
    </contour>
    <contour>
      <point x="40" y="162" type="curve" smooth="yes"/>
      <point x="40" y="406" type="line" smooth="yes"/>
      <point x="40" y="510"/>
      <point x="116" y="569"/>
      <point x="192" y="569" type="curve"/>
      <point x="192" y="479" type="line" smooth="yes"/>
      <point x="154.616" y="479"/>
      <point x="79" y="385"/>
      <point x="79" y="271" type="curve" smooth="yes"/>
      <point x="79" y="181"/>
      <point x="141.872" y="70"/>
      <point x="192" y="70" type="curve"/>
      <point x="192" y="-10" type="line" smooth="yes"/>
      <point x="103.628" y="-10"/>
      <point x="40" y="78"/>
    </contour>
  </outline>
</glyph>
<glyph name="tml_Two" format="1">
  <advance width="900"/>
  <unicode hex="0BE8"/>
  <outline>
    <contour>
      <point x="40" y="472" type="curve" smooth="yes"/>
      <point x="40" y="345"/>
      <point x="136" y="285"/>
      <point x="228" y="285" type="curve" smooth="yes"/>
      <point x="319" y="285"/>
      <point x="398" y="388"/>
      <point x="378" y="504" type="curve"/>
      <point x="337" y="504" type="line"/>
      <point x="353" y="434"/>
      <point x="313" y="325"/>
      <point x="227" y="325" type="curve" smooth="yes"/>
      <point x="132" y="325"/>
      <point x="80" y="391"/>
      <point x="80" y="473" type="curve" smooth="yes"/>
      <point x="80" y="570"/>
      <point x="146" y="656"/>
      <point x="267" y="656" type="curve" smooth="yes"/>
      <point x="363" y="656"/>
      <point x="484" y="592"/>
      <point x="484" y="430" type="curve"/>
      <point x="524" y="430" type="line"/>
      <point x="524" y="598"/>
      <point x="412" y="696"/>
      <point x="267" y="696" type="curve" smooth="yes"/>
      <point x="125" y="696"/>
      <point x="40" y="593"/>
    </contour>
    <contour>
      <point x="85" y="0" type="line"/>
      <point x="860" y="0" type="line"/>
      <point x="860" y="40" type="line"/>
      <point x="85" y="40" type="line"/>
    </contour>
    <contour>
      <point x="77" y="0" type="line"/>
      <point x="107" y="0" type="line"/>
      <point x="272" y="0"/>
      <point x="524" y="162"/>
      <point x="524" y="376" type="curve"/>
      <point x="484" y="376" type="line"/>
      <point x="484" y="231"/>
      <point x="310" y="39"/>
      <point x="77" y="40" type="curve"/>
    </contour>
  </outline>
</glyph>
<glyph name="tml_Four" format="1">
  <advance width="908"/>
  <unicode hex="0BEA"/>
  <outline>
    <contour>
      <point x="741" y="331" type="line"/>
      <point x="741" y="487" type="line"/>
      <point x="782" y="487" type="line"/>
      <point x="781" y="331" type="line"/>
    </contour>
    <contour>
      <point x="444" y="331" type="line"/>
      <point x="444" y="371" type="line"/>
      <point x="751" y="371" type="line"/>
      <point x="751" y="331" type="line"/>
    </contour>
    <component base="tml_Ca"/>
  </outline>
</glyph>
<glyph name="tml_Six" format="1">
  <advance width="1037"/>
  <unicode hex="0BEC"/>
  <outline>
    <contour>
      <point x="900" y="2" type="line"/>
      <point x="900" y="342" type="line"/>
      <point x="941" y="342" type="line"/>
      <point x="940" y="2" type="line"/>
    </contour>
    <contour>
      <point x="695" y="2" type="line"/>
      <point x="695" y="342" type="line"/>
      <point x="736" y="342" type="line"/>
      <point x="735" y="2" type="line"/>
    </contour>
    <contour>
      <point x="428" y="331" type="line"/>
      <point x="428" y="371" type="line"/>
      <point x="997" y="371" type="line"/>
      <point x="997" y="331" type="line"/>
    </contour>
    <component base="tml_Ca"/>
  </outline>
</glyph>
<glyph name="tml_Eight" format="1">
  <advance width="937"/>
  <unicode hex="0BEE"/>
  <outline>
    <contour>
      <point x="40" y="72" type="curve" smooth="yes"/>
      <point x="40" y="188"/>
      <point x="124" y="233"/>
      <point x="254" y="233" type="curve" smooth="yes"/>
      <point x="329" y="233" type="line"/>
      <point x="329" y="191" type="line"/>
      <point x="236" y="191" type="line" smooth="yes"/>
      <point x="212" y="191"/>
      <point x="80" y="195.5"/>
      <point x="80" y="72" type="curve" smooth="yes"/>
      <point x="80" y="-48.0156"/>
      <point x="181" y="-87"/>
      <point x="241" y="-87" type="curve" smooth="yes"/>
      <point x="330" y="-87" type="line"/>
      <point x="330" y="-127" type="line"/>
      <point x="243" y="-127" type="line" smooth="yes"/>
      <point x="131" y="-127"/>
      <point x="40" y="-47"/>
    </contour>
    <contour>
      <point x="384" y="192" type="curve"/>
      <point x="384" y="232" type="line"/>
      <point x="450.576" y="232"/>
      <point x="658.424" y="232"/>
      <point x="725" y="232" type="curve"/>
      <point x="726" y="67" type="line"/>
      <point x="726" y="-35"/>
      <point x="654.365" y="-127"/>
      <point x="530" y="-127" type="curve" smooth="yes"/>
      <point x="386" y="-127" type="line" smooth="yes"/>
      <point x="386" y="-87" type="line"/>
      <point x="530" y="-87" type="line" smooth="yes"/>
      <point x="616" y="-86"/>
      <point x="685" y="-29"/>
      <point x="685" y="69" type="curve"/>
      <point x="685" y="192" type="line"/>
      <point x="652.523" y="192"/>
      <point x="416.477" y="192"/>
    </contour>
    <contour>
      <point x="495" y="226" type="line" smooth="yes"/>
      <point x="420.146" y="279"/>
      <point x="330" y="352"/>
      <point x="330" y="486" type="curve" smooth="yes"/>
      <point x="330" y="606"/>
      <point x="378.17" y="734.289"/>
      <point x="526" y="734.289" type="curve" smooth="yes"/>
      <point x="684.865" y="734.289"/>
      <point x="725" y="621"/>
      <point x="725" y="429" type="curve"/>
      <point x="725" y="224" type="line"/>
      <point x="685" y="224" type="line"/>
      <point x="685" y="432" type="line" smooth="yes"/>
      <point x="685" y="619"/>
      <point x="640.833" y="694.289"/>
      <point x="526" y="694.289" type="curve" smooth="yes"/>
      <point x="420.143" y="694.289"/>
      <point x="370.104" y="607"/>
      <point x="370" y="486" type="curve" smooth="yes"/>
      <point x="369.874" y="347"/>
      <point x="519.895" y="270.666"/>
      <point x="576" y="226" type="curve" smooth="yes"/>
    </contour>
    <contour>
      <point x="684" y="192" type="line"/>
      <point x="684" y="232" type="line"/>
      <point x="859" y="232" type="line"/>
      <point x="859" y="192" type="line"/>
    </contour>
    <contour>
      <point x="857" y="-107" type="line"/>
      <point x="857" y="578" type="line"/>
      <point x="897" y="578" type="line"/>
      <point x="897" y="-107" type="line"/>
    </contour>
  </outline>
</glyph>
<glyph name="tml_Nine" format="1">
  <advance width="977"/>
  <unicode hex="0BEF"/>
  <outline>
    <contour>
      <point x="512" y="331" type="line"/>
      <point x="512" y="371" type="line"/>
      <point x="688" y="371" type="line" smooth="yes"/>
      <point x="799" y="371"/>
      <point x="895" y="336"/>
      <point x="895" y="215" type="curve" smooth="yes"/>
      <point x="895" y="200" type="line" smooth="yes"/>
      <point x="895" y="100"/>
      <point x="806" y="50"/>
      <point x="751" y="50" type="curve" smooth="yes"/>
      <point x="737" y="50" type="line" smooth="yes"/>
      <point x="647" y="50"/>
      <point x="583" y="120"/>
      <point x="583" y="205" type="curve"/>
      <point x="623" y="205" type="line" smooth="yes"/>
      <point x="623" y="107"/>
      <point x="712" y="90"/>
      <point x="743.133" y="90" type="curve" smooth="yes"/>
      <point x="766.133" y="90"/>
      <point x="855" y="108"/>
      <point x="855" y="204" type="curve" smooth="yes"/>
      <point x="855" y="339"/>
      <point x="741" y="331"/>
      <point x="685" y="331" type="curve" smooth="yes"/>
    </contour>
    <component base="tml_Ca"/>
  </outline>
</glyph>
<glyph name="tml_Ten" format="1">
  <advance width="630"/>
  <unicode hex="0BF0"/>
  <outline>
    <contour>
      <point x="440" y="729" type="line"/>
      <point x="489" y="729" type="line"/>
      <point x="590" y="595" type="line"/>
      <point x="550" y="580" type="line"/>
    </contour>
    <contour>
      <point x="469" y="0" type="curve"/>
      <point x="469" y="40" type="line"/>
      <point x="525.231" y="40"/>
      <point x="550" y="92"/>
      <point x="550" y="155" type="curve" smooth="yes"/>
      <point x="550" y="595" type="line"/>
      <point x="590" y="595" type="line"/>
      <point x="590" y="145" type="line" smooth="yes"/>
      <point x="590" y="97"/>
      <point x="566.702" y="0"/>
    </contour>
    <contour>
      <point x="40" y="146" type="curve" smooth="yes"/>
      <point x="40" y="595" type="line"/>
      <point x="80" y="595" type="line"/>
      <point x="80" y="146" type="line" smooth="yes"/>
      <point x="80" y="53"/>
      <point x="135.921" y="40"/>
      <point x="155" y="40" type="curve"/>
      <point x="155" y="0" type="line"/>
      <point x="97.3242" y="0"/>
      <point x="40" y="51"/>
    </contour>
    <contour>
      <point x="209" y="0" type="curve"/>
      <point x="209" y="40" type="line"/>
      <point x="234" y="40"/>
      <point x="294" y="36.873"/>
      <point x="294" y="151" type="curve" smooth="yes"/>
      <point x="294" y="595" type="line"/>
      <point x="334" y="595" type="line"/>
      <point x="334" y="151" type="line" smooth="yes"/>
      <point x="334" y="37.3096"/>
      <point x="392" y="40"/>
      <point x="415" y="40" type="curve"/>
      <point x="415" y="0" type="line"/>
      <point x="382" y="0"/>
      <point x="345" y="0"/>
      <point x="313" y="42" type="curve"/>
      <point x="279" y="0"/>
      <point x="249" y="0"/>
    </contour>
  </outline>
</glyph>
<glyph name="tml_Thousand" format="1">
  <advance width="1058"/>
  <unicode hex="0BF2"/>
  <outline>
    <contour>
      <point x="591" y="-258" type="curve"/>
      <point x="631" y="-258" type="line" smooth="yes"/>
      <point x="633" y="-193"/>
      <point x="641" y="-178"/>
      <point x="700" y="-178" type="curve" smooth="yes"/>
      <point x="821" y="-178" type="line" smooth="yes"/>
      <point x="926" y="-178"/>
      <point x="1018" y="-130"/>
      <point x="1018" y="16" type="curve" smooth="yes"/>
      <point x="1018" y="148"/>
      <point x="927" y="204"/>
      <point x="817" y="204" type="curve" smooth="yes"/>
      <point x="817" y="164" type="line"/>
      <point x="883" y="164"/>
      <point x="978" y="140"/>
      <point x="978" y="16" type="curve" smooth="yes"/>
      <point x="978" y="-121"/>
      <point x="883" y="-138"/>
      <point x="821" y="-138" type="curve" smooth="yes"/>
      <point x="703" y="-138" type="line" smooth="yes"/>
      <point x="625" y="-138"/>
      <point x="591" y="-165"/>
    </contour>
    <contour>
      <point x="529" y="69" type="curve" smooth="yes"/>
      <point x="529" y="128"/>
      <point x="569" y="193"/>
      <point x="655" y="193" type="curve"/>
      <point x="655" y="153" type="line" smooth="yes"/>
      <point x="629" y="153"/>
      <point x="569" y="139"/>
      <point x="569" y="65" type="curve" smooth="yes"/>
      <point x="569" y="-12"/>
      <point x="640" y="-21"/>
      <point x="654" y="-21" type="curve" smooth="yes"/>
      <point x="691" y="-21"/>
      <point x="751" y="-7"/>
      <point x="751" y="100" type="curve" smooth="yes"/>
      <point x="751" y="350" type="line"/>
      <point x="791" y="350" type="line"/>
      <point x="791" y="96" type="line" smooth="yes"/>
      <point x="791" y="6"/>
      <point x="747" y="-61"/>
      <point x="655" y="-61" type="curve" smooth="yes"/>
      <point x="577" y="-61"/>
      <point x="529" y="-3"/>
    </contour>
    <contour>
      <point x="500" y="331" type="line"/>
      <point x="500" y="371" type="line"/>
      <point x="919" y="371" type="line"/>
      <point x="919" y="331" type="line"/>
    </contour>
    <component base="tml_Ca"/>
  </outline>
</glyph>
<glyph name="tml_Month" format="1">
  <advance width="1003"/>
  <unicode hex="0BF4"/>
  <outline>
    <contour>
      <point x="982" y="644" type="line"/>
      <point x="889" y="644"/>
      <point x="862" y="678"/>
      <point x="862" y="756" type="curve" smooth="yes"/>
      <point x="862" y="874" type="line" smooth="yes"/>
      <point x="862" y="936"/>
      <point x="845" y="1031"/>
      <point x="708" y="1031" type="curve" smooth="yes"/>
      <point x="584" y="1031"/>
      <point x="560" y="936"/>
      <point x="560" y="870" type="curve"/>
      <point x="520" y="870" type="line" smooth="yes"/>
      <point x="520" y="980"/>
      <point x="576" y="1071"/>
      <point x="708" y="1071" type="curve" smooth="yes"/>
      <point x="854" y="1071"/>
      <point x="902" y="979"/>
      <point x="902" y="874" type="curve" smooth="yes"/>
      <point x="902" y="753" type="line" smooth="yes"/>
      <point x="902" y="694"/>
      <point x="917" y="686"/>
      <point x="982" y="684" type="curve" smooth="yes"/>
    </contour>
    <contour>
      <point x="785" y="708" type="curve" smooth="yes"/>
      <point x="785" y="630"/>
      <point x="727" y="582"/>
      <point x="655" y="582" type="curve" smooth="yes"/>
      <point x="596" y="582"/>
      <point x="531" y="622"/>
      <point x="531" y="708" type="curve"/>
      <point x="571" y="708" type="line" smooth="yes"/>
      <point x="571" y="682"/>
      <point x="585" y="622"/>
      <point x="659" y="622" type="curve" smooth="yes"/>
      <point x="736" y="622"/>
      <point x="745" y="693"/>
      <point x="745" y="707" type="curve" smooth="yes"/>
      <point x="745" y="744"/>
      <point x="731" y="804"/>
      <point x="624" y="804" type="curve" smooth="yes"/>
      <point x="374" y="804" type="line"/>
      <point x="374" y="844" type="line"/>
      <point x="628" y="844" type="line" smooth="yes"/>
      <point x="718" y="844"/>
      <point x="785" y="800"/>
    </contour>
    <contour>
      <point x="332" y="598" type="curve" smooth="yes"/>
      <point x="325" y="572" type="line" smooth="yes"/>
      <point x="244.775" y="572"/>
      <point x="140" y="816"/>
      <point x="349" y="843" type="curve"/>
      <point x="349" y="804" type="line" smooth="yes"/>
      <point x="228" y="768"/>
      <point x="272" y="663"/>
    </contour>
    <contour>
      <point x="245" y="39" type="line" smooth="yes"/>
      <point x="245" y="434" type="line" smooth="yes"/>
      <point x="244.139" y="567"/>
      <point x="307.015" y="605"/>
      <point x="363" y="605" type="curve"/>
      <point x="363" y="565" type="line"/>
      <point x="279.371" y="565"/>
      <point x="285" y="443"/>
      <point x="285" y="434" type="curve" smooth="yes"/>
      <point x="285" y="39" type="line"/>
    </contour>
    <contour>
      <point x="417" y="0" type="curve" smooth="yes"/>
      <point x="417" y="40" type="line"/>
      <point x="499.32" y="40"/>
      <point x="501" y="165"/>
      <point x="501" y="196" type="curve" smooth="yes"/>
      <point x="501" y="434" type="line" smooth="yes"/>
      <point x="501" y="442"/>
      <point x="506.88" y="565"/>
      <point x="417" y="565" type="curve"/>
      <point x="417" y="605" type="line"/>
      <point x="475.457" y="605"/>
      <point x="541" y="569"/>
      <point x="541" y="434" type="curve" smooth="yes"/>
      <point x="541" y="197" type="line" smooth="yes"/>
      <point x="541" y="48"/>
      <point x="480.771" y="0"/>
    </contour>
    <contour>
      <point x="39" y="0" type="line"/>
      <point x="39" y="40" type="line"/>
      <point x="363" y="40" type="line"/>
      <point x="363" y="0" type="line"/>
    </contour>
    <contour>
      <point x="39" y="24" type="line"/>
      <point x="39" y="595" type="line"/>
      <point x="79" y="595" type="line"/>
      <point x="79" y="24" type="line"/>
    </contour>
  </outline>
</glyph>
<glyph name="tml_Year" format="1">
  <advance width="1689"/>
  <unicode hex="0BF5"/>
  <outline>
    <contour>
      <point x="79" y="36" type="curve" smooth="yes"/>
      <point x="79" y="562" type="line" smooth="yes"/>
      <point x="79" y="696.417"/>
      <point x="170.085" y="736"/>
      <point x="238" y="736" type="curve"/>
      <point x="726" y="736" type="line"/>
      <point x="726" y="696" type="line"/>
      <point x="239" y="696" type="line"/>
      <point x="171.5" y="696"/>
      <point x="119" y="654.206"/>
      <point x="119" y="558" type="curve" smooth="yes"/>
      <point x="119" y="35" type="line" smooth="yes"/>
      <point x="119" y="-77.4458"/>
      <point x="174.615" y="-118"/>
      <point x="240" y="-118" type="curve" smooth="yes"/>
      <point x="726" y="-118" type="line"/>
      <point x="726" y="-158" type="line"/>
      <point x="233" y="-158" type="line" smooth="yes"/>
      <point x="146.474" y="-158"/>
      <point x="79" y="-94.2705"/>
    </contour>
    <contour>
      <point x="490" y="565" type="curve"/>
      <point x="490" y="605" type="line"/>
      <point x="652" y="605"/>
      <point x="706" y="466"/>
      <point x="707" y="355" type="curve"/>
      <point x="707" y="40" type="line"/>
      <point x="832" y="40" type="line"/>
      <point x="832" y="0" type="line"/>
      <point x="593" y="0" type="line"/>
      <point x="593" y="40" type="line"/>
      <point x="660" y="40"/>
      <point x="666" y="40"/>
      <point x="666" y="76" type="curve" smooth="yes"/>
      <point x="666" y="354" type="line"/>
      <point x="665" y="473"/>
      <point x="607" y="565"/>
    </contour>
    <contour>
      <point x="779" y="-118" type="line"/>
      <point x="1251" y="-118" type="line" smooth="yes"/>
      <point x="1308.39" y="-118"/>
      <point x="1350.76" y="-85"/>
      <point x="1350.76" y="1" type="curve" smooth="yes"/>
      <point x="1350.76" y="116" type="line" smooth="yes"/>
      <point x="1350.76" y="196"/>
      <point x="1289.95" y="226"/>
      <point x="1265" y="226" type="curve"/>
      <point x="1265" y="266" type="line"/>
      <point x="1312.63" y="260"/>
      <point x="1391" y="223"/>
      <point x="1391" y="115" type="curve" smooth="yes"/>
      <point x="1391" y="4" type="line" smooth="yes"/>
      <point x="1391" y="-90"/>
      <point x="1345.66" y="-158"/>
      <point x="1252" y="-158" type="curve" smooth="yes"/>
      <point x="779" y="-158" type="line"/>
    </contour>
    <contour>
      <point x="216" y="172" type="curve" smooth="yes"/>
      <point x="216" y="196" type="line" smooth="yes"/>
      <point x="216" y="300"/>
      <point x="292" y="359"/>
      <point x="368" y="359" type="curve"/>
      <point x="368" y="319" type="line" smooth="yes"/>
      <point x="330.616" y="319"/>
      <point x="255" y="295"/>
      <point x="255" y="181" type="curve" smooth="yes"/>
      <point x="255" y="91"/>
      <point x="317.872" y="40"/>
      <point x="368" y="40" type="curve"/>
      <point x="368" y="0" type="line" smooth="yes"/>
      <point x="279.628" y="0"/>
      <point x="216" y="88"/>
    </contour>
    <contour>
      <point x="423" y="0" type="curve"/>
      <point x="423" y="40" type="line"/>
      <point x="467.449" y="40"/>
      <point x="517" y="88"/>
      <point x="517" y="182.617" type="curve" smooth="yes"/>
      <point x="517" y="282"/>
      <point x="465.264" y="319"/>
      <point x="423" y="319" type="curve"/>
      <point x="423" y="359" type="line" smooth="yes"/>
      <point x="496.184" y="359"/>
      <point x="559" y="292"/>
      <point x="559" y="196" type="curve" smooth="yes"/>
      <point x="559" y="173" type="line" smooth="yes"/>
      <point x="559.805" y="75"/>
      <point x="495.207" y="0"/>
    </contour>
    <contour>
      <point x="779" y="696" type="line" smooth="yes"/>
      <point x="779" y="736" type="line"/>
      <point x="1236" y="736" type="line" smooth="yes"/>
      <point x="1432" y="736"/>
      <point x="1403" y="561.484"/>
      <point x="1454" y="517" type="curve"/>
      <point x="1412" y="517" type="line"/>
      <point x="1362" y="562.579"/>
      <point x="1389" y="696"/>
      <point x="1238" y="696" type="curve" smooth="yes"/>
    </contour>
    <contour>
      <point x="216" y="204" type="line"/>
      <point x="216" y="302" type="line"/>
      <point x="216" y="468.761"/>
      <point x="301.239" y="605"/>
      <point x="439" y="605" type="curve"/>
      <point x="439" y="565" type="line"/>
      <point x="324.521" y="565"/>
      <point x="257.671" y="443.391"/>
      <point x="256" y="306" type="curve" smooth="yes"/>
    </contour>
    <contour>
      <point x="887" y="0" type="line"/>
      <point x="887" y="592" type="line"/>
      <point x="927" y="593" type="line"/>
      <point x="927" y="0" type="line"/>
    </contour>
    <contour>
      <point x="887" y="555" type="line"/>
      <point x="887" y="595" type="line"/>
      <point x="1022" y="595" type="line"/>
      <point x="1022" y="555" type="line"/>
    </contour>
    <contour>
      <point x="1170" y="0" type="line"/>
      <point x="1170" y="593" type="line"/>
      <point x="1210" y="593" type="line"/>
      <point x="1210" y="0" type="line"/>
    </contour>
    <contour>
      <point x="1075" y="555" type="line"/>
      <point x="1075" y="595" type="line"/>
      <point x="1294" y="595" type="line"/>
      <point x="1294" y="555" type="line"/>
    </contour>
  </outline>
</glyph>
<glyph name="tml_Debit" format="1">
  <advance width="589"/>
  <unicode hex="0BF6"/>
  <outline>
    <contour>
      <point x="216" y="-218" type="line"/>
      <point x="275.125" y="-218"/>
      <point x="304" y="-185"/>
      <point x="304" y="-103" type="curve" smooth="yes"/>
      <point x="304" y="21" type="line"/>
      <point x="304" y="239" type="line"/>
      <point x="344" y="239" type="line" smooth="yes"/>
      <point x="344" y="18" type="line" smooth="yes"/>
      <point x="344" y="-81" type="line" smooth="yes"/>
      <point x="344" y="-159"/>
      <point x="335.619" y="-258"/>
      <point x="216" y="-258" type="curve"/>
    </contour>
    <contour>
      <point x="40" y="-150" type="line" smooth="yes"/>
      <point x="40" y="-98.9131"/>
      <point x="78.2256" y="-56"/>
      <point x="151" y="-56" type="curve" smooth="yes"/>
      <point x="509" y="-56" type="line"/>
      <point x="509" y="381" type="line" smooth="yes"/>
      <point x="549" y="381" type="line" smooth="yes"/>
      <point x="549" y="-95" type="line"/>
      <point x="151" y="-95" type="line" smooth="yes"/>
      <point x="56" y="-95"/>
      <point x="57" y="-218"/>
      <point x="150" y="-218" type="curve" smooth="yes"/>
      <point x="163" y="-218" type="line"/>
      <point x="163" y="-258" type="line"/>
      <point x="150" y="-258" type="line" smooth="yes"/>
      <point x="114.066" y="-258"/>
      <point x="40.7334" y="-238"/>
      <point x="40" y="-156" type="curve" smooth="yes"/>
    </contour>
    <contour>
      <point x="49" y="146" type="curve" smooth="yes"/>
      <point x="49" y="595" type="line"/>
      <point x="89" y="595" type="line"/>
      <point x="89" y="146" type="line" smooth="yes"/>
      <point x="89" y="65"/>
      <point x="130.544" y="40"/>
      <point x="163" y="40" type="curve"/>
      <point x="163" y="0" type="line"/>
      <point x="88.9736" y="0"/>
      <point x="49" y="68"/>
    </contour>
    <contour>
      <point x="217" y="0" type="curve"/>
      <point x="217" y="40" type="line"/>
      <point x="259.244" y="40"/>
      <point x="304" y="44.7842"/>
      <point x="304" y="162" type="curve" smooth="yes"/>
      <point x="304" y="487" type="line"/>
      <point x="344" y="487" type="line"/>
      <point x="344" y="162" type="line" smooth="yes"/>
      <point x="344" y="-14.8311"/>
      <point x="255.245" y="0"/>
    </contour>
  </outline>
</glyph>
<glyph name="tml_Credit" format="1">
  <advance width="1026"/>
  <unicode hex="0BF7"/>
  <outline>
    <contour>
      <point x="750" y="306" type="curve"/>
      <point x="750" y="336" type="line"/>
      <point x="834.829" y="336"/>
      <point x="860.098" y="259"/>
      <point x="861" y="197" type="curve"/>
      <point x="861" y="31" type="line"/>
      <point x="927" y="31" type="line"/>
      <point x="927" y="1" type="line"/>
      <point x="795" y="1" type="line"/>
      <point x="795" y="31" type="line"/>
      <point x="799" y="32"/>
      <point x="831" y="33"/>
      <point x="831" y="43" type="curve" smooth="yes"/>
      <point x="831" y="197" type="line"/>
      <point x="830.129" y="235"/>
      <point x="817.936" y="306"/>
    </contour>
    <contour>
      <point x="40" y="172" type="curve" smooth="yes"/>
      <point x="40" y="196" type="line" smooth="yes"/>
      <point x="40" y="300"/>
      <point x="116" y="359"/>
      <point x="192" y="359" type="curve"/>
      <point x="192" y="319" type="line" smooth="yes"/>
      <point x="154.616" y="319"/>
      <point x="79" y="295"/>
      <point x="79" y="181" type="curve" smooth="yes"/>
      <point x="79" y="91"/>
      <point x="141.872" y="40"/>
      <point x="192" y="40" type="curve"/>
      <point x="192" y="0" type="line" smooth="yes"/>
      <point x="103.628" y="0"/>
      <point x="40" y="88"/>
    </contour>
    <contour>
      <point x="247" y="0" type="curve"/>
      <point x="247" y="40" type="line"/>
      <point x="291.449" y="40"/>
      <point x="341" y="88"/>
      <point x="341" y="182.617" type="curve" smooth="yes"/>
      <point x="341" y="282"/>
      <point x="289.264" y="319"/>
      <point x="247" y="319" type="curve"/>
      <point x="247" y="359" type="line" smooth="yes"/>
      <point x="320.184" y="359"/>
      <point x="383" y="292"/>
      <point x="383" y="196" type="curve" smooth="yes"/>
      <point x="383" y="173" type="line" smooth="yes"/>
      <point x="383.805" y="75"/>
      <point x="319.207" y="0"/>
    </contour>
    <contour>
      <point x="592" y="84" type="curve" smooth="yes"/>
      <point x="592" y="122" type="line" smooth="yes"/>
      <point x="592" y="180"/>
      <point x="648.421" y="200"/>
      <point x="672" y="200" type="curve"/>
      <point x="672" y="170" type="line" smooth="yes"/>
      <point x="659.692" y="170"/>
      <point x="622" y="158"/>
      <point x="622" y="100" type="curve" smooth="yes"/>
      <point x="622" y="43"/>
      <point x="658.154" y="30"/>
      <point x="672" y="30" type="curve"/>
      <point x="672" y="0" type="line" smooth="yes"/>
      <point x="624.842" y="0"/>
      <point x="592" y="51"/>
    </contour>
    <contour>
      <point x="703" y="0" type="curve"/>
      <point x="703" y="30" type="line"/>
      <point x="717.571" y="30"/>
      <point x="754" y="41"/>
      <point x="754" y="100" type="curve" smooth="yes"/>
      <point x="754" y="156"/>
      <point x="716.762" y="170"/>
      <point x="703" y="170" type="curve"/>
      <point x="703" y="200" type="line" smooth="yes"/>
      <point x="749.161" y="200"/>
      <point x="784" y="153"/>
      <point x="784" y="110" type="curve" smooth="yes"/>
      <point x="784" y="92" type="line" smooth="yes"/>
      <point x="784" y="51"/>
      <point x="755.258" y="0"/>
    </contour>
    <contour>
      <point x="40" y="204" type="line"/>
      <point x="40" y="302" type="line"/>
      <point x="40" y="464.357"/>
      <point x="126.769" y="597"/>
      <point x="267" y="597" type="curve"/>
      <point x="267" y="557" type="line"/>
      <point x="150.019" y="557"/>
      <point x="81.708" y="439.146"/>
      <point x="80" y="306" type="curve" smooth="yes"/>
    </contour>
    <contour>
      <point x="592" y="125" type="line"/>
      <point x="592" y="169" type="line"/>
      <point x="592" y="240"/>
      <point x="617.083" y="336"/>
      <point x="721" y="336" type="curve"/>
      <point x="721" y="306" type="line"/>
      <point x="688.044" y="306"/>
      <point x="623.867" y="285"/>
      <point x="623" y="176" type="curve" smooth="yes"/>
    </contour>
    <contour>
      <point x="485.991" y="0" type="line"/>
      <point x="485.991" y="577" type="line"/>
      <point x="525.991" y="577" type="line"/>
      <point x="525.991" y="0" type="line"/>
    </contour>
    <contour>
      <point x="321.991" y="555" type="line"/>
      <point x="321.991" y="595" type="line"/>
      <point x="626.991" y="595" type="line"/>
      <point x="626.991" y="555" type="line"/>
    </contour>
    <contour>
      <point x="521" y="150" type="line"/>
      <point x="521" y="180" type="line"/>
      <point x="622" y="180" type="line"/>
      <point x="622" y="150" type="line"/>
    </contour>
    <contour>
      <point x="957" y="1" type="line"/>
      <point x="957" y="330" type="line"/>
      <point x="986" y="330" type="line"/>
      <point x="986" y="1" type="line"/>
    </contour>
  </outline>
</glyph>
<glyph name="tml_Above" format="1">
  <advance width="1434"/>
  <unicode hex="0BF8"/>
  <outline>
    <contour>
      <point x="189" y="94" type="curve"/>
      <point x="189" y="134" type="line" smooth="yes"/>
      <point x="254" y="134"/>
      <point x="304" y="62"/>
      <point x="304" y="6" type="curve" smooth="yes"/>
      <point x="304" y="-15" type="line" smooth="yes"/>
      <point x="304" y="-82"/>
      <point x="259" y="-148"/>
      <point x="189" y="-148" type="curve"/>
      <point x="189" y="-108" type="line" smooth="yes"/>
      <point x="201.245" y="-108"/>
      <point x="264" y="-99"/>
      <point x="264" y="-6" type="curve" smooth="yes"/>
      <point x="264" y="75"/>
      <point x="205.071" y="94"/>
    </contour>
    <contour>
      <point x="40" y="7" type="line" smooth="yes"/>
      <point x="40" y="69"/>
      <point x="95.5107" y="134"/>
      <point x="157" y="134" type="curve"/>
      <point x="157" y="94" type="line" smooth="yes"/>
      <point x="145.093" y="94"/>
      <point x="80" y="78"/>
      <point x="80" y="-6" type="curve" smooth="yes"/>
      <point x="80" y="-88"/>
      <point x="142.711" y="-108"/>
      <point x="157" y="-108" type="curve"/>
      <point x="157" y="-148" type="line" smooth="yes"/>
      <point x="97.2188" y="-148"/>
      <point x="40" y="-85"/>
      <point x="40" y="-13" type="curve" smooth="yes"/>
    </contour>
    <contour>
      <point x="40" y="-5" type="line" smooth="yes"/>
      <point x="40" y="142" type="line" smooth="yes"/>
      <point x="40" y="311"/>
      <point x="180.065" y="359"/>
      <point x="303" y="359" type="curve" smooth="yes"/>
      <point x="474" y="359" type="line"/>
      <point x="474" y="319" type="line"/>
      <point x="303" y="319" type="line" smooth="yes"/>
      <point x="139.534" y="319"/>
      <point x="80" y="239"/>
      <point x="80" y="141" type="curve" smooth="yes"/>
      <point x="80" y="-6" type="line" smooth="yes"/>
    </contour>
    <component base="tml_Ssa" xOffset="262"/>
  </outline>
</glyph>
<glyph name="tml_Rupee" format="1">
  <advance width="1017"/>
  <unicode hex="0BF9"/>
  <outline>
    <contour>
      <point x="360" y="909" type="curve"/>
      <point x="360" y="870" type="line" smooth="yes"/>
      <point x="239" y="834"/>
      <point x="283" y="729"/>
      <point x="343" y="664" type="curve" smooth="yes"/>
      <point x="336" y="638" type="line" smooth="yes"/>
      <point x="255.775" y="638"/>
      <point x="151" y="882"/>
    </contour>
    <contour>
      <point x="796" y="774" type="curve" smooth="yes"/>
      <point x="796" y="696"/>
      <point x="738" y="648"/>
      <point x="666" y="648" type="curve" smooth="yes"/>
      <point x="607" y="648"/>
      <point x="542" y="688"/>
      <point x="542" y="774" type="curve"/>
      <point x="582" y="774" type="line" smooth="yes"/>
      <point x="582" y="748"/>
      <point x="596" y="688"/>
      <point x="670" y="688" type="curve" smooth="yes"/>
      <point x="747" y="688"/>
      <point x="756" y="759"/>
      <point x="756" y="773" type="curve" smooth="yes"/>
      <point x="756" y="810"/>
      <point x="742" y="870"/>
      <point x="635" y="870" type="curve" smooth="yes"/>
      <point x="385" y="870" type="line"/>
      <point x="385" y="910" type="line"/>
      <point x="639" y="910" type="line" smooth="yes"/>
      <point x="729" y="910"/>
      <point x="796" y="866"/>
    </contour>
    <contour>
      <point x="993" y="710" type="line"/>
      <point x="900" y="710"/>
      <point x="873" y="744"/>
      <point x="873" y="822" type="curve" smooth="yes"/>
      <point x="873" y="940" type="line" smooth="yes"/>
      <point x="873" y="1002"/>
      <point x="856" y="1097"/>
      <point x="719" y="1097" type="curve" smooth="yes"/>
      <point x="595" y="1097"/>
      <point x="571" y="1002"/>
      <point x="571" y="936" type="curve"/>
      <point x="531" y="936" type="line" smooth="yes"/>
      <point x="531" y="1046"/>
      <point x="587" y="1137"/>
      <point x="719" y="1137" type="curve" smooth="yes"/>
      <point x="865" y="1137"/>
      <point x="913" y="1045"/>
      <point x="913" y="940" type="curve" smooth="yes"/>
      <point x="913" y="819" type="line" smooth="yes"/>
      <point x="913" y="760"/>
      <point x="928" y="752"/>
      <point x="993" y="750" type="curve" smooth="yes"/>
    </contour>
    <contour>
      <point x="484" y="544" type="line"/>
      <point x="484" y="595" type="line"/>
      <point x="713" y="595" type="line"/>
      <point x="713" y="544" type="line"/>
    </contour>
    <contour>
      <point x="484" y="-137" type="line"/>
      <point x="641" y="-137" type="line" smooth="yes"/>
      <point x="714" y="-137"/>
      <point x="778" y="-78"/>
      <point x="778" y="-15" type="curve" smooth="yes"/>
      <point x="778" y="222" type="line" smooth="yes"/>
      <point x="778" y="319"/>
      <point x="676" y="332"/>
      <point x="655" y="332" type="curve"/>
      <point x="655" y="372" type="line"/>
      <point x="716" y="366"/>
      <point x="818" y="339"/>
      <point x="818" y="221" type="curve" smooth="yes"/>
      <point x="818" y="-15" type="line" smooth="yes"/>
      <point x="818" y="-84"/>
      <point x="758" y="-177"/>
      <point x="632" y="-177" type="curve" smooth="yes"/>
      <point x="484" y="-177" type="line"/>
    </contour>
    <contour>
      <point x="40" y="30" type="curve" smooth="yes"/>
      <point x="40" y="534" type="line" smooth="yes"/>
      <point x="40" y="660"/>
      <point x="108.764" y="675"/>
      <point x="210" y="675" type="curve" smooth="yes"/>
      <point x="345" y="675" type="line" smooth="yes"/>
      <point x="346" y="635" type="line" smooth="yes"/>
      <point x="208" y="635" type="line" smooth="yes"/>
      <point x="123.912" y="635"/>
      <point x="80" y="627"/>
      <point x="80" y="533" type="curve" smooth="yes"/>
      <point x="80" y="29" type="line" smooth="yes"/>
      <point x="81.6377" y="-83"/>
      <point x="143.607" y="-137"/>
      <point x="242" y="-137" type="curve" smooth="yes"/>
      <point x="430" y="-137" type="line"/>
      <point x="430" y="-177" type="line"/>
      <point x="234" y="-177" type="line" smooth="yes"/>
      <point x="125" y="-177"/>
      <point x="40" y="-109"/>
    </contour>
    <contour>
      <point x="559" y="0" type="line"/>
      <point x="559" y="590" type="line"/>
      <point x="602" y="591" type="line"/>
      <point x="600" y="1" type="line"/>
    </contour>
    <contour>
      <point x="277" y="1" type="line"/>
      <point x="277" y="595" type="line"/>
      <point x="323" y="594" type="line"/>
      <point x="323" y="0" type="line"/>
    </contour>
    <contour>
      <point x="279" y="544" type="line"/>
      <point x="279" y="595" type="line"/>
      <point x="431" y="595" type="line"/>
      <point x="431" y="544" type="line"/>
    </contour>
  </outline>
</glyph>
<glyph name="tml_Number" format="1">
  <advance width="775"/>
  <unicode hex="0BFA"/>
  <outline>
    <contour>
      <point x="497" y="690.43" type="curve" smooth="yes"/>
      <point x="509.941" y="697.601"/>
      <point x="520.414" y="710.896"/>
      <point x="523" y="729" type="curve" smooth="yes"/>
      <point x="530.571" y="782"/>
      <point x="461" y="804.876"/>
      <point x="408" y="756" type="curve" smooth="yes"/>
      <point x="397" y="745.856"/>
      <point x="375" y="708"/>
      <point x="375" y="585" type="curve"/>
      <point x="335" y="585" type="line" smooth="yes"/>
      <point x="335" y="750"/>
      <point x="379" y="824"/>
      <point x="463" y="824" type="curve" smooth="yes"/>
      <point x="524" y="824"/>
      <point x="563" y="796"/>
      <point x="563" y="729" type="curve" smooth="yes"/>
      <point x="563" y="662"/>
      <point x="497" y="648.294" type="line"/>
      <point x="497" y="690"/>
    </contour>
    <contour>
      <point x="458" y="687.741" type="curve" smooth="yes"/>
      <point x="459" y="687"/>
      <point x="458" y="645.811" type="line"/>
      <point x="393" y="653"/>
      <point x="393" y="734" type="curve" smooth="yes"/>
      <point x="393" y="823"/>
      <point x="456" y="891"/>
      <point x="524" y="891" type="curve" smooth="yes"/>
      <point x="597" y="891"/>
      <point x="654" y="845"/>
      <point x="654" y="705" type="curve" smooth="yes"/>
      <point x="752" y="705" type="line" smooth="yes"/>
      <point x="752" y="665" type="line" smooth="yes"/>
      <point x="613" y="665" type="line"/>
      <point x="619" y="733"/>
      <point x="618" y="851"/>
      <point x="523" y="851" type="curve" smooth="yes"/>
      <point x="452" y="851"/>
      <point x="433.51" y="763.995"/>
      <point x="433" y="738" type="curve" smooth="yes"/>
      <point x="432.457" y="710.331"/>
      <point x="443.476" y="694.23"/>
    </contour>
    <component base="tml_Na" xOffset="-37"/>
  </outline>
</glyph>
<glyph name="dottedcircle" format="1">
  <advance width="636"/>
  <unicode hex="25CC"/>
  <outline>
    <contour>
      <point x="167.958" y="483.58" type="curve" smooth="yes"/>
      <point x="167.958" y="502.58"/>
      <point x="182.958" y="517.58"/>
      <point x="201.958" y="517.58" type="curve" smooth="yes"/>
      <point x="220.958" y="517.58"/>
      <point x="235.958" y="502.58"/>
      <point x="235.958" y="483.58" type="curve" smooth="yes"/>
      <point x="235.958" y="464.58"/>
      <point x="220.958" y="449.58"/>
      <point x="201.958" y="449.58" type="curve" smooth="yes"/>
      <point x="182.958" y="449.58"/>
      <point x="167.958" y="464.58"/>
    </contour>
    <contour>
      <point x="82.4199" y="398.042" type="curve" smooth="yes"/>
      <point x="82.4199" y="417.042"/>
      <point x="97.4199" y="432.042"/>
      <point x="116.42" y="432.042" type="curve" smooth="yes"/>
      <point x="135.42" y="432.042"/>
      <point x="150.42" y="417.042"/>
      <point x="150.42" y="398.042" type="curve" smooth="yes"/>
      <point x="150.42" y="379.042"/>
      <point x="135.42" y="364.042"/>
      <point x="116.42" y="364.042" type="curve" smooth="yes"/>
      <point x="97.4199" y="364.042"/>
      <point x="82.4199" y="379.042"/>
    </contour>
    <contour>
      <point x="167.958" y="72.4199" type="curve" smooth="yes"/>
      <point x="167.958" y="91.4199"/>
      <point x="182.958" y="106.42"/>
      <point x="201.958" y="106.42" type="curve" smooth="yes"/>
      <point x="220.958" y="106.42"/>
      <point x="235.958" y="91.4199"/>
      <point x="235.958" y="72.4199" type="curve" smooth="yes"/>
      <point x="235.958" y="53.4199"/>
      <point x="220.958" y="38.4199"/>
      <point x="201.958" y="38.4199" type="curve" smooth="yes"/>
      <point x="182.958" y="38.4199"/>
      <point x="167.958" y="53.4199"/>
    </contour>
    <contour>
      <point x="82.4199" y="157.958" type="curve" smooth="yes"/>
      <point x="82.4199" y="176.958"/>
      <point x="97.4199" y="191.958"/>
      <point x="116.42" y="191.958" type="curve" smooth="yes"/>
      <point x="135.42" y="191.958"/>
      <point x="150.42" y="176.958"/>
      <point x="150.42" y="157.958" type="curve" smooth="yes"/>
      <point x="150.42" y="138.958"/>
      <point x="135.42" y="123.958"/>
      <point x="116.42" y="123.958" type="curve" smooth="yes"/>
      <point x="97.4199" y="123.958"/>
      <point x="82.4199" y="138.958"/>
    </contour>
    <contour>
      <point x="408.042" y="72.4199" type="curve" smooth="yes"/>
      <point x="408.042" y="91.4199"/>
      <point x="423.042" y="106.42"/>
      <point x="442.042" y="106.42" type="curve" smooth="yes"/>
      <point x="461.042" y="106.42"/>
      <point x="476.042" y="91.4199"/>
      <point x="476.042" y="72.4199" type="curve" smooth="yes"/>
      <point x="476.042" y="53.4199"/>
      <point x="461.042" y="38.4199"/>
      <point x="442.042" y="38.4199" type="curve" smooth="yes"/>
      <point x="423.042" y="38.4199"/>
      <point x="408.042" y="53.4199"/>
    </contour>
    <contour>
      <point x="493.58" y="157.958" type="curve" smooth="yes"/>
      <point x="493.58" y="176.958"/>
      <point x="508.58" y="191.958"/>
      <point x="527.58" y="191.958" type="curve" smooth="yes"/>
      <point x="546.58" y="191.958"/>
      <point x="561.58" y="176.958"/>
      <point x="561.58" y="157.958" type="curve" smooth="yes"/>
      <point x="561.58" y="138.958"/>
      <point x="546.58" y="123.958"/>
      <point x="527.58" y="123.958" type="curve" smooth="yes"/>
      <point x="508.58" y="123.958"/>
      <point x="493.58" y="138.958"/>
    </contour>
    <contour>
      <point x="493.58" y="398.042" type="curve" smooth="yes"/>
      <point x="493.58" y="417.042"/>
      <point x="508.58" y="432.042"/>
      <point x="527.58" y="432.042" type="curve" smooth="yes"/>
      <point x="546.58" y="432.042"/>
      <point x="561.58" y="417.042"/>
      <point x="561.58" y="398.042" type="curve" smooth="yes"/>
      <point x="561.58" y="379.042"/>
      <point x="546.58" y="364.042"/>
      <point x="527.58" y="364.042" type="curve" smooth="yes"/>
      <point x="508.58" y="364.042"/>
      <point x="493.58" y="379.042"/>
    </contour>
    <contour>
      <point x="408.042" y="483.58" type="curve" smooth="yes"/>
      <point x="408.042" y="502.58"/>
      <point x="423.042" y="517.58"/>
      <point x="442.042" y="517.58" type="curve" smooth="yes"/>
      <point x="461.042" y="517.58"/>
      <point x="476.042" y="502.58"/>
      <point x="476.042" y="483.58" type="curve" smooth="yes"/>
      <point x="476.042" y="464.58"/>
      <point x="461.042" y="449.58"/>
      <point x="442.042" y="449.58" type="curve" smooth="yes"/>
      <point x="423.042" y="449.58"/>
      <point x="408.042" y="464.58"/>
    </contour>
    <contour>
      <point x="526" y="278" type="curve" smooth="yes"/>
      <point x="526" y="297"/>
      <point x="541" y="312"/>
      <point x="560" y="312" type="curve" smooth="yes"/>
      <point x="579" y="312"/>
      <point x="594" y="297"/>
      <point x="594" y="278" type="curve" smooth="yes"/>
      <point x="594" y="259"/>
      <point x="579" y="244"/>
      <point x="560" y="244" type="curve" smooth="yes"/>
      <point x="541" y="244"/>
      <point x="526" y="259"/>
    </contour>
    <contour>
      <point x="288" y="40" type="curve" smooth="yes"/>
      <point x="288" y="59"/>
      <point x="303" y="74"/>
      <point x="322" y="74" type="curve" smooth="yes"/>
      <point x="341" y="74"/>
      <point x="356" y="59"/>
      <point x="356" y="40" type="curve" smooth="yes"/>
      <point x="356" y="21"/>
      <point x="341" y="6"/>
      <point x="322" y="6" type="curve" smooth="yes"/>
      <point x="303" y="6"/>
      <point x="288" y="21"/>
    </contour>
    <contour>
      <point x="50" y="278" type="curve" smooth="yes"/>
      <point x="50" y="297"/>
      <point x="65" y="312"/>
      <point x="84" y="312" type="curve" smooth="yes"/>
      <point x="103" y="312"/>
      <point x="118" y="297"/>
      <point x="118" y="278" type="curve" smooth="yes"/>
      <point x="118" y="259"/>
      <point x="103" y="244"/>
      <point x="84" y="244" type="curve" smooth="yes"/>
      <point x="65" y="244"/>
      <point x="50" y="259"/>
    </contour>
    <contour>
      <point x="288" y="516" type="curve" smooth="yes"/>
      <point x="288" y="535"/>
      <point x="303" y="550"/>
      <point x="322" y="550" type="curve" smooth="yes"/>
      <point x="341" y="550"/>
      <point x="356" y="535"/>
      <point x="356" y="516" type="curve" smooth="yes"/>
      <point x="356" y="497"/>
      <point x="341" y="482"/>
      <point x="322" y="482" type="curve" smooth="yes"/>
      <point x="303" y="482"/>
      <point x="288" y="497"/>
    </contour>
  </outline>
</glyph>
<glyph name="tml_CI.alt" format="1">
  <advance width="868"/>
  <outline>
    <contour>
      <point x="68" y="580" type="curve"/>
      <point x="68" y="580"/>
      <point x="118" y="576"/>
      <point x="119" y="576" type="curve" smooth="yes"/>
      <point x="173" y="704"/>
      <point x="303" y="770"/>
      <point x="420" y="770" type="curve"/>
      <point x="420" y="770" type="line" smooth="yes"/>
      <point x="420" y="809" type="line"/>
      <point x="420" y="809" type="line"/>
      <point x="138" y="809"/>
      <point x="68" y="580"/>
    </contour>
    <contour>
      <point x="474" y="770" type="line"/>
      <point x="576" y="770"/>
      <point x="787" y="732"/>
      <point x="787" y="445" type="curve" smooth="yes"/>
      <point x="787" y="68" type="line"/>
      <point x="828" y="68" type="line"/>
      <point x="828" y="448" type="line" smooth="yes"/>
      <point x="827" y="705"/>
      <point x="674" y="809"/>
      <point x="474" y="809" type="curve"/>
    </contour>
    <contour>
      <point x="80" y="274" type="curve"/>
      <point x="113" y="308" type="line"/>
      <point x="92" y="381"/>
      <point x="88" y="457"/>
      <point x="98" y="513" type="curve" smooth="yes"/>
      <point x="98" y="512"/>
      <point x="51" y="514"/>
      <point x="51" y="514" type="curve"/>
      <point x="51" y="514"/>
      <point x="28" y="374"/>
    </contour>
    <component base="tml_Ca"/>
  </outline>
</glyph>
<glyph name="tml_CI" format="1">
  <advance width="778"/>
  <outline>
    <contour>
      <point x="608" y="718.957" type="curve"/>
      <point x="608" y="758.957" type="line"/>
      <point x="705" y="758.957"/>
      <point x="738" y="694.957"/>
      <point x="738" y="592.957" type="curve" smooth="yes"/>
      <point x="738" y="63.957" type="line"/>
      <point x="698" y="63.957" type="line"/>
      <point x="698" y="589.957" type="line" smooth="yes"/>
      <point x="698" y="651.957"/>
      <point x="694" y="718.957"/>
    </contour>
    <contour>
      <point x="423" y="590.957" type="line"/>
      <point x="423" y="590.957" type="line"/>
      <point x="423" y="694.957"/>
      <point x="460" y="758.957"/>
      <point x="554" y="758.957" type="curve" smooth="yes"/>
      <point x="554" y="758.957" type="line"/>
      <point x="554" y="718.957" type="line" smooth="yes"/>
      <point x="554" y="718.957" type="line" smooth="yes"/>
      <point x="474" y="718.957"/>
      <point x="463" y="651.957"/>
      <point x="463" y="590.957" type="curve" smooth="yes"/>
    </contour>
    <component base="tml_Ca"/>
  </outline>
</glyph>
<glyph name="tml_CIi.alt" format="1">
  <advance width="731"/>
  <outline>
    <contour>
      <point x="369" y="861.788" type="curve" smooth="yes"/>
      <point x="303.911" y="854.482"/>
      <point x="245.563" y="838.713"/>
      <point x="213.974" y="823" type="curve" smooth="yes"/>
      <point x="80.6299" y="756.671"/>
      <point x="59.457" y="533.023"/>
      <point x="116.974" y="316" type="curve"/>
      <point x="84.9736" y="285" type="line"/>
      <point x="14.9736" y="511"/>
      <point x="32.8359" y="768.777"/>
      <point x="190.974" y="855" type="curve" smooth="yes"/>
      <point x="257" y="891"/>
      <point x="369" y="903.622"/>
      <point x="369" y="903.622" type="curve"/>
      <point x="369" y="903.622"/>
      <point x="368" y="861"/>
    </contour>
    <contour>
      <point x="424" y="865.725" type="curve" smooth="yes"/>
      <point x="425" y="865"/>
      <point x="424" y="906.542"/>
      <point x="424" y="906.542" type="curve"/>
      <point x="424" y="906.542"/>
      <point x="523" y="903"/>
      <point x="573.593" y="888.79" type="curve"/>
      <point x="657.882" y="864.126"/>
      <point x="691.84" y="806.319"/>
      <point x="691.651" y="752" type="curve" smooth="yes"/>
      <point x="691.405" y="681.328"/>
      <point x="633.358" y="616.561"/>
      <point x="553.155" y="638.375" type="curve" smooth="yes"/>
      <point x="509.732" y="650.186"/>
      <point x="484.011" y="685.162"/>
      <point x="478.468" y="710.506" type="curve"/>
      <point x="514.146" y="735" type="line" smooth="yes"/>
      <point x="509.947" y="719.562"/>
      <point x="538.678" y="683.538"/>
      <point x="562.764" y="677.515" type="curve" smooth="yes"/>
      <point x="588.765" y="671.012"/>
      <point x="633.554" y="678.688"/>
      <point x="649.038" y="735.62" type="curve" smooth="yes"/>
      <point x="662.16" y="783.867"/>
      <point x="619.062" y="834.97"/>
      <point x="564.06" y="849.93" type="curve"/>
      <point x="521.758" y="862.962"/>
      <point x="472.562" y="867.159"/>
    </contour>
    <component base="tml_Ca" xOffset="-0.000167188"/>
  </outline>
</glyph>
<glyph name="tml_CIi" format="1">
  <advance width="757"/>
  <outline>
    <contour>
      <point x="423" y="470.656" type="line"/>
      <point x="423" y="594" type="line" smooth="yes"/>
      <point x="349" y="753"/>
      <point x="444.394" y="899"/>
      <point x="580" y="899" type="curve" smooth="yes"/>
      <point x="754" y="899"/>
      <point x="763.69" y="662"/>
      <point x="601" y="662" type="curve" smooth="yes"/>
      <point x="563" y="662"/>
      <point x="529" y="689"/>
      <point x="519" y="710" type="curve"/>
      <point x="545" y="741" type="line" smooth="yes"/>
      <point x="545" y="725"/>
      <point x="579" y="702"/>
      <point x="604" y="702" type="curve" smooth="yes"/>
      <point x="627" y="702"/>
      <point x="676" y="718"/>
      <point x="676" y="777" type="curve" smooth="yes"/>
      <point x="676" y="792"/>
      <point x="668" y="859"/>
      <point x="570" y="859" type="curve"/>
      <point x="487.677" y="858.57"/>
      <point x="388" y="751"/>
      <point x="463" y="592.727" type="curve" smooth="yes"/>
      <point x="463" y="470.656" type="line"/>
    </contour>
    <component base="tml_Ca" yOffset="-0.273438"/>
  </outline>
</glyph>
<glyph name="tml_CU" format="1">
  <advance width="700"/>
  <outline>
    <contour>
      <point x="40" y="172" type="curve" smooth="yes"/>
      <point x="40" y="196" type="line" smooth="yes"/>
      <point x="40" y="259"/>
      <point x="72" y="371"/>
      <point x="246" y="371" type="curve" smooth="yes"/>
      <point x="442" y="371" type="line"/>
      <point x="442" y="331" type="line"/>
      <point x="239" y="331" type="line" smooth="yes"/>
      <point x="184" y="331"/>
      <point x="79.9854" y="313"/>
      <point x="80" y="188" type="curve" smooth="yes"/>
      <point x="80.0127" y="58"/>
      <point x="168.216" y="39"/>
      <point x="231" y="39" type="curve"/>
      <point x="231" y="-1" type="line"/>
      <point x="56.6084" y="0"/>
      <point x="40" y="128"/>
    </contour>
    <contour>
      <point x="284" y="-1" type="curve"/>
      <point x="284" y="39" type="line"/>
      <point x="366.47" y="39"/>
      <point x="405.679" y="98"/>
      <point x="406" y="187" type="curve" smooth="yes"/>
      <point x="406" y="588" type="line"/>
      <point x="446" y="588" type="line"/>
      <point x="446" y="191" type="line" smooth="yes"/>
      <point x="446" y="95"/>
      <point x="407.534" y="-1"/>
    </contour>
    <contour>
      <point x="165" y="348" type="line"/>
      <point x="165" y="586" type="line"/>
      <point x="206" y="586" type="line"/>
      <point x="205" y="348" type="line"/>
    </contour>
    <contour>
      <point x="165" y="555" type="line"/>
      <point x="165" y="595" type="line"/>
      <point x="289" y="595" type="line"/>
      <point x="289" y="555" type="line"/>
    </contour>
    <contour>
      <point x="343" y="555" type="line"/>
      <point x="343" y="595" type="line"/>
      <point x="593" y="595" type="line"/>
      <point x="593" y="555" type="line"/>
    </contour>
    <contour>
      <point x="593" y="0" type="line"/>
      <point x="593" y="340" type="line"/>
      <point x="633" y="340" type="line"/>
      <point x="633" y="0" type="line"/>
    </contour>
    <contour>
      <point x="501" y="331" type="line"/>
      <point x="501" y="371" type="line"/>
      <point x="660" y="371" type="line"/>
      <point x="660" y="331" type="line"/>
    </contour>
  </outline>
</glyph>
<glyph name="tml_CUu" format="1">
  <advance width="1149"/>
  <outline>
    <contour>
      <point x="331" y="348" type="line"/>
      <point x="331" y="586" type="line"/>
      <point x="372" y="586" type="line"/>
      <point x="371" y="348" type="line"/>
    </contour>
    <contour>
      <point x="331" y="555" type="line"/>
      <point x="331" y="595" type="line"/>
      <point x="454" y="595" type="line"/>
      <point x="454" y="555" type="line"/>
    </contour>
    <contour>
      <point x="820" y="554.727" type="line"/>
      <point x="508" y="555" type="line"/>
      <point x="508" y="595" type="line"/>
      <point x="820" y="594.727" type="line"/>
    </contour>
    <contour>
      <point x="449" y="-1" type="curve"/>
      <point x="449" y="39" type="line"/>
      <point x="543.637" y="39"/>
      <point x="588.632" y="98"/>
      <point x="589" y="187" type="curve" smooth="yes"/>
      <point x="589" y="588" type="line"/>
      <point x="629" y="588" type="line"/>
      <point x="629" y="191" type="line" smooth="yes"/>
      <point x="629" y="95"/>
      <point x="586.261" y="-1"/>
    </contour>
    <contour>
      <point x="206" y="172" type="curve" smooth="yes"/>
      <point x="206" y="196" type="line" smooth="yes"/>
      <point x="206" y="259"/>
      <point x="238" y="371"/>
      <point x="412" y="371" type="curve" smooth="yes"/>
      <point x="912" y="371" type="line"/>
      <point x="912" y="331" type="line"/>
      <point x="405" y="331" type="line" smooth="yes"/>
      <point x="350" y="331"/>
      <point x="245.985" y="313"/>
      <point x="246" y="188" type="curve" smooth="yes"/>
      <point x="246.013" y="58"/>
      <point x="333.632" y="39"/>
      <point x="396" y="39" type="curve"/>
      <point x="396" y="-1" type="line"/>
      <point x="222.521" y="0"/>
      <point x="206" y="128"/>
    </contour>
    <contour>
      <point x="812" y="0" type="line"/>
      <point x="812" y="341" type="line"/>
      <point x="852" y="341" type="line"/>
      <point x="852" y="0" type="line"/>
    </contour>
    <contour>
      <point x="604" y="-99" type="line"/>
      <point x="925" y="-99" type="line" smooth="yes"/>
      <point x="976.412" y="-99"/>
      <point x="1028" y="-62.5082"/>
      <point x="1028" y="-15" type="curve" smooth="yes"/>
      <point x="1028" y="60" type="line" smooth="yes"/>
      <point x="1028" y="159"/>
      <point x="937" y="175"/>
      <point x="905" y="175" type="curve"/>
      <point x="905" y="215" type="line"/>
      <point x="966" y="209"/>
      <point x="1068" y="182"/>
      <point x="1068" y="64" type="curve" smooth="yes"/>
      <point x="1068" y="-15" type="line" smooth="yes"/>
      <point x="1068" y="-73.284"/>
      <point x="1018.68" y="-139"/>
      <point x="926" y="-139" type="curve" smooth="yes"/>
      <point x="604" y="-139" type="line"/>
    </contour>
    <contour>
      <point x="81" y="30" type="curve" smooth="yes"/>
      <point x="81" y="273" type="line" smooth="yes"/>
      <point x="81" y="402.364"/>
      <point x="170.94" y="444"/>
      <point x="238" y="444" type="curve" smooth="yes"/>
      <point x="238" y="404" type="line" smooth="yes"/>
      <point x="180.604" y="404"/>
      <point x="121" y="369.609"/>
      <point x="121" y="268" type="curve" smooth="yes"/>
      <point x="121" y="29" type="line" smooth="yes"/>
      <point x="121" y="-61.2169"/>
      <point x="172.252" y="-99"/>
      <point x="230" y="-99" type="curve" smooth="yes"/>
      <point x="549" y="-99" type="line"/>
      <point x="549" y="-139" type="line"/>
      <point x="233" y="-139" type="line" smooth="yes"/>
      <point x="147.598" y="-139"/>
      <point x="81" y="-83.4831"/>
    </contour>
  </outline>
</glyph>
<glyph name="tml_HI" format="1">
  <advance width="1436"/>
  <outline>
    <contour>
      <point x="1081" y="597.1" type="line"/>
      <point x="1081" y="597.1" type="line"/>
      <point x="1081" y="701.1"/>
      <point x="1118" y="765.1"/>
      <point x="1212" y="765.1" type="curve" smooth="yes"/>
      <point x="1212" y="765.1" type="line"/>
      <point x="1212" y="725.1" type="line" smooth="yes"/>
      <point x="1212" y="725.1" type="line" smooth="yes"/>
      <point x="1132" y="725.1"/>
      <point x="1121" y="658.1"/>
      <point x="1121" y="597.1" type="curve" smooth="yes"/>
    </contour>
    <contour>
      <point x="1266" y="725.1" type="curve"/>
      <point x="1266" y="765.1" type="line"/>
      <point x="1363" y="765.1"/>
      <point x="1396" y="701.1"/>
      <point x="1396" y="599.1" type="curve" smooth="yes"/>
      <point x="1396" y="2.09961" type="line"/>
      <point x="1356" y="2.09961" type="line"/>
      <point x="1356" y="596.1" type="line" smooth="yes"/>
      <point x="1356" y="658.1"/>
      <point x="1352" y="725.1"/>
    </contour>
    <component base="tml_Ha"/>
  </outline>
</glyph>
<glyph name="tml_HIi" format="1">
  <advance width="1417"/>
  <outline>
    <contour>
      <point x="1127" y="574" type="line"/>
      <point x="1169" y="574" type="line"/>
      <point x="1169" y="597" type="line" smooth="yes"/>
      <point x="1094" y="755"/>
      <point x="1192" y="863"/>
      <point x="1274" y="863" type="curve"/>
      <point x="1372" y="863"/>
      <point x="1380" y="796"/>
      <point x="1380" y="781" type="curve" smooth="yes"/>
      <point x="1380" y="722"/>
      <point x="1331" y="706"/>
      <point x="1308" y="706" type="curve" smooth="yes"/>
      <point x="1283" y="706"/>
      <point x="1249" y="729"/>
      <point x="1249" y="745" type="curve" smooth="yes"/>
      <point x="1223" y="714" type="line"/>
      <point x="1233" y="693"/>
      <point x="1267" y="666"/>
      <point x="1305" y="666" type="curve" smooth="yes"/>
      <point x="1468" y="666"/>
      <point x="1458" y="903"/>
      <point x="1284" y="903" type="curve" smooth="yes"/>
      <point x="1148" y="903"/>
      <point x="1053" y="757"/>
      <point x="1127" y="598" type="curve" smooth="yes"/>
    </contour>
    <component base="tml_Ha"/>
  </outline>
</glyph>
<glyph name="tml_HU" format="1">
  <advance width="1653"/>
  <outline>
    <contour>
      <point x="1127" y="564" type="line"/>
      <point x="1127" y="604" type="line"/>
      <point x="1448" y="604" type="line" smooth="yes"/>
      <point x="1563" y="604"/>
      <point x="1613" y="553"/>
      <point x="1613" y="486" type="curve" smooth="yes"/>
      <point x="1613" y="479" type="line" smooth="yes"/>
      <point x="1613" y="420"/>
      <point x="1561" y="366"/>
      <point x="1506" y="366" type="curve" smooth="yes"/>
      <point x="1494" y="366" type="line" smooth="yes"/>
      <point x="1425" y="366"/>
      <point x="1383" y="429"/>
      <point x="1383" y="479" type="curve"/>
      <point x="1423" y="479" type="line" smooth="yes"/>
      <point x="1423" y="459"/>
      <point x="1440" y="406"/>
      <point x="1499" y="406" type="curve" smooth="yes"/>
      <point x="1554" y="406"/>
      <point x="1573" y="460"/>
      <point x="1573" y="478" type="curve" smooth="yes"/>
      <point x="1573" y="533"/>
      <point x="1541" y="564"/>
      <point x="1444" y="564" type="curve" smooth="yes"/>
    </contour>
    <component base="tml_Ha"/>
  </outline>
</glyph>
<glyph name="tml_HUu" format="1">
  <advance width="1801"/>
  <outline>
    <contour>
      <point x="1127" y="563.727" type="line"/>
      <point x="1127" y="603.727" type="line"/>
      <point x="1445" y="603.727" type="line" smooth="yes"/>
      <point x="1560" y="603.727"/>
      <point x="1610" y="552.727"/>
      <point x="1610" y="485.727" type="curve" smooth="yes"/>
      <point x="1610" y="478.727" type="line" smooth="yes"/>
      <point x="1610" y="419.727"/>
      <point x="1558" y="365.727"/>
      <point x="1503" y="365.727" type="curve" smooth="yes"/>
      <point x="1491" y="365.727" type="line" smooth="yes"/>
      <point x="1422" y="365.727"/>
      <point x="1380" y="428.727"/>
      <point x="1380" y="478.727" type="curve"/>
      <point x="1420" y="478.727" type="line" smooth="yes"/>
      <point x="1420" y="458.727"/>
      <point x="1437" y="405.727"/>
      <point x="1496" y="405.727" type="curve" smooth="yes"/>
      <point x="1551" y="405.727"/>
      <point x="1570" y="459.727"/>
      <point x="1570" y="477.727" type="curve" smooth="yes"/>
      <point x="1570" y="532.727"/>
      <point x="1538" y="563.727"/>
      <point x="1441" y="563.727" type="curve" smooth="yes"/>
    </contour>
    <contour>
      <point x="1377" y="600.727" type="line" smooth="yes"/>
      <point x="1377" y="742.727"/>
      <point x="1454" y="800.727"/>
      <point x="1569" y="800.727" type="curve" smooth="yes"/>
      <point x="1672" y="800.727"/>
      <point x="1761" y="749.727"/>
      <point x="1761" y="644.727" type="curve" smooth="yes"/>
      <point x="1761" y="320.727" type="line" smooth="yes"/>
      <point x="1761" y="242.727"/>
      <point x="1724" y="195.727"/>
      <point x="1623" y="195.727" type="curve" smooth="yes"/>
      <point x="1564" y="195.727" type="line" smooth="yes"/>
      <point x="1564" y="235.727" type="line" smooth="yes"/>
      <point x="1623" y="235.727" type="line" smooth="yes"/>
      <point x="1669" y="235.727"/>
      <point x="1721" y="238.727"/>
      <point x="1721" y="320.727" type="curve" smooth="yes"/>
      <point x="1721" y="644.727" type="line" smooth="yes"/>
      <point x="1721" y="701.727"/>
      <point x="1679" y="760.727"/>
      <point x="1569" y="760.727" type="curve" smooth="yes"/>
      <point x="1462" y="760.727"/>
      <point x="1417" y="702.727"/>
      <point x="1417" y="600.727" type="curve"/>
    </contour>
    <component base="tml_Ha"/>
  </outline>
</glyph>
<glyph name="tml_JI" format="1">
  <advance width="995"/>
  <outline>
    <contour>
      <point x="258" y="-180" type="line"/>
      <point x="131.84" y="-180"/>
      <point x="65" y="-57"/>
      <point x="65" y="25" type="curve" smooth="yes"/>
      <point x="65" y="64" type="line" smooth="yes"/>
      <point x="65" y="138"/>
      <point x="109.903" y="236"/>
      <point x="234" y="236" type="curve" smooth="yes"/>
      <point x="651" y="236" type="line" smooth="yes"/>
      <point x="785" y="236"/>
      <point x="794.868" y="291"/>
      <point x="799" y="419" type="curve"/>
      <point x="799" y="502" type="line"/>
      <point x="799" y="617.784"/>
      <point x="723" y="643"/>
      <point x="650" y="643" type="curve"/>
      <point x="584" y="643"/>
      <point x="514" y="619.625"/>
      <point x="514" y="464" type="curve" smooth="yes"/>
      <point x="514" y="371" type="line"/>
      <point x="475" y="371" type="line"/>
      <point x="475" y="480" type="line" smooth="yes"/>
      <point x="475" y="605.611"/>
      <point x="530" y="683"/>
      <point x="647" y="683" type="curve"/>
      <point x="780" y="683"/>
      <point x="839" y="617.396"/>
      <point x="839" y="502" type="curve"/>
      <point x="839" y="387" type="line" smooth="yes"/>
      <point x="837" y="218"/>
      <point x="745" y="196"/>
      <point x="665" y="196" type="curve" smooth="yes"/>
      <point x="227" y="196" type="line" smooth="yes"/>
      <point x="182.013" y="196"/>
      <point x="105" y="172"/>
      <point x="105" y="46" type="curve" smooth="yes"/>
      <point x="105" y="-78"/>
      <point x="185.905" y="-140"/>
      <point x="258" y="-140" type="curve"/>
    </contour>
    <contour>
      <point x="40" y="471" type="curve" smooth="yes"/>
      <point x="41" y="496" type="line" smooth="yes"/>
      <point x="41" y="581"/>
      <point x="151.195" y="686.299"/>
      <point x="201" y="686" type="curve" smooth="yes"/>
      <point x="314.999" y="685.316"/>
      <point x="372" y="604"/>
      <point x="372" y="499" type="curve" smooth="yes"/>
      <point x="372" y="471" type="line" smooth="yes"/>
      <point x="372" y="410"/>
      <point x="307.122" y="307"/>
      <point x="232" y="307" type="curve"/>
      <point x="232" y="344" type="line"/>
      <point x="255.52" y="344"/>
      <point x="335" y="394"/>
      <point x="335" y="499" type="curve" smooth="yes"/>
      <point x="335" y="612"/>
      <point x="259.246" y="649"/>
      <point x="207.375" y="649" type="curve" smooth="yes"/>
      <point x="162.351" y="649"/>
      <point x="81" y="595.727"/>
      <point x="81" y="481" type="curve" smooth="yes"/>
      <point x="81" y="380"/>
      <point x="156.272" y="343"/>
      <point x="178" y="343" type="curve"/>
      <point x="178" y="307" type="line"/>
      <point x="98.1924" y="307"/>
      <point x="40" y="397"/>
    </contour>
    <contour>
      <point x="40" y="472" type="line"/>
      <point x="40" y="482" type="line" smooth="yes"/>
      <point x="40" y="537"/>
      <point x="68.5674" y="696"/>
      <point x="273" y="696" type="curve"/>
      <point x="443" y="696"/>
      <point x="514" y="592"/>
      <point x="514" y="460" type="curve" smooth="yes"/>
      <point x="514" y="320" type="line"/>
      <point x="475" y="320" type="line"/>
      <point x="475" y="481" type="line" smooth="yes"/>
      <point x="475" y="537"/>
      <point x="434" y="660"/>
      <point x="274" y="660" type="curve" smooth="yes"/>
      <point x="160.25" y="660"/>
      <point x="80.0967" y="616"/>
      <point x="78" y="483" type="curve"/>
    </contour>
    <contour>
      <point x="319" y="-140" type="line"/>
      <point x="394" y="-140"/>
      <point x="456.302" y="-124.726"/>
      <point x="462" y="-23" type="curve" smooth="yes"/>
      <point x="467.899" y="82.3105"/>
      <point x="471" y="140"/>
      <point x="558" y="140" type="curve"/>
      <point x="593" y="140" type="line"/>
      <point x="593" y="100" type="line"/>
      <point x="560" y="100" type="line"/>
      <point x="501" y="100"/>
      <point x="512.373" y="65.0674"/>
      <point x="501" y="-59" type="curve" smooth="yes"/>
      <point x="494.062" y="-134.682"/>
      <point x="426" y="-180"/>
      <point x="319" y="-180" type="curve"/>
    </contour>
    <contour>
      <point x="640.133" y="677" type="line"/>
      <point x="640.133" y="677" type="line"/>
      <point x="640.133" y="781"/>
      <point x="677.133" y="845"/>
      <point x="771.133" y="845" type="curve" smooth="yes"/>
      <point x="771.133" y="845" type="line"/>
      <point x="771.133" y="805" type="line" smooth="yes"/>
      <point x="771.133" y="805" type="line" smooth="yes"/>
      <point x="691.133" y="805"/>
      <point x="680.133" y="738"/>
      <point x="680.133" y="677" type="curve" smooth="yes"/>
    </contour>
    <contour>
      <point x="548" y="-137" type="line" smooth="yes"/>
      <point x="619" y="-137"/>
      <point x="795.138" y="-138"/>
      <point x="793" y="-14" type="curve" smooth="yes"/>
      <point x="791.207" y="90"/>
      <point x="679" y="99"/>
      <point x="647" y="100" type="curve"/>
      <point x="647" y="140" type="line"/>
      <point x="734" y="140"/>
      <point x="833" y="97"/>
      <point x="833" y="-16" type="curve" smooth="yes"/>
      <point x="833" y="-151"/>
      <point x="703" y="-177"/>
      <point x="548" y="-177" type="curve" smooth="yes"/>
    </contour>
    <contour>
      <point x="825.133" y="805" type="curve"/>
      <point x="825.133" y="845" type="line"/>
      <point x="922.133" y="845"/>
      <point x="955.133" y="781"/>
      <point x="955.133" y="679" type="curve" smooth="yes"/>
      <point x="955.133" y="68" type="line"/>
      <point x="915.133" y="68" type="line"/>
      <point x="915.133" y="676" type="line" smooth="yes"/>
      <point x="915.133" y="738"/>
      <point x="911.133" y="805"/>
    </contour>
  </outline>
</glyph>
<glyph name="tml_JU" format="1">
  <advance width="1201"/>
  <outline>
    <contour>
      <point x="675" y="644" type="line"/>
      <point x="992" y="644" type="line" smooth="yes"/>
      <point x="1089" y="644"/>
      <point x="1121" y="613"/>
      <point x="1121" y="558" type="curve" smooth="yes"/>
      <point x="1121" y="540"/>
      <point x="1102" y="486"/>
      <point x="1047" y="486" type="curve" smooth="yes"/>
      <point x="988" y="486"/>
      <point x="971" y="539"/>
      <point x="971" y="559" type="curve" smooth="yes"/>
      <point x="931" y="559" type="line"/>
      <point x="931" y="509"/>
      <point x="973" y="446"/>
      <point x="1042" y="446" type="curve" smooth="yes"/>
      <point x="1054" y="446" type="line" smooth="yes"/>
      <point x="1109" y="446"/>
      <point x="1161" y="500"/>
      <point x="1161" y="559" type="curve" smooth="yes"/>
      <point x="1161" y="566" type="line" smooth="yes"/>
      <point x="1161" y="633"/>
      <point x="1111" y="684"/>
      <point x="996" y="684" type="curve" smooth="yes"/>
      <point x="675" y="684" type="line"/>
    </contour>
    <contour>
      <point x="648" y="196" type="line"/>
      <point x="665" y="196" type="line" smooth="yes"/>
      <point x="745" y="196"/>
      <point x="837" y="218"/>
      <point x="839" y="387" type="curve" smooth="yes"/>
      <point x="839" y="502" type="line"/>
      <point x="839" y="617.396"/>
      <point x="761.271" y="677.805"/>
      <point x="675" y="684" type="curve"/>
      <point x="675" y="644" type="line"/>
      <point x="711.711" y="638.902"/>
      <point x="799" y="617.784"/>
      <point x="799" y="502" type="curve"/>
      <point x="799" y="419" type="line"/>
      <point x="794.868" y="291"/>
      <point x="785" y="236"/>
      <point x="651" y="236" type="curve" smooth="yes"/>
      <point x="648" y="236" type="line" smooth="yes"/>
      <point x="234" y="236" type="line" smooth="yes"/>
      <point x="109.903" y="236"/>
      <point x="65" y="138"/>
      <point x="65" y="64" type="curve" smooth="yes"/>
      <point x="65" y="25" type="line" smooth="yes"/>
      <point x="65" y="-57"/>
      <point x="131.84" y="-180"/>
      <point x="258" y="-180" type="curve"/>
      <point x="258" y="-140" type="line"/>
      <point x="185.905" y="-140"/>
      <point x="105" y="-78"/>
      <point x="105" y="46" type="curve" smooth="yes"/>
      <point x="105" y="172"/>
      <point x="182.013" y="196"/>
      <point x="227" y="196" type="curve" smooth="yes"/>
    </contour>
    <contour>
      <point x="475" y="371" type="line"/>
      <point x="475" y="480" type="line" smooth="yes"/>
      <point x="475" y="605.611"/>
      <point x="533.037" y="675.5"/>
      <point x="621" y="684" type="curve"/>
      <point x="621" y="644" type="line"/>
      <point x="585.918" y="636.5"/>
      <point x="514" y="619.625"/>
      <point x="514" y="464" type="curve" smooth="yes"/>
      <point x="514" y="371" type="line"/>
    </contour>
    <contour>
      <point x="40" y="471" type="curve" smooth="yes"/>
      <point x="41" y="496" type="line" smooth="yes"/>
      <point x="41" y="581"/>
      <point x="151.195" y="686.299"/>
      <point x="201" y="686" type="curve" smooth="yes"/>
      <point x="314.999" y="685.316"/>
      <point x="372" y="604"/>
      <point x="372" y="499" type="curve" smooth="yes"/>
      <point x="372" y="471" type="line" smooth="yes"/>
      <point x="372" y="410"/>
      <point x="307.122" y="307"/>
      <point x="232" y="307" type="curve"/>
      <point x="232" y="344" type="line"/>
      <point x="255.52" y="344"/>
      <point x="335" y="394"/>
      <point x="335" y="499" type="curve" smooth="yes"/>
      <point x="335" y="612"/>
      <point x="259.246" y="649"/>
      <point x="207.375" y="649" type="curve" smooth="yes"/>
      <point x="162.351" y="649"/>
      <point x="81" y="595.727"/>
      <point x="81" y="481" type="curve" smooth="yes"/>
      <point x="81" y="380"/>
      <point x="156.272" y="343"/>
      <point x="178" y="343" type="curve"/>
      <point x="178" y="307" type="line"/>
      <point x="98.1924" y="307"/>
      <point x="40" y="397"/>
    </contour>
    <contour>
      <point x="40" y="472" type="line"/>
      <point x="40" y="482" type="line" smooth="yes"/>
      <point x="40" y="537"/>
      <point x="68.5674" y="696"/>
      <point x="273" y="696" type="curve"/>
      <point x="443" y="696"/>
      <point x="514" y="592"/>
      <point x="514" y="460" type="curve" smooth="yes"/>
      <point x="514" y="320" type="line"/>
      <point x="475" y="320" type="line"/>
      <point x="475" y="481" type="line" smooth="yes"/>
      <point x="475" y="537"/>
      <point x="434" y="660"/>
      <point x="274" y="660" type="curve" smooth="yes"/>
      <point x="160.25" y="660"/>
      <point x="80.0967" y="616"/>
      <point x="78" y="483" type="curve"/>
    </contour>
    <contour>
      <point x="548" y="-137" type="line" smooth="yes"/>
      <point x="619" y="-137"/>
      <point x="795.138" y="-138"/>
      <point x="793" y="-14" type="curve" smooth="yes"/>
      <point x="791.207" y="90"/>
      <point x="679" y="99"/>
      <point x="647" y="100" type="curve"/>
      <point x="647" y="140" type="line"/>
      <point x="734" y="140"/>
      <point x="833" y="97"/>
      <point x="833" y="-16" type="curve" smooth="yes"/>
      <point x="833" y="-151"/>
      <point x="703" y="-177"/>
      <point x="548" y="-177" type="curve" smooth="yes"/>
    </contour>
    <contour>
      <point x="319" y="-140" type="curve"/>
      <point x="319" y="-180" type="line"/>
      <point x="426" y="-180"/>
      <point x="494.062" y="-134.682"/>
      <point x="501" y="-59" type="curve" smooth="yes"/>
      <point x="512.373" y="65.0674"/>
      <point x="501" y="100"/>
      <point x="560" y="100" type="curve"/>
      <point x="593" y="100" type="line"/>
      <point x="593" y="140" type="line"/>
      <point x="558" y="140" type="line"/>
      <point x="471" y="140"/>
      <point x="467.899" y="82.3105"/>
      <point x="462" y="-23" type="curve" smooth="yes"/>
      <point x="456.302" y="-124.726"/>
      <point x="394" y="-140"/>
    </contour>
  </outline>
</glyph>
<glyph name="tml_JUu" format="1">
  <advance width="1334"/>
  <outline>
    <contour>
      <point x="1097" y="276" type="line" smooth="yes"/>
      <point x="1097" y="316" type="line" smooth="yes"/>
      <point x="1156" y="316" type="line" smooth="yes"/>
      <point x="1202" y="316"/>
      <point x="1254" y="319"/>
      <point x="1254" y="401" type="curve" smooth="yes"/>
      <point x="1254" y="725" type="line" smooth="yes"/>
      <point x="1254" y="782"/>
      <point x="1212" y="841"/>
      <point x="1102" y="841" type="curve" smooth="yes"/>
      <point x="995" y="841"/>
      <point x="950" y="783"/>
      <point x="950" y="681" type="curve"/>
      <point x="910" y="681" type="line" smooth="yes"/>
      <point x="910" y="823"/>
      <point x="987" y="881"/>
      <point x="1102" y="881" type="curve" smooth="yes"/>
      <point x="1205" y="881"/>
      <point x="1294" y="830"/>
      <point x="1294" y="725" type="curve" smooth="yes"/>
      <point x="1294" y="401" type="line" smooth="yes"/>
      <point x="1294" y="323"/>
      <point x="1257" y="276"/>
      <point x="1156" y="276" type="curve" smooth="yes"/>
    </contour>
    <contour>
      <point x="1024" y="446" type="line" smooth="yes"/>
      <point x="955" y="446"/>
      <point x="913" y="509"/>
      <point x="913" y="559" type="curve"/>
      <point x="953" y="559" type="line" smooth="yes"/>
      <point x="953" y="539"/>
      <point x="970" y="486"/>
      <point x="1029" y="486" type="curve" smooth="yes"/>
      <point x="1084" y="486"/>
      <point x="1103" y="540"/>
      <point x="1103" y="558" type="curve" smooth="yes"/>
      <point x="1103" y="613"/>
      <point x="1071" y="644"/>
      <point x="974" y="644" type="curve" smooth="yes"/>
      <point x="675" y="644" type="line"/>
      <point x="675" y="684" type="line"/>
      <point x="978" y="684" type="line" smooth="yes"/>
      <point x="1093" y="684"/>
      <point x="1143" y="633"/>
      <point x="1143" y="566" type="curve" smooth="yes"/>
      <point x="1143" y="559" type="line" smooth="yes"/>
      <point x="1143" y="500"/>
      <point x="1091" y="446"/>
      <point x="1036" y="446" type="curve" smooth="yes"/>
    </contour>
    <component base="tml_Ja" xOffset="-27"/>
  </outline>
</glyph>
<glyph name="tml_KI.alt" format="1">
  <advance width="916"/>
  <outline>
    <contour>
      <point x="68" y="304" type="curve"/>
      <point x="101" y="338" type="line"/>
      <point x="15" y="641"/>
      <point x="240" y="771"/>
      <point x="409" y="770" type="curve" smooth="yes"/>
      <point x="409" y="809" type="line"/>
      <point x="154" y="809"/>
      <point x="-33" y="602"/>
    </contour>
    <contour>
      <point x="463" y="770" type="line"/>
      <point x="565" y="770"/>
      <point x="836" y="736"/>
      <point x="836" y="426" type="curve" smooth="yes"/>
      <point x="836" y="68" type="line"/>
      <point x="877" y="68" type="line"/>
      <point x="877" y="429" type="line" smooth="yes"/>
      <point x="876" y="709"/>
      <point x="663" y="809"/>
      <point x="463" y="809" type="curve"/>
    </contour>
    <component base="tml_Ka" xOffset="-43.406"/>
  </outline>
</glyph>
<glyph name="tml_KI" format="1">
  <advance width="873"/>
  <outline>
    <contour>
      <point x="394" y="588" type="line"/>
      <point x="434" y="588" type="line" smooth="yes"/>
      <point x="434" y="649"/>
      <point x="439" y="727"/>
      <point x="566" y="727" type="curve" smooth="yes"/>
      <point x="566" y="727" type="line" smooth="yes"/>
      <point x="566" y="767" type="line"/>
      <point x="566" y="767" type="line" smooth="yes"/>
      <point x="432" y="767"/>
      <point x="394" y="692"/>
      <point x="394" y="588" type="curve"/>
    </contour>
    <contour>
      <point x="621" y="727" type="line"/>
      <point x="757" y="727"/>
      <point x="765" y="652"/>
      <point x="765" y="587" type="curve" smooth="yes"/>
      <point x="765" y="-2" type="line"/>
      <point x="805" y="-2" type="line"/>
      <point x="805" y="590" type="line" smooth="yes"/>
      <point x="805" y="691"/>
      <point x="766" y="767"/>
      <point x="621" y="767" type="curve"/>
    </contour>
    <component base="tml_Ka" xOffset="-48" yOffset="-3"/>
  </outline>
</glyph>
<glyph name="tml_KIi.alt" format="1">
  <advance width="739"/>
  <outline>
    <contour>
      <point x="72.2588" y="315" type="line"/>
      <point x="2.25879" y="541"/>
      <point x="46.001" y="770.864"/>
      <point x="205.259" y="855" type="curve" smooth="yes"/>
      <point x="311.259" y="911"/>
      <point x="446.432" y="920"/>
      <point x="557.878" y="888.79" type="curve"/>
      <point x="641.133" y="864.429"/>
      <point x="675.284" y="807.732"/>
      <point x="675.927" y="754" type="curve" smooth="yes"/>
      <point x="676.782" y="682.557"/>
      <point x="618.399" y="616.356"/>
      <point x="537.44" y="638.375" type="curve" smooth="yes"/>
      <point x="494.018" y="650.186"/>
      <point x="468.296" y="685.162"/>
      <point x="462.753" y="710.506" type="curve"/>
      <point x="498.432" y="735" type="line" smooth="yes"/>
      <point x="494.232" y="719.562"/>
      <point x="522.962" y="683.538"/>
      <point x="547.049" y="677.515" type="curve" smooth="yes"/>
      <point x="573.049" y="671.012"/>
      <point x="617.839" y="678.688"/>
      <point x="633.323" y="735.62" type="curve" smooth="yes"/>
      <point x="646.445" y="783.867"/>
      <point x="603.347" y="834.97"/>
      <point x="548.345" y="849.93" type="curve"/>
      <point x="431.259" y="886"/>
      <point x="291.364" y="854.391"/>
      <point x="228.259" y="823" type="curve" smooth="yes"/>
      <point x="94.915" y="756.671"/>
      <point x="46.7422" y="563.023"/>
      <point x="104.259" y="346" type="curve"/>
    </contour>
    <component base="tml_Ka" xOffset="-46.7416"/>
  </outline>
</glyph>
<glyph name="tml_KIi" format="1">
  <advance width="762"/>
  <outline>
    <contour>
      <point x="426" y="470.656" type="line"/>
      <point x="426" y="594" type="line" smooth="yes"/>
      <point x="352" y="753"/>
      <point x="447.394" y="899"/>
      <point x="583" y="899" type="curve" smooth="yes"/>
      <point x="757" y="899"/>
      <point x="766.69" y="662"/>
      <point x="604" y="662" type="curve" smooth="yes"/>
      <point x="566" y="662"/>
      <point x="532" y="689"/>
      <point x="522" y="710" type="curve"/>
      <point x="548" y="741" type="line" smooth="yes"/>
      <point x="548" y="725"/>
      <point x="582" y="702"/>
      <point x="607" y="702" type="curve" smooth="yes"/>
      <point x="630" y="702"/>
      <point x="679" y="718"/>
      <point x="679" y="777" type="curve" smooth="yes"/>
      <point x="679" y="792"/>
      <point x="671" y="859"/>
      <point x="573" y="859" type="curve"/>
      <point x="490.677" y="858.57"/>
      <point x="391" y="751"/>
      <point x="466" y="592.727" type="curve" smooth="yes"/>
      <point x="466" y="470.656" type="line"/>
    </contour>
    <component base="tml_Ka" xOffset="-15"/>
  </outline>
</glyph>
<glyph name="tml_KSsIi" format="1">
  <advance width="1710"/>
  <outline>
    <contour>
      <point x="1341" y="157.957" type="line"/>
      <point x="1259.41" y="157.957"/>
      <point x="1199" y="190.957"/>
      <point x="1199" y="333.957" type="curve" smooth="yes"/>
      <point x="1199" y="432.957" type="line" smooth="yes"/>
      <point x="1199" y="569.957"/>
      <point x="1256.41" y="606.957"/>
      <point x="1368" y="606.957" type="curve"/>
      <point x="1369.68" y="606.957"/>
      <point x="1371.35" y="606.948"/>
      <point x="1373" y="606.929" type="curve"/>
      <point x="1487.04" y="605.622"/>
      <point x="1534" y="558.843"/>
      <point x="1534" y="412.957" type="curve" smooth="yes"/>
      <point x="1534" y="122.957" type="line"/>
      <point x="1494" y="122.957" type="line"/>
      <point x="1494" y="412.957" type="line" smooth="yes"/>
      <point x="1494" y="551.95"/>
      <point x="1439.43" y="566.1"/>
      <point x="1375" y="566.916" type="curve"/>
      <point x="1372.68" y="566.945"/>
      <point x="1370.34" y="566.957"/>
      <point x="1368" y="566.957" type="curve"/>
      <point x="1322.45" y="566.957"/>
      <point x="1239" y="569.957"/>
      <point x="1239" y="434.957" type="curve" smooth="yes"/>
      <point x="1239" y="316.957" type="line" smooth="yes"/>
      <point x="1239" y="200.957"/>
      <point x="1304.83" y="196.957"/>
      <point x="1341" y="196.957" type="curve"/>
    </contour>
    <contour>
      <point x="1353" y="578.613" type="line"/>
      <point x="1353" y="602.957" type="line" smooth="yes"/>
      <point x="1279" y="761.957"/>
      <point x="1374.39" y="907.957"/>
      <point x="1510" y="907.957" type="curve" smooth="yes"/>
      <point x="1684" y="907.957"/>
      <point x="1693.69" y="670.957"/>
      <point x="1531" y="670.957" type="curve" smooth="yes"/>
      <point x="1493" y="670.957"/>
      <point x="1459" y="697.957"/>
      <point x="1449" y="718.957" type="curve"/>
      <point x="1475" y="749.957" type="line" smooth="yes"/>
      <point x="1475" y="733.957"/>
      <point x="1509" y="710.957"/>
      <point x="1534" y="710.957" type="curve" smooth="yes"/>
      <point x="1557" y="710.957"/>
      <point x="1606" y="726.957"/>
      <point x="1606" y="785.957" type="curve" smooth="yes"/>
      <point x="1606" y="800.957"/>
      <point x="1598" y="867.957"/>
      <point x="1500" y="867.957" type="curve"/>
      <point x="1417.68" y="867.527"/>
      <point x="1320" y="759.957"/>
      <point x="1395" y="601.684" type="curve" smooth="yes"/>
      <point x="1395" y="578.613" type="line"/>
    </contour>
    <contour>
      <point x="852" y="488" type="curve"/>
      <point x="852" y="528" type="line"/>
      <point x="1014" y="528"/>
      <point x="1068" y="428"/>
      <point x="1069" y="287" type="curve"/>
      <point x="1069" y="40" type="line"/>
      <point x="1340" y="40" type="line"/>
      <point x="1340" y="0" type="line"/>
      <point x="955" y="0" type="line"/>
      <point x="955" y="40" type="line"/>
      <point x="1022" y="40"/>
      <point x="1028" y="40"/>
      <point x="1028" y="76" type="curve" smooth="yes"/>
      <point x="1028" y="286" type="line"/>
      <point x="1027" y="416"/>
      <point x="980" y="488"/>
    </contour>
    <contour>
      <point x="40" y="161" type="curve" smooth="yes"/>
      <point x="40" y="185" type="line" smooth="yes"/>
      <point x="40" y="250"/>
      <point x="79" y="339"/>
      <point x="246" y="339" type="curve" smooth="yes"/>
      <point x="616" y="339" type="line"/>
      <point x="616" y="299" type="line"/>
      <point x="239" y="299" type="line" smooth="yes"/>
      <point x="184" y="299"/>
      <point x="79.9854" y="286"/>
      <point x="80" y="177" type="curve" smooth="yes"/>
      <point x="80.0176" y="47"/>
      <point x="167.632" y="34"/>
      <point x="230" y="34" type="curve"/>
      <point x="230" y="-6" type="line"/>
      <point x="56.5215" y="-5"/>
      <point x="40" y="117"/>
    </contour>
    <contour>
      <point x="578" y="172" type="curve" smooth="yes"/>
      <point x="578" y="196" type="line" smooth="yes"/>
      <point x="578" y="300"/>
      <point x="654" y="359"/>
      <point x="730" y="359" type="curve"/>
      <point x="730" y="319" type="line" smooth="yes"/>
      <point x="692.616" y="319"/>
      <point x="617" y="295"/>
      <point x="617" y="181" type="curve" smooth="yes"/>
      <point x="617" y="91"/>
      <point x="679.872" y="40"/>
      <point x="730" y="40" type="curve"/>
      <point x="730" y="0" type="line" smooth="yes"/>
      <point x="641.628" y="0"/>
      <point x="578" y="88"/>
    </contour>
    <contour>
      <point x="785" y="0" type="curve"/>
      <point x="785" y="40" type="line"/>
      <point x="829.449" y="40"/>
      <point x="879" y="88"/>
      <point x="879" y="182.617" type="curve" smooth="yes"/>
      <point x="879" y="282"/>
      <point x="827.264" y="319"/>
      <point x="785" y="319" type="curve"/>
      <point x="785" y="359" type="line" smooth="yes"/>
      <point x="858.184" y="359"/>
      <point x="921" y="292"/>
      <point x="921" y="196" type="curve" smooth="yes"/>
      <point x="921" y="173" type="line" smooth="yes"/>
      <point x="921.805" y="75"/>
      <point x="857.207" y="0"/>
    </contour>
    <contour>
      <point x="283" y="-6" type="curve"/>
      <point x="283" y="34" type="line"/>
      <point x="377.637" y="34"/>
      <point x="422.632" y="93"/>
      <point x="423" y="182" type="curve" smooth="yes"/>
      <point x="423" y="663" type="line"/>
      <point x="463" y="663" type="line"/>
      <point x="463" y="186" type="line" smooth="yes"/>
      <point x="463" y="90"/>
      <point x="420.261" y="-6"/>
    </contour>
    <contour>
      <point x="578" y="204" type="line"/>
      <point x="578" y="302" type="line"/>
      <point x="578" y="425.761"/>
      <point x="663.239" y="528"/>
      <point x="801" y="528" type="curve"/>
      <point x="801" y="488" type="line"/>
      <point x="686.521" y="488"/>
      <point x="619.671" y="404.391"/>
      <point x="618" y="306" type="curve" smooth="yes"/>
    </contour>
    <contour>
      <point x="165" y="316" type="line"/>
      <point x="165" y="661" type="line"/>
      <point x="206" y="661" type="line"/>
      <point x="205" y="316" type="line"/>
    </contour>
    <contour>
      <point x="165" y="630" type="line"/>
      <point x="165" y="670" type="line"/>
      <point x="288" y="670" type="line"/>
      <point x="288" y="630" type="line"/>
    </contour>
    <contour>
      <point x="342" y="630" type="line"/>
      <point x="342" y="670" type="line"/>
      <point x="610" y="670" type="line"/>
      <point x="610" y="630" type="line"/>
    </contour>
    <contour>
      <point x="1494" y="83" type="line"/>
      <point x="1534" y="83" type="line"/>
      <point x="1534" y="-178" type="line"/>
      <point x="1494" y="-178" type="line"/>
    </contour>
    <contour>
      <point x="1394" y="1" type="line"/>
      <point x="1394" y="41" type="line"/>
      <point x="1670" y="41" type="line"/>
      <point x="1670" y="0" type="line"/>
    </contour>
    <contour>
      <point x="1394" y="158" type="line"/>
      <point x="1394" y="198" type="line"/>
      <point x="1670" y="198" type="line" smooth="yes"/>
      <point x="1670" y="158" type="line"/>
    </contour>
    <contour>
      <point x="1630" y="0" type="line"/>
      <point x="1630" y="198" type="line"/>
      <point x="1670" y="198" type="line"/>
      <point x="1670" y="0" type="line"/>
    </contour>
  </outline>
</glyph>
